%TF.GenerationSoftware,KiCad,Pcbnew,10.0.6*%
%TF.CreationDate,2026-10-08T09:42:07-07:00*%
%TF.ProjectId,mainLightPCB_rev3,6d61696e-4c69-4676-9874-5043425f7265,rev?*%
%TF.SameCoordinates,Original*%
%TF.FileFunction,Copper,L2,Bot*%
%TF.FilePolarity,Positive*%
%FSLAX46Y46*%
G04 Gerber Fmt 4.6, Leading zero omitted, Abs format (unit mm)*
G04 Created by KiCad (PCBNEW 10.0.6) date 2026-10-08 09:42:07*
%MOMM*%
%LPD*%
G01*
G04 APERTURE LIST*
G04 Aperture macros list*
%AMRoundRect*
0 Rectangle with rounded corners*
0 $1 Rounding radius*
0 $2 $3 $4 $5 $6 $7 $8 $9 X,Y pos of 4 corners*
0 Add a 4 corners polygon primitive as box body*
4,1,4,$2,$3,$4,$5,$6,$7,$8,$9,$2,$3,0*
0 Add four circle primitives for the rounded corners*
1,1,$1+$1,$2,$3*
1,1,$1+$1,$4,$5*
1,1,$1+$1,$6,$7*
1,1,$1+$1,$8,$9*
0 Add four rect primitives between the rounded corners*
20,1,$1+$1,$2,$3,$4,$5,0*
20,1,$1+$1,$4,$5,$6,$7,0*
20,1,$1+$1,$6,$7,$8,$9,0*
20,1,$1+$1,$8,$9,$2,$3,0*%
G04 Aperture macros list end*
%TA.AperFunction,ComponentPad*%
%ADD10RoundRect,0.250000X-0.750000X0.600000X-0.750000X-0.600000X0.750000X-0.600000X0.750000X0.600000X0*%
%TD*%
%TA.AperFunction,ComponentPad*%
%ADD11O,2.000000X1.700000*%
%TD*%
%TA.AperFunction,ComponentPad*%
%ADD12C,3.600000*%
%TD*%
%TA.AperFunction,ConnectorPad*%
%ADD13C,5.600000*%
%TD*%
%TA.AperFunction,ComponentPad*%
%ADD14R,3.000000X3.000000*%
%TD*%
%TA.AperFunction,ComponentPad*%
%ADD15C,3.000000*%
%TD*%
%TA.AperFunction,ViaPad*%
%ADD16C,0.600000*%
%TD*%
%TA.AperFunction,Conductor*%
%ADD17C,1.500000*%
%TD*%
%TA.AperFunction,Conductor*%
%ADD18C,0.200000*%
%TD*%
%TA.AperFunction,Conductor*%
%ADD19C,3.000000*%
%TD*%
%TA.AperFunction,Conductor*%
%ADD20C,0.300000*%
%TD*%
G04 APERTURE END LIST*
D10*
%TO.P,J5,1,Pin_1_1*%
%TO.N,GND*%
X102000000Y-89500000D03*
D11*
%TO.P,J5,2,Pin_2_2*%
%TO.N,Net-(J5-Pin_2)*%
X102000000Y-92000000D03*
%TD*%
D12*
%TO.P,REF\u002A\u002A,1*%
%TO.N,N/C*%
X101500000Y-120500000D03*
D13*
X101500000Y-120500000D03*
%TD*%
D14*
%TO.P,J1,1,Pin_1_1*%
%TO.N,Net-(J1-Pin_1)*%
X118500000Y-81500000D03*
D15*
%TO.P,J1,2,Pin_2_2*%
%TO.N,Net-(J1-Pin_2)*%
X113420000Y-81500000D03*
%TO.P,J1,3,Pin_3_3*%
%TO.N,+24V*%
X108340000Y-81500000D03*
%TD*%
D14*
%TO.P,J7,1,Pin_1_1*%
%TO.N,GND*%
X102100000Y-98500000D03*
D15*
%TO.P,J7,2,Pin_2_2*%
%TO.N,+24V*%
X102100000Y-103580000D03*
%TD*%
D12*
%TO.P,REF\u002A\u002A,1*%
%TO.N,N/C*%
X101500000Y-81500000D03*
D13*
X101500000Y-81500000D03*
%TD*%
D14*
%TO.P,J3,1,Pin_1_1*%
%TO.N,Net-(J3-Pin_1)*%
X108340000Y-119500000D03*
D15*
%TO.P,J3,2,Pin_2_2*%
%TO.N,Net-(J3-Pin_2)*%
X113420000Y-119500000D03*
%TO.P,J3,3,Pin_3_3*%
%TO.N,+24V*%
X118500000Y-119500000D03*
%TD*%
D14*
%TO.P,J2,1,Pin_1_1*%
%TO.N,Net-(J2-Pin_1)*%
X135000000Y-81500000D03*
D15*
%TO.P,J2,2,Pin_2_2*%
%TO.N,Net-(J2-Pin_2)*%
X129920000Y-81500000D03*
%TO.P,J2,3,Pin_3_3*%
%TO.N,+24V*%
X124840000Y-81500000D03*
%TD*%
D14*
%TO.P,J4,1,Pin_1_1*%
%TO.N,Net-(J4-Pin_1)*%
X124840000Y-119500000D03*
D15*
%TO.P,J4,2,Pin_2_2*%
%TO.N,Net-(J4-Pin_2)*%
X129920000Y-119500000D03*
%TO.P,J4,3,Pin_3_3*%
%TO.N,+24V*%
X135000000Y-119500000D03*
%TD*%
D10*
%TO.P,J6,1,Pin_1_1*%
%TO.N,GND*%
X102000000Y-110000000D03*
D11*
%TO.P,J6,2,Pin_2_2*%
%TO.N,Net-(J6-Pin_2)*%
X102000000Y-112500000D03*
%TD*%
D12*
%TO.P,REF\u002A\u002A,1*%
%TO.N,N/C*%
X135000000Y-100500000D03*
D13*
X135000000Y-100500000D03*
%TD*%
D16*
%TO.N,Net-(Q1-G)*%
X126562500Y-92500000D03*
X116437500Y-92500000D03*
X129625000Y-109000000D03*
X119625000Y-109000000D03*
%TD*%
%TO.N,+24V*%
D17*
X128000000Y-112500000D02*
X135000000Y-119500000D01*
X102100000Y-103580000D02*
X106000000Y-99680000D01*
X102100000Y-103580000D02*
X118020000Y-119500000D01*
X114000000Y-112500000D02*
X128000000Y-112500000D01*
D18*
X102100000Y-103580000D02*
X102760000Y-103580000D01*
D17*
X108000000Y-98340000D02*
X124840000Y-81500000D01*
D19*
X102100000Y-103580000D02*
X105080000Y-103580000D01*
D17*
X108000000Y-100500000D02*
X108000000Y-98340000D01*
X104920000Y-103580000D02*
X108000000Y-100500000D01*
X118020000Y-119500000D02*
X118500000Y-119500000D01*
X105080000Y-103580000D02*
X114000000Y-112500000D01*
X106000000Y-99680000D02*
X106000000Y-83840000D01*
X106000000Y-83840000D02*
X108340000Y-81500000D01*
%TO.N,Net-(Q1-G)*%
D18*
X126500000Y-105875000D02*
X126562500Y-105937500D01*
X119625000Y-99000000D02*
X119562500Y-98937500D01*
D20*
X116437500Y-95812500D02*
X116437500Y-92500000D01*
X119562500Y-98937500D02*
X126562500Y-105937500D01*
X126562500Y-105937500D02*
X129625000Y-109000000D01*
X126562500Y-105812500D02*
X126562500Y-92500000D01*
X116375000Y-92562500D02*
X116437500Y-92500000D01*
X119625000Y-109000000D02*
X119625000Y-99000000D01*
X126500000Y-105875000D02*
X126562500Y-105812500D01*
X119562500Y-98937500D02*
X116437500Y-95812500D01*
%TD*%
%TA.AperFunction,Conductor*%
%TO.N,GND*%
G36*
X137004418Y-77500816D02*
G01*
X137204561Y-77515130D01*
X137222063Y-77517647D01*
X137413795Y-77559355D01*
X137430760Y-77564336D01*
X137614611Y-77632909D01*
X137630694Y-77640253D01*
X137747495Y-77704032D01*
X137802908Y-77734290D01*
X137817791Y-77743855D01*
X137974864Y-77861438D01*
X137988235Y-77873024D01*
X138126975Y-78011764D01*
X138138561Y-78025135D01*
X138256144Y-78182208D01*
X138265709Y-78197091D01*
X138359743Y-78369300D01*
X138367093Y-78385394D01*
X138435661Y-78569234D01*
X138440645Y-78586209D01*
X138482351Y-78777931D01*
X138484869Y-78795442D01*
X138499184Y-78995580D01*
X138499500Y-79004427D01*
X138499500Y-99916378D01*
X138479815Y-99983417D01*
X138427011Y-100029172D01*
X138357853Y-100039116D01*
X138294297Y-100010091D01*
X138256523Y-99951313D01*
X138253883Y-99940569D01*
X138205454Y-99697097D01*
X138205451Y-99697086D01*
X138205450Y-99697083D01*
X138205449Y-99697077D01*
X138111314Y-99386754D01*
X137987215Y-99087153D01*
X137834347Y-98801158D01*
X137654183Y-98531524D01*
X137448458Y-98280847D01*
X137448457Y-98280846D01*
X137448453Y-98280841D01*
X137219158Y-98051546D01*
X136968481Y-97845821D01*
X136968480Y-97845820D01*
X136968476Y-97845817D01*
X136698842Y-97665653D01*
X136698837Y-97665650D01*
X136698830Y-97665646D01*
X136412854Y-97512788D01*
X136412849Y-97512786D01*
X136113247Y-97388686D01*
X135802913Y-97294548D01*
X135802902Y-97294545D01*
X135484874Y-97231287D01*
X135484857Y-97231284D01*
X135240812Y-97207248D01*
X135162143Y-97199500D01*
X134837857Y-97199500D01*
X134765099Y-97206666D01*
X134515142Y-97231284D01*
X134515125Y-97231287D01*
X134197097Y-97294545D01*
X134197086Y-97294548D01*
X133886752Y-97388686D01*
X133587150Y-97512786D01*
X133587145Y-97512788D01*
X133301169Y-97665646D01*
X133301151Y-97665657D01*
X133031532Y-97845811D01*
X133031518Y-97845821D01*
X132780841Y-98051546D01*
X132551546Y-98280841D01*
X132345821Y-98531518D01*
X132345811Y-98531532D01*
X132165657Y-98801151D01*
X132165646Y-98801169D01*
X132012788Y-99087145D01*
X132012786Y-99087150D01*
X131888686Y-99386752D01*
X131794548Y-99697086D01*
X131794545Y-99697097D01*
X131731287Y-100015125D01*
X131731284Y-100015142D01*
X131699500Y-100337860D01*
X131699500Y-100662139D01*
X131731284Y-100984857D01*
X131731287Y-100984874D01*
X131794545Y-101302902D01*
X131794548Y-101302913D01*
X131888686Y-101613247D01*
X132012786Y-101912849D01*
X132012788Y-101912854D01*
X132165646Y-102198830D01*
X132165657Y-102198848D01*
X132345811Y-102468467D01*
X132345821Y-102468481D01*
X132551546Y-102719158D01*
X132780841Y-102948453D01*
X132780846Y-102948457D01*
X132780847Y-102948458D01*
X133031524Y-103154183D01*
X133301158Y-103334347D01*
X133301167Y-103334352D01*
X133301169Y-103334353D01*
X133587145Y-103487211D01*
X133587147Y-103487211D01*
X133587153Y-103487215D01*
X133886754Y-103611314D01*
X134197077Y-103705449D01*
X134197083Y-103705450D01*
X134197086Y-103705451D01*
X134197097Y-103705454D01*
X134369047Y-103739656D01*
X134515132Y-103768714D01*
X134837857Y-103800500D01*
X134837860Y-103800500D01*
X135162140Y-103800500D01*
X135162143Y-103800500D01*
X135484868Y-103768714D01*
X135642295Y-103737399D01*
X135802902Y-103705454D01*
X135802913Y-103705451D01*
X135802913Y-103705450D01*
X135802923Y-103705449D01*
X136113246Y-103611314D01*
X136412847Y-103487215D01*
X136698842Y-103334347D01*
X136968476Y-103154183D01*
X137219153Y-102948458D01*
X137448458Y-102719153D01*
X137654183Y-102468476D01*
X137834347Y-102198842D01*
X137987215Y-101912847D01*
X138111314Y-101613246D01*
X138205449Y-101302923D01*
X138205451Y-101302913D01*
X138205454Y-101302902D01*
X138253883Y-101059430D01*
X138286267Y-100997519D01*
X138346983Y-100962945D01*
X138416753Y-100966684D01*
X138473425Y-101007550D01*
X138499006Y-101072568D01*
X138499500Y-101083621D01*
X138499500Y-121995572D01*
X138499184Y-122004419D01*
X138484869Y-122204557D01*
X138482351Y-122222068D01*
X138440645Y-122413790D01*
X138435661Y-122430765D01*
X138367093Y-122614605D01*
X138359743Y-122630699D01*
X138265709Y-122802908D01*
X138256144Y-122817791D01*
X138138561Y-122974864D01*
X138126975Y-122988235D01*
X137988235Y-123126975D01*
X137974864Y-123138561D01*
X137817791Y-123256144D01*
X137802908Y-123265709D01*
X137630699Y-123359743D01*
X137614605Y-123367093D01*
X137430765Y-123435661D01*
X137413790Y-123440645D01*
X137222068Y-123482351D01*
X137204557Y-123484869D01*
X137023779Y-123497799D01*
X137004417Y-123499184D01*
X136995572Y-123499500D01*
X103360446Y-123499500D01*
X103293407Y-123479815D01*
X103247652Y-123427011D01*
X103237708Y-123357853D01*
X103266733Y-123294297D01*
X103291555Y-123272398D01*
X103315881Y-123256144D01*
X103468476Y-123154183D01*
X103719153Y-122948458D01*
X103948458Y-122719153D01*
X104154183Y-122468476D01*
X104334347Y-122198842D01*
X104487215Y-121912847D01*
X104611314Y-121613246D01*
X104705449Y-121302923D01*
X104705451Y-121302913D01*
X104705454Y-121302902D01*
X104744324Y-121107483D01*
X104768714Y-120984868D01*
X104800500Y-120662143D01*
X104800500Y-120337857D01*
X104768714Y-120015132D01*
X104725375Y-119797250D01*
X104705454Y-119697097D01*
X104705451Y-119697086D01*
X104705450Y-119697083D01*
X104705449Y-119697077D01*
X104611314Y-119386754D01*
X104487215Y-119087153D01*
X104363431Y-118855571D01*
X104334353Y-118801169D01*
X104334352Y-118801167D01*
X104334347Y-118801158D01*
X104154183Y-118531524D01*
X103948458Y-118280847D01*
X103948457Y-118280846D01*
X103948453Y-118280841D01*
X103719159Y-118051547D01*
X103710767Y-118044660D01*
X103710766Y-118044659D01*
X103598025Y-117952135D01*
X106339500Y-117952135D01*
X106339500Y-121047870D01*
X106339501Y-121047876D01*
X106345908Y-121107483D01*
X106396202Y-121242328D01*
X106396206Y-121242335D01*
X106482452Y-121357544D01*
X106482455Y-121357547D01*
X106597664Y-121443793D01*
X106597671Y-121443797D01*
X106732517Y-121494091D01*
X106732516Y-121494091D01*
X106739444Y-121494835D01*
X106792127Y-121500500D01*
X109887872Y-121500499D01*
X109947483Y-121494091D01*
X110082331Y-121443796D01*
X110197546Y-121357546D01*
X110283796Y-121242331D01*
X110334091Y-121107483D01*
X110340500Y-121047873D01*
X110340499Y-117952128D01*
X110334091Y-117892517D01*
X110283796Y-117757669D01*
X110283795Y-117757668D01*
X110283793Y-117757664D01*
X110197547Y-117642455D01*
X110197544Y-117642452D01*
X110082335Y-117556206D01*
X110082328Y-117556202D01*
X109947482Y-117505908D01*
X109947483Y-117505908D01*
X109887883Y-117499501D01*
X109887881Y-117499500D01*
X109887873Y-117499500D01*
X109887864Y-117499500D01*
X106792129Y-117499500D01*
X106792123Y-117499501D01*
X106732516Y-117505908D01*
X106597671Y-117556202D01*
X106597664Y-117556206D01*
X106482455Y-117642452D01*
X106482452Y-117642455D01*
X106396206Y-117757664D01*
X106396202Y-117757671D01*
X106345908Y-117892517D01*
X106339501Y-117952116D01*
X106339501Y-117952123D01*
X106339500Y-117952135D01*
X103598025Y-117952135D01*
X103468481Y-117845821D01*
X103468480Y-117845820D01*
X103468476Y-117845817D01*
X103198842Y-117665653D01*
X103198837Y-117665650D01*
X103198830Y-117665646D01*
X102912854Y-117512788D01*
X102912849Y-117512786D01*
X102909114Y-117511239D01*
X102740434Y-117441369D01*
X102613247Y-117388686D01*
X102302913Y-117294548D01*
X102302902Y-117294545D01*
X101984874Y-117231287D01*
X101984857Y-117231284D01*
X101740812Y-117207248D01*
X101662143Y-117199500D01*
X101337857Y-117199500D01*
X101265099Y-117206666D01*
X101015142Y-117231284D01*
X101015125Y-117231287D01*
X100697097Y-117294545D01*
X100697086Y-117294548D01*
X100386752Y-117388686D01*
X100087150Y-117512786D01*
X100087145Y-117512788D01*
X99801169Y-117665646D01*
X99801151Y-117665657D01*
X99531532Y-117845811D01*
X99531518Y-117845821D01*
X99280841Y-118051546D01*
X99051546Y-118280841D01*
X98845821Y-118531518D01*
X98845811Y-118531532D01*
X98665657Y-118801151D01*
X98665646Y-118801169D01*
X98512788Y-119087145D01*
X98512786Y-119087150D01*
X98388686Y-119386752D01*
X98294548Y-119697086D01*
X98294545Y-119697097D01*
X98246117Y-119940569D01*
X98213732Y-120002480D01*
X98153017Y-120037054D01*
X98083247Y-120033315D01*
X98026575Y-119992449D01*
X98000994Y-119927431D01*
X98000500Y-119916378D01*
X98000500Y-112393713D01*
X100499500Y-112393713D01*
X100499500Y-112606286D01*
X100532753Y-112816239D01*
X100598444Y-113018414D01*
X100694951Y-113207820D01*
X100819890Y-113379786D01*
X100970213Y-113530109D01*
X101142179Y-113655048D01*
X101142181Y-113655049D01*
X101142184Y-113655051D01*
X101331588Y-113751557D01*
X101533757Y-113817246D01*
X101743713Y-113850500D01*
X101743714Y-113850500D01*
X102256286Y-113850500D01*
X102256287Y-113850500D01*
X102466243Y-113817246D01*
X102668412Y-113751557D01*
X102857816Y-113655051D01*
X102879789Y-113639086D01*
X103029786Y-113530109D01*
X103029788Y-113530106D01*
X103029792Y-113530104D01*
X103180104Y-113379792D01*
X103180106Y-113379788D01*
X103180109Y-113379786D01*
X103305048Y-113207820D01*
X103305047Y-113207820D01*
X103305051Y-113207816D01*
X103401557Y-113018412D01*
X103467246Y-112816243D01*
X103500500Y-112606287D01*
X103500500Y-112393713D01*
X103467246Y-112183757D01*
X103401557Y-111981588D01*
X103305051Y-111792184D01*
X103305049Y-111792181D01*
X103305048Y-111792179D01*
X103180109Y-111620213D01*
X103040931Y-111481035D01*
X103007446Y-111419712D01*
X103012430Y-111350020D01*
X103054302Y-111294087D01*
X103063516Y-111287815D01*
X103218343Y-111192317D01*
X103342315Y-111068345D01*
X103434356Y-110919124D01*
X103434358Y-110919119D01*
X103489505Y-110752697D01*
X103489506Y-110752690D01*
X103499999Y-110649986D01*
X103500000Y-110649973D01*
X103500000Y-110250000D01*
X102433012Y-110250000D01*
X102465925Y-110192993D01*
X102500000Y-110065826D01*
X102500000Y-109934174D01*
X102465925Y-109807007D01*
X102433012Y-109750000D01*
X103499999Y-109750000D01*
X103499999Y-109350028D01*
X103499998Y-109350013D01*
X103489505Y-109247302D01*
X103434358Y-109080880D01*
X103434356Y-109080875D01*
X103342315Y-108931654D01*
X103218345Y-108807684D01*
X103069124Y-108715643D01*
X103069119Y-108715641D01*
X102902697Y-108660494D01*
X102902690Y-108660493D01*
X102799986Y-108650000D01*
X102250000Y-108650000D01*
X102250000Y-109566988D01*
X102192993Y-109534075D01*
X102065826Y-109500000D01*
X101934174Y-109500000D01*
X101807007Y-109534075D01*
X101750000Y-109566988D01*
X101750000Y-108650000D01*
X101200028Y-108650000D01*
X101200012Y-108650001D01*
X101097302Y-108660494D01*
X100930880Y-108715641D01*
X100930875Y-108715643D01*
X100781654Y-108807684D01*
X100657684Y-108931654D01*
X100565643Y-109080875D01*
X100565641Y-109080880D01*
X100510494Y-109247302D01*
X100510493Y-109247309D01*
X100500000Y-109350013D01*
X100500000Y-109750000D01*
X101566988Y-109750000D01*
X101534075Y-109807007D01*
X101500000Y-109934174D01*
X101500000Y-110065826D01*
X101534075Y-110192993D01*
X101566988Y-110250000D01*
X100500001Y-110250000D01*
X100500001Y-110649986D01*
X100510494Y-110752697D01*
X100565641Y-110919119D01*
X100565643Y-110919124D01*
X100657684Y-111068345D01*
X100781654Y-111192315D01*
X100936484Y-111287815D01*
X100983208Y-111339763D01*
X100994431Y-111408726D01*
X100966587Y-111472808D01*
X100959069Y-111481035D01*
X100819889Y-111620215D01*
X100694951Y-111792179D01*
X100598444Y-111981585D01*
X100532753Y-112183760D01*
X100499500Y-112393713D01*
X98000500Y-112393713D01*
X98000500Y-103448872D01*
X100099500Y-103448872D01*
X100099500Y-103711127D01*
X100108858Y-103782203D01*
X100133730Y-103971116D01*
X100192495Y-104190430D01*
X100201602Y-104224418D01*
X100201605Y-104224428D01*
X100301953Y-104466690D01*
X100301958Y-104466700D01*
X100433075Y-104693803D01*
X100592718Y-104901851D01*
X100592726Y-104901860D01*
X100778140Y-105087274D01*
X100778148Y-105087281D01*
X100986196Y-105246924D01*
X101213299Y-105378041D01*
X101213309Y-105378046D01*
X101455571Y-105478394D01*
X101455581Y-105478398D01*
X101708884Y-105546270D01*
X101968880Y-105580500D01*
X102280664Y-105580500D01*
X102347703Y-105600185D01*
X102368345Y-105616819D01*
X114131572Y-117380046D01*
X114165057Y-117441369D01*
X114160073Y-117511061D01*
X114118201Y-117566994D01*
X114052737Y-117591411D01*
X114011798Y-117587502D01*
X113894998Y-117556206D01*
X113811116Y-117533730D01*
X113778616Y-117529451D01*
X113551127Y-117499500D01*
X113551120Y-117499500D01*
X113288880Y-117499500D01*
X113288872Y-117499500D01*
X113057772Y-117529926D01*
X113028884Y-117533730D01*
X112828203Y-117587502D01*
X112775581Y-117601602D01*
X112775571Y-117601605D01*
X112533309Y-117701953D01*
X112533299Y-117701958D01*
X112306196Y-117833075D01*
X112098148Y-117992718D01*
X111912718Y-118178148D01*
X111753075Y-118386196D01*
X111621958Y-118613299D01*
X111621953Y-118613309D01*
X111521605Y-118855571D01*
X111521602Y-118855581D01*
X111453730Y-119108885D01*
X111419500Y-119368872D01*
X111419500Y-119631127D01*
X111428186Y-119697097D01*
X111453730Y-119891116D01*
X111460499Y-119916378D01*
X111521602Y-120144418D01*
X111521605Y-120144428D01*
X111621953Y-120386690D01*
X111621958Y-120386700D01*
X111753075Y-120613803D01*
X111912718Y-120821851D01*
X111912726Y-120821860D01*
X112098140Y-121007274D01*
X112098148Y-121007281D01*
X112306196Y-121166924D01*
X112533299Y-121298041D01*
X112533309Y-121298046D01*
X112775571Y-121398394D01*
X112775581Y-121398398D01*
X113028884Y-121466270D01*
X113277188Y-121498960D01*
X113288864Y-121500498D01*
X113288880Y-121500500D01*
X113288887Y-121500500D01*
X113551113Y-121500500D01*
X113551120Y-121500500D01*
X113811116Y-121466270D01*
X114064419Y-121398398D01*
X114294940Y-121302913D01*
X114306690Y-121298046D01*
X114306691Y-121298045D01*
X114306697Y-121298043D01*
X114533803Y-121166924D01*
X114741851Y-121007282D01*
X114741855Y-121007277D01*
X114741860Y-121007274D01*
X114927274Y-120821860D01*
X114927277Y-120821855D01*
X114927282Y-120821851D01*
X115086924Y-120613803D01*
X115218043Y-120386697D01*
X115318398Y-120144419D01*
X115386270Y-119891116D01*
X115420500Y-119631120D01*
X115420500Y-119368880D01*
X115386270Y-119108884D01*
X115332497Y-118908199D01*
X115334160Y-118838352D01*
X115373323Y-118780489D01*
X115437551Y-118752985D01*
X115506453Y-118764571D01*
X115539953Y-118788427D01*
X116487453Y-119735927D01*
X116520938Y-119797250D01*
X116522711Y-119807422D01*
X116533730Y-119891116D01*
X116540499Y-119916378D01*
X116601602Y-120144418D01*
X116601605Y-120144428D01*
X116701953Y-120386690D01*
X116701958Y-120386700D01*
X116833075Y-120613803D01*
X116992718Y-120821851D01*
X116992726Y-120821860D01*
X117178140Y-121007274D01*
X117178148Y-121007281D01*
X117386196Y-121166924D01*
X117613299Y-121298041D01*
X117613309Y-121298046D01*
X117855571Y-121398394D01*
X117855581Y-121398398D01*
X118108884Y-121466270D01*
X118357188Y-121498960D01*
X118368864Y-121500498D01*
X118368880Y-121500500D01*
X118368887Y-121500500D01*
X118631113Y-121500500D01*
X118631120Y-121500500D01*
X118891116Y-121466270D01*
X119144419Y-121398398D01*
X119374940Y-121302913D01*
X119386690Y-121298046D01*
X119386691Y-121298045D01*
X119386697Y-121298043D01*
X119613803Y-121166924D01*
X119821851Y-121007282D01*
X119821855Y-121007277D01*
X119821860Y-121007274D01*
X120007274Y-120821860D01*
X120007277Y-120821855D01*
X120007282Y-120821851D01*
X120166924Y-120613803D01*
X120298043Y-120386697D01*
X120398398Y-120144419D01*
X120466270Y-119891116D01*
X120500500Y-119631120D01*
X120500500Y-119368880D01*
X120466270Y-119108884D01*
X120398398Y-118855581D01*
X120375855Y-118801158D01*
X120298046Y-118613309D01*
X120298041Y-118613299D01*
X120166924Y-118386196D01*
X120007281Y-118178148D01*
X120007274Y-118178140D01*
X119821860Y-117992726D01*
X119821851Y-117992718D01*
X119768963Y-117952135D01*
X122839500Y-117952135D01*
X122839500Y-121047870D01*
X122839501Y-121047876D01*
X122845908Y-121107483D01*
X122896202Y-121242328D01*
X122896206Y-121242335D01*
X122982452Y-121357544D01*
X122982455Y-121357547D01*
X123097664Y-121443793D01*
X123097671Y-121443797D01*
X123232517Y-121494091D01*
X123232516Y-121494091D01*
X123239444Y-121494835D01*
X123292127Y-121500500D01*
X126387872Y-121500499D01*
X126447483Y-121494091D01*
X126582331Y-121443796D01*
X126697546Y-121357546D01*
X126783796Y-121242331D01*
X126834091Y-121107483D01*
X126840500Y-121047873D01*
X126840499Y-119368872D01*
X127919500Y-119368872D01*
X127919500Y-119631127D01*
X127928186Y-119697097D01*
X127953730Y-119891116D01*
X127960499Y-119916378D01*
X128021602Y-120144418D01*
X128021605Y-120144428D01*
X128121953Y-120386690D01*
X128121958Y-120386700D01*
X128253075Y-120613803D01*
X128412718Y-120821851D01*
X128412726Y-120821860D01*
X128598140Y-121007274D01*
X128598148Y-121007281D01*
X128806196Y-121166924D01*
X129033299Y-121298041D01*
X129033309Y-121298046D01*
X129275571Y-121398394D01*
X129275581Y-121398398D01*
X129528884Y-121466270D01*
X129777188Y-121498960D01*
X129788864Y-121500498D01*
X129788880Y-121500500D01*
X129788887Y-121500500D01*
X130051113Y-121500500D01*
X130051120Y-121500500D01*
X130311116Y-121466270D01*
X130564419Y-121398398D01*
X130794940Y-121302913D01*
X130806690Y-121298046D01*
X130806691Y-121298045D01*
X130806697Y-121298043D01*
X131033803Y-121166924D01*
X131241851Y-121007282D01*
X131241855Y-121007277D01*
X131241860Y-121007274D01*
X131427274Y-120821860D01*
X131427277Y-120821855D01*
X131427282Y-120821851D01*
X131586924Y-120613803D01*
X131718043Y-120386697D01*
X131818398Y-120144419D01*
X131886270Y-119891116D01*
X131920500Y-119631120D01*
X131920500Y-119368880D01*
X131886270Y-119108884D01*
X131818398Y-118855581D01*
X131795855Y-118801158D01*
X131718046Y-118613309D01*
X131718041Y-118613299D01*
X131586924Y-118386196D01*
X131427281Y-118178148D01*
X131427274Y-118178140D01*
X131241860Y-117992726D01*
X131241851Y-117992718D01*
X131033803Y-117833075D01*
X130806700Y-117701958D01*
X130806690Y-117701953D01*
X130564428Y-117601605D01*
X130564421Y-117601603D01*
X130564419Y-117601602D01*
X130311116Y-117533730D01*
X130253339Y-117526123D01*
X130051127Y-117499500D01*
X130051120Y-117499500D01*
X129788880Y-117499500D01*
X129788872Y-117499500D01*
X129557772Y-117529926D01*
X129528884Y-117533730D01*
X129328203Y-117587502D01*
X129275581Y-117601602D01*
X129275571Y-117601605D01*
X129033309Y-117701953D01*
X129033299Y-117701958D01*
X128806196Y-117833075D01*
X128598148Y-117992718D01*
X128412718Y-118178148D01*
X128253075Y-118386196D01*
X128121958Y-118613299D01*
X128121953Y-118613309D01*
X128021605Y-118855571D01*
X128021602Y-118855581D01*
X127953730Y-119108885D01*
X127919500Y-119368872D01*
X126840499Y-119368872D01*
X126840499Y-117952128D01*
X126834091Y-117892517D01*
X126783796Y-117757669D01*
X126783795Y-117757668D01*
X126783793Y-117757664D01*
X126697547Y-117642455D01*
X126697544Y-117642452D01*
X126582335Y-117556206D01*
X126582328Y-117556202D01*
X126447482Y-117505908D01*
X126447483Y-117505908D01*
X126387883Y-117499501D01*
X126387881Y-117499500D01*
X126387873Y-117499500D01*
X126387864Y-117499500D01*
X123292129Y-117499500D01*
X123292123Y-117499501D01*
X123232516Y-117505908D01*
X123097671Y-117556202D01*
X123097664Y-117556206D01*
X122982455Y-117642452D01*
X122982452Y-117642455D01*
X122896206Y-117757664D01*
X122896202Y-117757671D01*
X122845908Y-117892517D01*
X122839501Y-117952116D01*
X122839501Y-117952123D01*
X122839500Y-117952135D01*
X119768963Y-117952135D01*
X119613803Y-117833075D01*
X119386700Y-117701958D01*
X119386690Y-117701953D01*
X119144428Y-117601605D01*
X119144421Y-117601603D01*
X119144419Y-117601602D01*
X118891116Y-117533730D01*
X118833339Y-117526123D01*
X118631127Y-117499500D01*
X118631120Y-117499500D01*
X118368880Y-117499500D01*
X118368872Y-117499500D01*
X118121402Y-117532081D01*
X118108884Y-117533730D01*
X118071716Y-117543689D01*
X117951937Y-117575783D01*
X117882087Y-117574120D01*
X117832163Y-117543689D01*
X114250655Y-113962181D01*
X114217170Y-113900858D01*
X114222154Y-113831166D01*
X114264026Y-113775233D01*
X114329490Y-113750816D01*
X114338336Y-113750500D01*
X127430664Y-113750500D01*
X127497703Y-113770185D01*
X127518345Y-113786819D01*
X132967999Y-119236473D01*
X133001484Y-119297796D01*
X133003257Y-119340338D01*
X132999501Y-119368867D01*
X132999500Y-119368886D01*
X132999500Y-119631127D01*
X133008186Y-119697097D01*
X133033730Y-119891116D01*
X133040499Y-119916378D01*
X133101602Y-120144418D01*
X133101605Y-120144428D01*
X133201953Y-120386690D01*
X133201958Y-120386700D01*
X133333075Y-120613803D01*
X133492718Y-120821851D01*
X133492726Y-120821860D01*
X133678140Y-121007274D01*
X133678148Y-121007281D01*
X133886196Y-121166924D01*
X134113299Y-121298041D01*
X134113309Y-121298046D01*
X134355571Y-121398394D01*
X134355581Y-121398398D01*
X134608884Y-121466270D01*
X134857188Y-121498960D01*
X134868864Y-121500498D01*
X134868880Y-121500500D01*
X134868887Y-121500500D01*
X135131113Y-121500500D01*
X135131120Y-121500500D01*
X135391116Y-121466270D01*
X135644419Y-121398398D01*
X135874940Y-121302913D01*
X135886690Y-121298046D01*
X135886691Y-121298045D01*
X135886697Y-121298043D01*
X136113803Y-121166924D01*
X136321851Y-121007282D01*
X136321855Y-121007277D01*
X136321860Y-121007274D01*
X136507274Y-120821860D01*
X136507277Y-120821855D01*
X136507282Y-120821851D01*
X136666924Y-120613803D01*
X136798043Y-120386697D01*
X136898398Y-120144419D01*
X136966270Y-119891116D01*
X137000500Y-119631120D01*
X137000500Y-119368880D01*
X136966270Y-119108884D01*
X136898398Y-118855581D01*
X136875855Y-118801158D01*
X136798046Y-118613309D01*
X136798041Y-118613299D01*
X136666924Y-118386196D01*
X136507281Y-118178148D01*
X136507274Y-118178140D01*
X136321860Y-117992726D01*
X136321851Y-117992718D01*
X136113803Y-117833075D01*
X135886700Y-117701958D01*
X135886690Y-117701953D01*
X135644428Y-117601605D01*
X135644421Y-117601603D01*
X135644419Y-117601602D01*
X135391116Y-117533730D01*
X135333339Y-117526123D01*
X135131127Y-117499500D01*
X135131120Y-117499500D01*
X134868880Y-117499500D01*
X134868875Y-117499500D01*
X134868867Y-117499501D01*
X134840338Y-117503257D01*
X134771303Y-117492491D01*
X134736473Y-117467999D01*
X128814648Y-111546174D01*
X128814646Y-111546172D01*
X128655405Y-111430476D01*
X128480030Y-111341117D01*
X128292826Y-111280290D01*
X128098422Y-111249500D01*
X128098417Y-111249500D01*
X114569336Y-111249500D01*
X114502297Y-111229815D01*
X114481655Y-111213181D01*
X107112000Y-103843526D01*
X107078515Y-103782203D01*
X107076742Y-103739660D01*
X107080500Y-103711120D01*
X107080500Y-103448880D01*
X107058128Y-103278954D01*
X107068893Y-103209919D01*
X107093386Y-103175087D01*
X107332902Y-102935571D01*
X108953829Y-101314646D01*
X109069524Y-101155405D01*
X109158884Y-100980026D01*
X109219709Y-100792826D01*
X109244282Y-100637674D01*
X109250500Y-100598417D01*
X109250500Y-98909336D01*
X109270185Y-98842297D01*
X109286819Y-98821655D01*
X112231905Y-95876569D01*
X115455148Y-92653325D01*
X115516469Y-92619842D01*
X115586161Y-92624826D01*
X115642094Y-92666698D01*
X115664444Y-92716813D01*
X115667762Y-92733495D01*
X115667764Y-92733501D01*
X115728102Y-92879172D01*
X115728106Y-92879179D01*
X115766102Y-92936044D01*
X115786980Y-93002721D01*
X115787000Y-93004935D01*
X115787000Y-95876569D01*
X115787000Y-95876571D01*
X115786999Y-95876571D01*
X115811997Y-96002238D01*
X115811999Y-96002244D01*
X115861034Y-96120625D01*
X115932226Y-96227173D01*
X115932227Y-96227174D01*
X118938181Y-99233127D01*
X118971666Y-99294450D01*
X118974500Y-99320808D01*
X118974500Y-108495064D01*
X118954815Y-108562103D01*
X118953603Y-108563954D01*
X118915608Y-108620817D01*
X118915602Y-108620828D01*
X118855264Y-108766498D01*
X118855261Y-108766510D01*
X118824500Y-108921153D01*
X118824500Y-109078846D01*
X118855261Y-109233489D01*
X118855264Y-109233501D01*
X118915602Y-109379172D01*
X118915609Y-109379185D01*
X119003210Y-109510288D01*
X119003213Y-109510292D01*
X119114707Y-109621786D01*
X119114711Y-109621789D01*
X119245814Y-109709390D01*
X119245827Y-109709397D01*
X119343853Y-109750000D01*
X119391503Y-109769737D01*
X119546153Y-109800499D01*
X119546156Y-109800500D01*
X119546158Y-109800500D01*
X119703844Y-109800500D01*
X119703845Y-109800499D01*
X119858497Y-109769737D01*
X120004179Y-109709394D01*
X120135289Y-109621789D01*
X120246789Y-109510289D01*
X120334394Y-109379179D01*
X120394737Y-109233497D01*
X120425500Y-109078842D01*
X120425500Y-108921158D01*
X120425500Y-108921155D01*
X120425499Y-108921153D01*
X120394738Y-108766510D01*
X120394737Y-108766503D01*
X120373670Y-108715643D01*
X120334397Y-108620828D01*
X120334396Y-108620827D01*
X120334394Y-108620821D01*
X120296396Y-108563953D01*
X120275520Y-108497276D01*
X120275500Y-108495064D01*
X120275500Y-100869808D01*
X120295185Y-100802769D01*
X120347989Y-100757014D01*
X120417147Y-100747070D01*
X120480703Y-100776095D01*
X120487181Y-100782127D01*
X128807984Y-109102930D01*
X128841469Y-109164253D01*
X128841920Y-109166420D01*
X128855261Y-109233489D01*
X128855264Y-109233501D01*
X128915602Y-109379172D01*
X128915609Y-109379185D01*
X129003210Y-109510288D01*
X129003213Y-109510292D01*
X129114707Y-109621786D01*
X129114711Y-109621789D01*
X129245814Y-109709390D01*
X129245827Y-109709397D01*
X129343853Y-109750000D01*
X129391503Y-109769737D01*
X129546153Y-109800499D01*
X129546156Y-109800500D01*
X129546158Y-109800500D01*
X129703844Y-109800500D01*
X129703845Y-109800499D01*
X129858497Y-109769737D01*
X130004179Y-109709394D01*
X130135289Y-109621789D01*
X130246789Y-109510289D01*
X130334394Y-109379179D01*
X130394737Y-109233497D01*
X130425500Y-109078842D01*
X130425500Y-108921158D01*
X130425500Y-108921155D01*
X130425499Y-108921153D01*
X130394738Y-108766510D01*
X130394737Y-108766503D01*
X130373670Y-108715643D01*
X130334397Y-108620827D01*
X130334390Y-108620814D01*
X130246789Y-108489711D01*
X130246786Y-108489707D01*
X130135292Y-108378213D01*
X130135288Y-108378210D01*
X130004185Y-108290609D01*
X130004172Y-108290602D01*
X129858501Y-108230264D01*
X129858489Y-108230261D01*
X129791420Y-108216920D01*
X129729509Y-108184535D01*
X129727930Y-108182984D01*
X127249319Y-105704373D01*
X127215834Y-105643050D01*
X127213000Y-105616692D01*
X127213000Y-93004935D01*
X127232685Y-92937896D01*
X127233866Y-92936090D01*
X127271894Y-92879179D01*
X127332237Y-92733497D01*
X127363000Y-92578842D01*
X127363000Y-92421158D01*
X127363000Y-92421155D01*
X127362999Y-92421153D01*
X127332238Y-92266510D01*
X127332237Y-92266503D01*
X127332235Y-92266498D01*
X127271897Y-92120827D01*
X127271890Y-92120814D01*
X127184289Y-91989711D01*
X127184286Y-91989707D01*
X127072792Y-91878213D01*
X127072788Y-91878210D01*
X126941685Y-91790609D01*
X126941672Y-91790602D01*
X126796001Y-91730264D01*
X126795989Y-91730261D01*
X126641345Y-91699500D01*
X126641342Y-91699500D01*
X126483658Y-91699500D01*
X126483655Y-91699500D01*
X126329010Y-91730261D01*
X126328998Y-91730264D01*
X126183327Y-91790602D01*
X126183314Y-91790609D01*
X126052211Y-91878210D01*
X126052207Y-91878213D01*
X125940713Y-91989707D01*
X125940710Y-91989711D01*
X125853109Y-92120814D01*
X125853102Y-92120827D01*
X125792764Y-92266498D01*
X125792761Y-92266510D01*
X125762000Y-92421153D01*
X125762000Y-92578846D01*
X125792761Y-92733489D01*
X125792764Y-92733501D01*
X125853102Y-92879172D01*
X125853106Y-92879179D01*
X125891102Y-92936044D01*
X125911980Y-93002721D01*
X125912000Y-93004935D01*
X125912000Y-104067692D01*
X125892315Y-104134731D01*
X125839511Y-104180486D01*
X125770353Y-104190430D01*
X125706797Y-104161405D01*
X125700319Y-104155373D01*
X117124319Y-95579373D01*
X117090834Y-95518050D01*
X117088000Y-95491692D01*
X117088000Y-93004935D01*
X117107685Y-92937896D01*
X117108866Y-92936090D01*
X117146894Y-92879179D01*
X117207237Y-92733497D01*
X117238000Y-92578842D01*
X117238000Y-92421158D01*
X117238000Y-92421155D01*
X117237999Y-92421153D01*
X117207238Y-92266510D01*
X117207237Y-92266503D01*
X117207235Y-92266498D01*
X117146897Y-92120827D01*
X117146890Y-92120814D01*
X117059289Y-91989711D01*
X117059286Y-91989707D01*
X116947792Y-91878213D01*
X116947788Y-91878210D01*
X116816685Y-91790609D01*
X116816672Y-91790602D01*
X116671001Y-91730264D01*
X116670995Y-91730262D01*
X116654313Y-91726944D01*
X116592403Y-91694557D01*
X116557831Y-91633840D01*
X116561572Y-91564071D01*
X116590825Y-91517648D01*
X124576474Y-83531998D01*
X124637795Y-83498515D01*
X124680338Y-83496742D01*
X124708880Y-83500500D01*
X124708886Y-83500500D01*
X124971113Y-83500500D01*
X124971120Y-83500500D01*
X125231116Y-83466270D01*
X125484419Y-83398398D01*
X125726697Y-83298043D01*
X125953803Y-83166924D01*
X126161851Y-83007282D01*
X126161855Y-83007277D01*
X126161860Y-83007274D01*
X126347274Y-82821860D01*
X126347277Y-82821855D01*
X126347282Y-82821851D01*
X126506924Y-82613803D01*
X126638043Y-82386697D01*
X126738398Y-82144419D01*
X126806270Y-81891116D01*
X126840500Y-81631120D01*
X126840500Y-81368880D01*
X126840499Y-81368872D01*
X127919500Y-81368872D01*
X127919500Y-81631127D01*
X127923584Y-81662143D01*
X127953730Y-81891116D01*
X128021602Y-82144418D01*
X128021605Y-82144428D01*
X128121953Y-82386690D01*
X128121958Y-82386700D01*
X128253075Y-82613803D01*
X128412718Y-82821851D01*
X128412726Y-82821860D01*
X128598140Y-83007274D01*
X128598148Y-83007281D01*
X128806196Y-83166924D01*
X129033299Y-83298041D01*
X129033309Y-83298046D01*
X129182817Y-83359974D01*
X129275581Y-83398398D01*
X129528884Y-83466270D01*
X129760336Y-83496742D01*
X129788864Y-83500498D01*
X129788880Y-83500500D01*
X129788887Y-83500500D01*
X130051113Y-83500500D01*
X130051120Y-83500500D01*
X130311116Y-83466270D01*
X130564419Y-83398398D01*
X130806697Y-83298043D01*
X131033803Y-83166924D01*
X131241851Y-83007282D01*
X131241855Y-83007277D01*
X131241860Y-83007274D01*
X131427274Y-82821860D01*
X131427277Y-82821855D01*
X131427282Y-82821851D01*
X131586924Y-82613803D01*
X131718043Y-82386697D01*
X131818398Y-82144419D01*
X131886270Y-81891116D01*
X131920500Y-81631120D01*
X131920500Y-81368880D01*
X131886270Y-81108884D01*
X131818398Y-80855581D01*
X131752747Y-80697086D01*
X131718046Y-80613309D01*
X131718041Y-80613299D01*
X131586924Y-80386196D01*
X131427281Y-80178148D01*
X131427274Y-80178140D01*
X131241860Y-79992726D01*
X131241851Y-79992718D01*
X131188963Y-79952135D01*
X132999500Y-79952135D01*
X132999500Y-83047870D01*
X132999501Y-83047876D01*
X133005908Y-83107483D01*
X133056202Y-83242328D01*
X133056206Y-83242335D01*
X133142452Y-83357544D01*
X133142455Y-83357547D01*
X133257664Y-83443793D01*
X133257671Y-83443797D01*
X133392517Y-83494091D01*
X133392516Y-83494091D01*
X133399444Y-83494835D01*
X133452127Y-83500500D01*
X136547872Y-83500499D01*
X136607483Y-83494091D01*
X136742331Y-83443796D01*
X136857546Y-83357546D01*
X136943796Y-83242331D01*
X136994091Y-83107483D01*
X137000500Y-83047873D01*
X137000499Y-79952128D01*
X136994091Y-79892517D01*
X136960020Y-79801169D01*
X136943797Y-79757671D01*
X136943793Y-79757664D01*
X136857547Y-79642455D01*
X136857544Y-79642452D01*
X136742335Y-79556206D01*
X136742328Y-79556202D01*
X136607482Y-79505908D01*
X136607483Y-79505908D01*
X136547883Y-79499501D01*
X136547881Y-79499500D01*
X136547873Y-79499500D01*
X136547864Y-79499500D01*
X133452129Y-79499500D01*
X133452123Y-79499501D01*
X133392516Y-79505908D01*
X133257671Y-79556202D01*
X133257664Y-79556206D01*
X133142455Y-79642452D01*
X133142452Y-79642455D01*
X133056206Y-79757664D01*
X133056202Y-79757671D01*
X133005908Y-79892517D01*
X132999501Y-79952116D01*
X132999501Y-79952123D01*
X132999500Y-79952135D01*
X131188963Y-79952135D01*
X131033803Y-79833075D01*
X130806700Y-79701958D01*
X130806690Y-79701953D01*
X130564428Y-79601605D01*
X130564421Y-79601603D01*
X130564419Y-79601602D01*
X130311116Y-79533730D01*
X130253339Y-79526123D01*
X130051127Y-79499500D01*
X130051120Y-79499500D01*
X129788880Y-79499500D01*
X129788872Y-79499500D01*
X129557772Y-79529926D01*
X129528884Y-79533730D01*
X129275581Y-79601602D01*
X129275571Y-79601605D01*
X129033309Y-79701953D01*
X129033299Y-79701958D01*
X128806196Y-79833075D01*
X128598148Y-79992718D01*
X128412718Y-80178148D01*
X128253075Y-80386196D01*
X128121958Y-80613299D01*
X128121953Y-80613309D01*
X128021605Y-80855571D01*
X128021602Y-80855581D01*
X127953730Y-81108885D01*
X127919500Y-81368872D01*
X126840499Y-81368872D01*
X126806270Y-81108884D01*
X126738398Y-80855581D01*
X126672747Y-80697086D01*
X126638046Y-80613309D01*
X126638041Y-80613299D01*
X126506924Y-80386196D01*
X126347281Y-80178148D01*
X126347274Y-80178140D01*
X126161860Y-79992726D01*
X126161851Y-79992718D01*
X125953803Y-79833075D01*
X125726700Y-79701958D01*
X125726690Y-79701953D01*
X125484428Y-79601605D01*
X125484421Y-79601603D01*
X125484419Y-79601602D01*
X125231116Y-79533730D01*
X125173339Y-79526123D01*
X124971127Y-79499500D01*
X124971120Y-79499500D01*
X124708880Y-79499500D01*
X124708872Y-79499500D01*
X124477772Y-79529926D01*
X124448884Y-79533730D01*
X124195581Y-79601602D01*
X124195571Y-79601605D01*
X123953309Y-79701953D01*
X123953299Y-79701958D01*
X123726196Y-79833075D01*
X123518148Y-79992718D01*
X123332718Y-80178148D01*
X123173075Y-80386196D01*
X123041958Y-80613299D01*
X123041953Y-80613309D01*
X122941605Y-80855571D01*
X122941602Y-80855581D01*
X122873730Y-81108885D01*
X122839500Y-81368872D01*
X122839500Y-81631113D01*
X122839501Y-81631130D01*
X122843257Y-81659659D01*
X122832491Y-81728694D01*
X122807999Y-81763525D01*
X107462181Y-97109344D01*
X107400858Y-97142829D01*
X107331166Y-97137845D01*
X107275233Y-97095973D01*
X107250816Y-97030509D01*
X107250500Y-97021663D01*
X107250500Y-84409335D01*
X107270185Y-84342296D01*
X107286815Y-84321658D01*
X108076474Y-83531998D01*
X108137795Y-83498515D01*
X108180338Y-83496742D01*
X108208880Y-83500500D01*
X108208886Y-83500500D01*
X108471113Y-83500500D01*
X108471120Y-83500500D01*
X108731116Y-83466270D01*
X108984419Y-83398398D01*
X109226697Y-83298043D01*
X109453803Y-83166924D01*
X109661851Y-83007282D01*
X109661855Y-83007277D01*
X109661860Y-83007274D01*
X109847274Y-82821860D01*
X109847277Y-82821855D01*
X109847282Y-82821851D01*
X110006924Y-82613803D01*
X110138043Y-82386697D01*
X110238398Y-82144419D01*
X110306270Y-81891116D01*
X110340500Y-81631120D01*
X110340500Y-81368880D01*
X110340499Y-81368872D01*
X111419500Y-81368872D01*
X111419500Y-81631127D01*
X111423584Y-81662143D01*
X111453730Y-81891116D01*
X111521602Y-82144418D01*
X111521605Y-82144428D01*
X111621953Y-82386690D01*
X111621958Y-82386700D01*
X111753075Y-82613803D01*
X111912718Y-82821851D01*
X111912726Y-82821860D01*
X112098140Y-83007274D01*
X112098148Y-83007281D01*
X112306196Y-83166924D01*
X112533299Y-83298041D01*
X112533309Y-83298046D01*
X112682817Y-83359974D01*
X112775581Y-83398398D01*
X113028884Y-83466270D01*
X113260336Y-83496742D01*
X113288864Y-83500498D01*
X113288880Y-83500500D01*
X113288887Y-83500500D01*
X113551113Y-83500500D01*
X113551120Y-83500500D01*
X113811116Y-83466270D01*
X114064419Y-83398398D01*
X114306697Y-83298043D01*
X114533803Y-83166924D01*
X114741851Y-83007282D01*
X114741855Y-83007277D01*
X114741860Y-83007274D01*
X114927274Y-82821860D01*
X114927277Y-82821855D01*
X114927282Y-82821851D01*
X115086924Y-82613803D01*
X115218043Y-82386697D01*
X115318398Y-82144419D01*
X115386270Y-81891116D01*
X115420500Y-81631120D01*
X115420500Y-81368880D01*
X115386270Y-81108884D01*
X115318398Y-80855581D01*
X115252747Y-80697086D01*
X115218046Y-80613309D01*
X115218041Y-80613299D01*
X115086924Y-80386196D01*
X114927281Y-80178148D01*
X114927274Y-80178140D01*
X114741860Y-79992726D01*
X114741851Y-79992718D01*
X114688963Y-79952135D01*
X116499500Y-79952135D01*
X116499500Y-83047870D01*
X116499501Y-83047876D01*
X116505908Y-83107483D01*
X116556202Y-83242328D01*
X116556206Y-83242335D01*
X116642452Y-83357544D01*
X116642455Y-83357547D01*
X116757664Y-83443793D01*
X116757671Y-83443797D01*
X116892517Y-83494091D01*
X116892516Y-83494091D01*
X116899444Y-83494835D01*
X116952127Y-83500500D01*
X120047872Y-83500499D01*
X120107483Y-83494091D01*
X120242331Y-83443796D01*
X120357546Y-83357546D01*
X120443796Y-83242331D01*
X120494091Y-83107483D01*
X120500500Y-83047873D01*
X120500499Y-79952128D01*
X120494091Y-79892517D01*
X120460020Y-79801169D01*
X120443797Y-79757671D01*
X120443793Y-79757664D01*
X120357547Y-79642455D01*
X120357544Y-79642452D01*
X120242335Y-79556206D01*
X120242328Y-79556202D01*
X120107482Y-79505908D01*
X120107483Y-79505908D01*
X120047883Y-79499501D01*
X120047881Y-79499500D01*
X120047873Y-79499500D01*
X120047864Y-79499500D01*
X116952129Y-79499500D01*
X116952123Y-79499501D01*
X116892516Y-79505908D01*
X116757671Y-79556202D01*
X116757664Y-79556206D01*
X116642455Y-79642452D01*
X116642452Y-79642455D01*
X116556206Y-79757664D01*
X116556202Y-79757671D01*
X116505908Y-79892517D01*
X116499501Y-79952116D01*
X116499501Y-79952123D01*
X116499500Y-79952135D01*
X114688963Y-79952135D01*
X114533803Y-79833075D01*
X114306700Y-79701958D01*
X114306690Y-79701953D01*
X114064428Y-79601605D01*
X114064421Y-79601603D01*
X114064419Y-79601602D01*
X113811116Y-79533730D01*
X113753339Y-79526123D01*
X113551127Y-79499500D01*
X113551120Y-79499500D01*
X113288880Y-79499500D01*
X113288872Y-79499500D01*
X113057772Y-79529926D01*
X113028884Y-79533730D01*
X112775581Y-79601602D01*
X112775571Y-79601605D01*
X112533309Y-79701953D01*
X112533299Y-79701958D01*
X112306196Y-79833075D01*
X112098148Y-79992718D01*
X111912718Y-80178148D01*
X111753075Y-80386196D01*
X111621958Y-80613299D01*
X111621953Y-80613309D01*
X111521605Y-80855571D01*
X111521602Y-80855581D01*
X111453730Y-81108885D01*
X111419500Y-81368872D01*
X110340499Y-81368872D01*
X110306270Y-81108884D01*
X110238398Y-80855581D01*
X110172747Y-80697086D01*
X110138046Y-80613309D01*
X110138041Y-80613299D01*
X110006924Y-80386196D01*
X109847281Y-80178148D01*
X109847274Y-80178140D01*
X109661860Y-79992726D01*
X109661851Y-79992718D01*
X109453803Y-79833075D01*
X109226700Y-79701958D01*
X109226690Y-79701953D01*
X108984428Y-79601605D01*
X108984421Y-79601603D01*
X108984419Y-79601602D01*
X108731116Y-79533730D01*
X108673339Y-79526123D01*
X108471127Y-79499500D01*
X108471120Y-79499500D01*
X108208880Y-79499500D01*
X108208872Y-79499500D01*
X107977772Y-79529926D01*
X107948884Y-79533730D01*
X107695581Y-79601602D01*
X107695571Y-79601605D01*
X107453309Y-79701953D01*
X107453299Y-79701958D01*
X107226196Y-79833075D01*
X107018148Y-79992718D01*
X106832718Y-80178148D01*
X106673075Y-80386196D01*
X106541958Y-80613299D01*
X106541953Y-80613309D01*
X106441605Y-80855571D01*
X106441602Y-80855581D01*
X106373730Y-81108885D01*
X106339500Y-81368872D01*
X106339500Y-81631113D01*
X106339501Y-81631130D01*
X106343257Y-81659659D01*
X106332491Y-81728694D01*
X106307999Y-81763525D01*
X105046174Y-83025351D01*
X105046172Y-83025354D01*
X105029813Y-83047870D01*
X104930476Y-83184594D01*
X104841115Y-83359973D01*
X104841113Y-83359979D01*
X104822620Y-83416899D01*
X104822620Y-83416900D01*
X104780290Y-83547177D01*
X104749500Y-83741577D01*
X104749500Y-99110664D01*
X104729815Y-99177703D01*
X104713181Y-99198345D01*
X104311681Y-99599845D01*
X104250358Y-99633330D01*
X104180666Y-99628346D01*
X104124733Y-99586474D01*
X104100316Y-99521010D01*
X104100000Y-99512164D01*
X104100000Y-98750000D01*
X102819064Y-98750000D01*
X102830793Y-98721684D01*
X102860000Y-98574853D01*
X102860000Y-98425147D01*
X102830793Y-98278316D01*
X102819064Y-98250000D01*
X104100000Y-98250000D01*
X104100000Y-96952172D01*
X104099999Y-96952155D01*
X104093598Y-96892627D01*
X104093596Y-96892620D01*
X104043354Y-96757913D01*
X104043350Y-96757906D01*
X103957190Y-96642812D01*
X103957187Y-96642809D01*
X103842093Y-96556649D01*
X103842086Y-96556645D01*
X103707379Y-96506403D01*
X103707372Y-96506401D01*
X103647844Y-96500000D01*
X102350000Y-96500000D01*
X102350000Y-97780935D01*
X102321684Y-97769207D01*
X102174853Y-97740000D01*
X102025147Y-97740000D01*
X101878316Y-97769207D01*
X101850000Y-97780935D01*
X101850000Y-96500000D01*
X100552155Y-96500000D01*
X100492627Y-96506401D01*
X100492620Y-96506403D01*
X100357913Y-96556645D01*
X100357906Y-96556649D01*
X100242812Y-96642809D01*
X100242809Y-96642812D01*
X100156649Y-96757906D01*
X100156645Y-96757913D01*
X100106403Y-96892620D01*
X100106401Y-96892627D01*
X100100000Y-96952155D01*
X100100000Y-98250000D01*
X101380936Y-98250000D01*
X101369207Y-98278316D01*
X101340000Y-98425147D01*
X101340000Y-98574853D01*
X101369207Y-98721684D01*
X101380936Y-98750000D01*
X100100000Y-98750000D01*
X100100000Y-100047844D01*
X100106401Y-100107372D01*
X100106403Y-100107379D01*
X100156645Y-100242086D01*
X100156649Y-100242093D01*
X100242809Y-100357187D01*
X100242812Y-100357190D01*
X100357906Y-100443350D01*
X100357913Y-100443354D01*
X100492620Y-100493596D01*
X100492627Y-100493598D01*
X100552155Y-100499999D01*
X100552172Y-100500000D01*
X101850000Y-100500000D01*
X101850000Y-99219064D01*
X101878316Y-99230793D01*
X102025147Y-99260000D01*
X102174853Y-99260000D01*
X102321684Y-99230793D01*
X102350000Y-99219064D01*
X102350000Y-100500000D01*
X103112164Y-100500000D01*
X103179203Y-100519685D01*
X103224958Y-100572489D01*
X103234902Y-100641647D01*
X103205877Y-100705203D01*
X103199845Y-100711681D01*
X102368345Y-101543181D01*
X102307022Y-101576666D01*
X102280664Y-101579500D01*
X101968872Y-101579500D01*
X101737772Y-101609926D01*
X101708884Y-101613730D01*
X101455581Y-101681602D01*
X101455571Y-101681605D01*
X101213309Y-101781953D01*
X101213299Y-101781958D01*
X100986196Y-101913075D01*
X100778148Y-102072718D01*
X100592718Y-102258148D01*
X100433075Y-102466196D01*
X100301958Y-102693299D01*
X100301953Y-102693309D01*
X100201605Y-102935571D01*
X100201602Y-102935581D01*
X100143030Y-103154178D01*
X100133730Y-103188885D01*
X100099500Y-103448872D01*
X98000500Y-103448872D01*
X98000500Y-91893713D01*
X100499500Y-91893713D01*
X100499500Y-92106287D01*
X100532754Y-92316243D01*
X100566841Y-92421153D01*
X100598444Y-92518414D01*
X100694951Y-92707820D01*
X100819890Y-92879786D01*
X100970213Y-93030109D01*
X101142179Y-93155048D01*
X101142181Y-93155049D01*
X101142184Y-93155051D01*
X101331588Y-93251557D01*
X101533757Y-93317246D01*
X101743713Y-93350500D01*
X101743714Y-93350500D01*
X102256286Y-93350500D01*
X102256287Y-93350500D01*
X102466243Y-93317246D01*
X102668412Y-93251557D01*
X102857816Y-93155051D01*
X102879789Y-93139086D01*
X103029786Y-93030109D01*
X103029788Y-93030106D01*
X103029792Y-93030104D01*
X103180104Y-92879792D01*
X103180106Y-92879788D01*
X103180109Y-92879786D01*
X103305048Y-92707820D01*
X103305047Y-92707820D01*
X103305051Y-92707816D01*
X103401557Y-92518412D01*
X103467246Y-92316243D01*
X103500500Y-92106287D01*
X103500500Y-91893713D01*
X103467246Y-91683757D01*
X103401557Y-91481588D01*
X103305051Y-91292184D01*
X103305049Y-91292181D01*
X103305048Y-91292179D01*
X103180109Y-91120213D01*
X103040931Y-90981035D01*
X103007446Y-90919712D01*
X103012430Y-90850020D01*
X103054302Y-90794087D01*
X103063516Y-90787815D01*
X103218343Y-90692317D01*
X103342315Y-90568345D01*
X103434356Y-90419124D01*
X103434358Y-90419119D01*
X103489505Y-90252697D01*
X103489506Y-90252690D01*
X103499999Y-90149986D01*
X103500000Y-90149973D01*
X103500000Y-89750000D01*
X102433012Y-89750000D01*
X102465925Y-89692993D01*
X102500000Y-89565826D01*
X102500000Y-89434174D01*
X102465925Y-89307007D01*
X102433012Y-89250000D01*
X103499999Y-89250000D01*
X103499999Y-88850028D01*
X103499998Y-88850013D01*
X103489505Y-88747302D01*
X103434358Y-88580880D01*
X103434356Y-88580875D01*
X103342315Y-88431654D01*
X103218345Y-88307684D01*
X103069124Y-88215643D01*
X103069119Y-88215641D01*
X102902697Y-88160494D01*
X102902690Y-88160493D01*
X102799986Y-88150000D01*
X102250000Y-88150000D01*
X102250000Y-89066988D01*
X102192993Y-89034075D01*
X102065826Y-89000000D01*
X101934174Y-89000000D01*
X101807007Y-89034075D01*
X101750000Y-89066988D01*
X101750000Y-88150000D01*
X101200028Y-88150000D01*
X101200012Y-88150001D01*
X101097302Y-88160494D01*
X100930880Y-88215641D01*
X100930875Y-88215643D01*
X100781654Y-88307684D01*
X100657684Y-88431654D01*
X100565643Y-88580875D01*
X100565641Y-88580880D01*
X100510494Y-88747302D01*
X100510493Y-88747309D01*
X100500000Y-88850013D01*
X100500000Y-89250000D01*
X101566988Y-89250000D01*
X101534075Y-89307007D01*
X101500000Y-89434174D01*
X101500000Y-89565826D01*
X101534075Y-89692993D01*
X101566988Y-89750000D01*
X100500001Y-89750000D01*
X100500001Y-90149986D01*
X100510494Y-90252697D01*
X100565641Y-90419119D01*
X100565643Y-90419124D01*
X100657684Y-90568345D01*
X100781654Y-90692315D01*
X100936484Y-90787815D01*
X100983208Y-90839763D01*
X100994431Y-90908726D01*
X100966587Y-90972808D01*
X100959069Y-90981035D01*
X100819889Y-91120215D01*
X100694951Y-91292179D01*
X100598444Y-91481585D01*
X100532753Y-91683760D01*
X100515830Y-91790609D01*
X100499500Y-91893713D01*
X98000500Y-91893713D01*
X98000500Y-82083621D01*
X98020185Y-82016582D01*
X98072989Y-81970827D01*
X98142147Y-81960883D01*
X98205703Y-81989908D01*
X98243477Y-82048686D01*
X98246117Y-82059430D01*
X98294545Y-82302902D01*
X98294548Y-82302913D01*
X98388686Y-82613247D01*
X98512786Y-82912849D01*
X98512788Y-82912854D01*
X98665646Y-83198830D01*
X98665657Y-83198848D01*
X98845811Y-83468467D01*
X98845821Y-83468481D01*
X99051546Y-83719158D01*
X99280841Y-83948453D01*
X99280846Y-83948457D01*
X99280847Y-83948458D01*
X99531524Y-84154183D01*
X99801158Y-84334347D01*
X99801167Y-84334352D01*
X99801169Y-84334353D01*
X100087145Y-84487211D01*
X100087147Y-84487211D01*
X100087153Y-84487215D01*
X100386754Y-84611314D01*
X100697077Y-84705449D01*
X100697083Y-84705450D01*
X100697086Y-84705451D01*
X100697097Y-84705454D01*
X100896528Y-84745122D01*
X101015132Y-84768714D01*
X101337857Y-84800500D01*
X101337860Y-84800500D01*
X101662140Y-84800500D01*
X101662143Y-84800500D01*
X101984868Y-84768714D01*
X102142295Y-84737399D01*
X102302902Y-84705454D01*
X102302913Y-84705451D01*
X102302913Y-84705450D01*
X102302923Y-84705449D01*
X102613246Y-84611314D01*
X102912847Y-84487215D01*
X103198842Y-84334347D01*
X103468476Y-84154183D01*
X103719153Y-83948458D01*
X103948458Y-83719153D01*
X104154183Y-83468476D01*
X104334347Y-83198842D01*
X104487215Y-82912847D01*
X104611314Y-82613246D01*
X104705449Y-82302923D01*
X104705451Y-82302913D01*
X104705454Y-82302902D01*
X104749071Y-82083621D01*
X104768714Y-81984868D01*
X104800500Y-81662143D01*
X104800500Y-81337857D01*
X104768714Y-81015132D01*
X104745122Y-80896528D01*
X104705454Y-80697097D01*
X104705451Y-80697086D01*
X104705450Y-80697083D01*
X104705449Y-80697077D01*
X104611314Y-80386754D01*
X104487215Y-80087153D01*
X104436738Y-79992718D01*
X104334353Y-79801169D01*
X104334352Y-79801167D01*
X104334347Y-79801158D01*
X104154183Y-79531524D01*
X103948458Y-79280847D01*
X103948457Y-79280846D01*
X103948453Y-79280841D01*
X103719158Y-79051546D01*
X103468481Y-78845821D01*
X103468480Y-78845820D01*
X103468476Y-78845817D01*
X103198842Y-78665653D01*
X103198837Y-78665650D01*
X103198830Y-78665646D01*
X102912854Y-78512788D01*
X102912849Y-78512786D01*
X102613247Y-78388686D01*
X102302913Y-78294548D01*
X102302902Y-78294545D01*
X101984874Y-78231287D01*
X101984857Y-78231284D01*
X101740812Y-78207248D01*
X101662143Y-78199500D01*
X101337857Y-78199500D01*
X101265099Y-78206666D01*
X101015142Y-78231284D01*
X101015125Y-78231287D01*
X100697097Y-78294545D01*
X100697086Y-78294548D01*
X100386752Y-78388686D01*
X100087150Y-78512786D01*
X100087145Y-78512788D01*
X99801169Y-78665646D01*
X99801151Y-78665657D01*
X99531532Y-78845811D01*
X99531518Y-78845821D01*
X99280841Y-79051546D01*
X99051546Y-79280841D01*
X98845821Y-79531518D01*
X98845811Y-79531532D01*
X98665657Y-79801151D01*
X98665646Y-79801169D01*
X98512788Y-80087145D01*
X98512786Y-80087150D01*
X98388686Y-80386752D01*
X98294548Y-80697086D01*
X98294545Y-80697097D01*
X98246117Y-80940569D01*
X98213732Y-81002480D01*
X98153017Y-81037054D01*
X98083247Y-81033315D01*
X98026575Y-80992449D01*
X98000994Y-80927431D01*
X98000500Y-80916378D01*
X98000500Y-79004427D01*
X98000816Y-78995581D01*
X98011527Y-78845821D01*
X98015130Y-78795436D01*
X98017646Y-78777938D01*
X98059356Y-78586200D01*
X98064335Y-78569242D01*
X98132911Y-78385382D01*
X98140251Y-78369310D01*
X98234294Y-78197083D01*
X98243850Y-78182214D01*
X98361443Y-78025128D01*
X98373017Y-78011771D01*
X98511771Y-77873017D01*
X98525128Y-77861443D01*
X98682214Y-77743850D01*
X98697083Y-77734294D01*
X98869310Y-77640251D01*
X98885382Y-77632911D01*
X99069242Y-77564335D01*
X99086200Y-77559356D01*
X99277938Y-77517646D01*
X99295436Y-77515130D01*
X99495582Y-77500816D01*
X99504428Y-77500500D01*
X99565892Y-77500500D01*
X136934108Y-77500500D01*
X136995572Y-77500500D01*
X137004418Y-77500816D01*
G37*
%TD.AperFunction*%
%TD*%
M02*
