M48
; DRILL file KiCad 10.0.6 date 2026-10-08T09:42:14
; FORMAT={-:-/ absolute / metric / decimal}
; #@! TF.CreationDate,2026-10-08T09:42:14-07:00
; #@! TF.GenerationSoftware,Kicad,Pcbnew,10.0.6
; #@! TF.FileFunction,Plated,1,2,PTH
FMAT,2
METRIC
; #@! TA.AperFunction,Plated,PTH,ViaDrill
T1C0.300
; #@! TA.AperFunction,Plated,PTH,ComponentDrill
T2C1.000
; #@! TA.AperFunction,Plated,PTH,ComponentDrill
T3C1.520
; #@! TA.AperFunction,Plated,PTH,ComponentDrill
T4C3.200
%
G90
G05
T1
X116.438Y-92.5
X119.625Y-109.0
X126.562Y-92.5
X129.625Y-109.0
T2
X102.0Y-89.5
X102.0Y-92.0
X102.0Y-110.0
X102.0Y-112.5
T3
X102.1Y-98.5
X102.1Y-103.58
X108.34Y-81.5
X108.34Y-119.5
X113.42Y-81.5
X113.42Y-119.5
X118.5Y-81.5
X118.5Y-119.5
X124.84Y-81.5
X124.84Y-119.5
X129.92Y-81.5
X129.92Y-119.5
X135.0Y-81.5
X135.0Y-119.5
T4
X101.5Y-81.5
X101.5Y-120.5
X135.0Y-100.5
M30
