%TF.GenerationSoftware,KiCad,Pcbnew,10.0.6*%
%TF.CreationDate,2026-10-08T09:42:07-07:00*%
%TF.ProjectId,mainLightPCB_rev3,6d61696e-4c69-4676-9874-5043425f7265,rev?*%
%TF.SameCoordinates,Original*%
%TF.FileFunction,Legend,Bot*%
%TF.FilePolarity,Positive*%
%FSLAX46Y46*%
G04 Gerber Fmt 4.6, Leading zero omitted, Abs format (unit mm)*
G04 Created by KiCad (PCBNEW 10.0.6) date 2026-10-08 09:42:07*
%MOMM*%
%LPD*%
G01*
G04 APERTURE LIST*
G04 Aperture macros list*
%AMRoundRect*
0 Rectangle with rounded corners*
0 $1 Rounding radius*
0 $2 $3 $4 $5 $6 $7 $8 $9 X,Y pos of 4 corners*
0 Add a 4 corners polygon primitive as box body*
4,1,4,$2,$3,$4,$5,$6,$7,$8,$9,$2,$3,0*
0 Add four circle primitives for the rounded corners*
1,1,$1+$1,$2,$3*
1,1,$1+$1,$4,$5*
1,1,$1+$1,$6,$7*
1,1,$1+$1,$8,$9*
0 Add four rect primitives between the rounded corners*
20,1,$1+$1,$2,$3,$4,$5,0*
20,1,$1+$1,$4,$5,$6,$7,0*
20,1,$1+$1,$6,$7,$8,$9,0*
20,1,$1+$1,$8,$9,$2,$3,0*%
G04 Aperture macros list end*
%ADD10C,0.100000*%
%ADD11C,0.325000*%
%ADD12RoundRect,0.250000X-0.750000X0.600000X-0.750000X-0.600000X0.750000X-0.600000X0.750000X0.600000X0*%
%ADD13O,2.000000X1.700000*%
%ADD14C,3.600000*%
%ADD15C,5.600000*%
%ADD16R,3.000000X3.000000*%
%ADD17C,3.000000*%
G04 APERTURE END LIST*
D10*
X136029449Y-91467657D02*
X136124687Y-91420038D01*
X136124687Y-91420038D02*
X136219925Y-91324800D01*
X136219925Y-91324800D02*
X136362782Y-91181942D01*
X136362782Y-91181942D02*
X136458020Y-91134323D01*
X136458020Y-91134323D02*
X136553258Y-91134323D01*
X136505639Y-91372419D02*
X136600877Y-91324800D01*
X136600877Y-91324800D02*
X136696115Y-91229561D01*
X136696115Y-91229561D02*
X136743734Y-91039085D01*
X136743734Y-91039085D02*
X136743734Y-90705752D01*
X136743734Y-90705752D02*
X136696115Y-90515276D01*
X136696115Y-90515276D02*
X136600877Y-90420038D01*
X136600877Y-90420038D02*
X136505639Y-90372419D01*
X136505639Y-90372419D02*
X136315163Y-90372419D01*
X136315163Y-90372419D02*
X136219925Y-90420038D01*
X136219925Y-90420038D02*
X136124687Y-90515276D01*
X136124687Y-90515276D02*
X136077068Y-90705752D01*
X136077068Y-90705752D02*
X136077068Y-91039085D01*
X136077068Y-91039085D02*
X136124687Y-91229561D01*
X136124687Y-91229561D02*
X136219925Y-91324800D01*
X136219925Y-91324800D02*
X136315163Y-91372419D01*
X136315163Y-91372419D02*
X136505639Y-91372419D01*
X135124687Y-91372419D02*
X135696115Y-91372419D01*
X135410401Y-91372419D02*
X135410401Y-90372419D01*
X135410401Y-90372419D02*
X135505639Y-90515276D01*
X135505639Y-90515276D02*
X135600877Y-90610514D01*
X135600877Y-90610514D02*
X135696115Y-90658133D01*
X134696115Y-90991466D02*
X133934211Y-90991466D01*
X133315163Y-90800990D02*
X133410401Y-90753371D01*
X133410401Y-90753371D02*
X133458020Y-90705752D01*
X133458020Y-90705752D02*
X133505639Y-90610514D01*
X133505639Y-90610514D02*
X133505639Y-90562895D01*
X133505639Y-90562895D02*
X133458020Y-90467657D01*
X133458020Y-90467657D02*
X133410401Y-90420038D01*
X133410401Y-90420038D02*
X133315163Y-90372419D01*
X133315163Y-90372419D02*
X133124687Y-90372419D01*
X133124687Y-90372419D02*
X133029449Y-90420038D01*
X133029449Y-90420038D02*
X132981830Y-90467657D01*
X132981830Y-90467657D02*
X132934211Y-90562895D01*
X132934211Y-90562895D02*
X132934211Y-90610514D01*
X132934211Y-90610514D02*
X132981830Y-90705752D01*
X132981830Y-90705752D02*
X133029449Y-90753371D01*
X133029449Y-90753371D02*
X133124687Y-90800990D01*
X133124687Y-90800990D02*
X133315163Y-90800990D01*
X133315163Y-90800990D02*
X133410401Y-90848609D01*
X133410401Y-90848609D02*
X133458020Y-90896228D01*
X133458020Y-90896228D02*
X133505639Y-90991466D01*
X133505639Y-90991466D02*
X133505639Y-91181942D01*
X133505639Y-91181942D02*
X133458020Y-91277180D01*
X133458020Y-91277180D02*
X133410401Y-91324800D01*
X133410401Y-91324800D02*
X133315163Y-91372419D01*
X133315163Y-91372419D02*
X133124687Y-91372419D01*
X133124687Y-91372419D02*
X133029449Y-91324800D01*
X133029449Y-91324800D02*
X132981830Y-91277180D01*
X132981830Y-91277180D02*
X132934211Y-91181942D01*
X132934211Y-91181942D02*
X132934211Y-90991466D01*
X132934211Y-90991466D02*
X132981830Y-90896228D01*
X132981830Y-90896228D02*
X133029449Y-90848609D01*
X133029449Y-90848609D02*
X133124687Y-90800990D01*
X132505639Y-91277180D02*
X132458020Y-91324800D01*
X132458020Y-91324800D02*
X132505639Y-91372419D01*
X132505639Y-91372419D02*
X132553258Y-91324800D01*
X132553258Y-91324800D02*
X132505639Y-91277180D01*
X132505639Y-91277180D02*
X132505639Y-91372419D01*
X132505639Y-90753371D02*
X132458020Y-90800990D01*
X132458020Y-90800990D02*
X132505639Y-90848609D01*
X132505639Y-90848609D02*
X132553258Y-90800990D01*
X132553258Y-90800990D02*
X132505639Y-90753371D01*
X132505639Y-90753371D02*
X132505639Y-90848609D01*
X131315163Y-91086704D02*
X130838973Y-91086704D01*
X131410401Y-91372419D02*
X131077068Y-90372419D01*
X131077068Y-90372419D02*
X130743735Y-91372419D01*
X130219925Y-90372419D02*
X130029449Y-90372419D01*
X130029449Y-90372419D02*
X129934211Y-90420038D01*
X129934211Y-90420038D02*
X129838973Y-90515276D01*
X129838973Y-90515276D02*
X129791354Y-90705752D01*
X129791354Y-90705752D02*
X129791354Y-91039085D01*
X129791354Y-91039085D02*
X129838973Y-91229561D01*
X129838973Y-91229561D02*
X129934211Y-91324800D01*
X129934211Y-91324800D02*
X130029449Y-91372419D01*
X130029449Y-91372419D02*
X130219925Y-91372419D01*
X130219925Y-91372419D02*
X130315163Y-91324800D01*
X130315163Y-91324800D02*
X130410401Y-91229561D01*
X130410401Y-91229561D02*
X130458020Y-91039085D01*
X130458020Y-91039085D02*
X130458020Y-90705752D01*
X130458020Y-90705752D02*
X130410401Y-90515276D01*
X130410401Y-90515276D02*
X130315163Y-90420038D01*
X130315163Y-90420038D02*
X130219925Y-90372419D01*
X129458020Y-90372419D02*
X128838973Y-90372419D01*
X128838973Y-90372419D02*
X129172306Y-90753371D01*
X129172306Y-90753371D02*
X129029449Y-90753371D01*
X129029449Y-90753371D02*
X128934211Y-90800990D01*
X128934211Y-90800990D02*
X128886592Y-90848609D01*
X128886592Y-90848609D02*
X128838973Y-90943847D01*
X128838973Y-90943847D02*
X128838973Y-91181942D01*
X128838973Y-91181942D02*
X128886592Y-91277180D01*
X128886592Y-91277180D02*
X128934211Y-91324800D01*
X128934211Y-91324800D02*
X129029449Y-91372419D01*
X129029449Y-91372419D02*
X129315163Y-91372419D01*
X129315163Y-91372419D02*
X129410401Y-91324800D01*
X129410401Y-91324800D02*
X129458020Y-91277180D01*
X127981830Y-90705752D02*
X127981830Y-91372419D01*
X128219925Y-90324800D02*
X128458020Y-91039085D01*
X128458020Y-91039085D02*
X127838973Y-91039085D01*
X127267544Y-90372419D02*
X127172306Y-90372419D01*
X127172306Y-90372419D02*
X127077068Y-90420038D01*
X127077068Y-90420038D02*
X127029449Y-90467657D01*
X127029449Y-90467657D02*
X126981830Y-90562895D01*
X126981830Y-90562895D02*
X126934211Y-90753371D01*
X126934211Y-90753371D02*
X126934211Y-90991466D01*
X126934211Y-90991466D02*
X126981830Y-91181942D01*
X126981830Y-91181942D02*
X127029449Y-91277180D01*
X127029449Y-91277180D02*
X127077068Y-91324800D01*
X127077068Y-91324800D02*
X127172306Y-91372419D01*
X127172306Y-91372419D02*
X127267544Y-91372419D01*
X127267544Y-91372419D02*
X127362782Y-91324800D01*
X127362782Y-91324800D02*
X127410401Y-91277180D01*
X127410401Y-91277180D02*
X127458020Y-91181942D01*
X127458020Y-91181942D02*
X127505639Y-90991466D01*
X127505639Y-90991466D02*
X127505639Y-90753371D01*
X127505639Y-90753371D02*
X127458020Y-90562895D01*
X127458020Y-90562895D02*
X127410401Y-90467657D01*
X127410401Y-90467657D02*
X127362782Y-90420038D01*
X127362782Y-90420038D02*
X127267544Y-90372419D01*
X126315163Y-90372419D02*
X126219925Y-90372419D01*
X126219925Y-90372419D02*
X126124687Y-90420038D01*
X126124687Y-90420038D02*
X126077068Y-90467657D01*
X126077068Y-90467657D02*
X126029449Y-90562895D01*
X126029449Y-90562895D02*
X125981830Y-90753371D01*
X125981830Y-90753371D02*
X125981830Y-90991466D01*
X125981830Y-90991466D02*
X126029449Y-91181942D01*
X126029449Y-91181942D02*
X126077068Y-91277180D01*
X126077068Y-91277180D02*
X126124687Y-91324800D01*
X126124687Y-91324800D02*
X126219925Y-91372419D01*
X126219925Y-91372419D02*
X126315163Y-91372419D01*
X126315163Y-91372419D02*
X126410401Y-91324800D01*
X126410401Y-91324800D02*
X126458020Y-91277180D01*
X126458020Y-91277180D02*
X126505639Y-91181942D01*
X126505639Y-91181942D02*
X126553258Y-90991466D01*
X126553258Y-90991466D02*
X126553258Y-90753371D01*
X126553258Y-90753371D02*
X126505639Y-90562895D01*
X126505639Y-90562895D02*
X126458020Y-90467657D01*
X126458020Y-90467657D02*
X126410401Y-90420038D01*
X126410401Y-90420038D02*
X126315163Y-90372419D01*
X125600877Y-91086704D02*
X125124687Y-91086704D01*
X125696115Y-91372419D02*
X125362782Y-90372419D01*
X125362782Y-90372419D02*
X125029449Y-91372419D01*
X136392544Y-115205752D02*
X136392544Y-116015276D01*
X136392544Y-116015276D02*
X136440163Y-116110514D01*
X136440163Y-116110514D02*
X136487782Y-116158133D01*
X136487782Y-116158133D02*
X136583020Y-116205752D01*
X136583020Y-116205752D02*
X136725877Y-116205752D01*
X136725877Y-116205752D02*
X136821115Y-116158133D01*
X136392544Y-115824800D02*
X136487782Y-115872419D01*
X136487782Y-115872419D02*
X136678258Y-115872419D01*
X136678258Y-115872419D02*
X136773496Y-115824800D01*
X136773496Y-115824800D02*
X136821115Y-115777180D01*
X136821115Y-115777180D02*
X136868734Y-115681942D01*
X136868734Y-115681942D02*
X136868734Y-115396228D01*
X136868734Y-115396228D02*
X136821115Y-115300990D01*
X136821115Y-115300990D02*
X136773496Y-115253371D01*
X136773496Y-115253371D02*
X136678258Y-115205752D01*
X136678258Y-115205752D02*
X136487782Y-115205752D01*
X136487782Y-115205752D02*
X136392544Y-115253371D01*
X135916353Y-115872419D02*
X135916353Y-115205752D01*
X135916353Y-114872419D02*
X135963972Y-114920038D01*
X135963972Y-114920038D02*
X135916353Y-114967657D01*
X135916353Y-114967657D02*
X135868734Y-114920038D01*
X135868734Y-114920038D02*
X135916353Y-114872419D01*
X135916353Y-114872419D02*
X135916353Y-114967657D01*
X135583020Y-115205752D02*
X135202068Y-115205752D01*
X135440163Y-114872419D02*
X135440163Y-115729561D01*
X135440163Y-115729561D02*
X135392544Y-115824800D01*
X135392544Y-115824800D02*
X135297306Y-115872419D01*
X135297306Y-115872419D02*
X135202068Y-115872419D01*
X134868734Y-115872419D02*
X134868734Y-114872419D01*
X134440163Y-115872419D02*
X134440163Y-115348609D01*
X134440163Y-115348609D02*
X134487782Y-115253371D01*
X134487782Y-115253371D02*
X134583020Y-115205752D01*
X134583020Y-115205752D02*
X134725877Y-115205752D01*
X134725877Y-115205752D02*
X134821115Y-115253371D01*
X134821115Y-115253371D02*
X134868734Y-115300990D01*
X133535401Y-115205752D02*
X133535401Y-115872419D01*
X133963972Y-115205752D02*
X133963972Y-115729561D01*
X133963972Y-115729561D02*
X133916353Y-115824800D01*
X133916353Y-115824800D02*
X133821115Y-115872419D01*
X133821115Y-115872419D02*
X133678258Y-115872419D01*
X133678258Y-115872419D02*
X133583020Y-115824800D01*
X133583020Y-115824800D02*
X133535401Y-115777180D01*
X133059210Y-115872419D02*
X133059210Y-114872419D01*
X133059210Y-115253371D02*
X132963972Y-115205752D01*
X132963972Y-115205752D02*
X132773496Y-115205752D01*
X132773496Y-115205752D02*
X132678258Y-115253371D01*
X132678258Y-115253371D02*
X132630639Y-115300990D01*
X132630639Y-115300990D02*
X132583020Y-115396228D01*
X132583020Y-115396228D02*
X132583020Y-115681942D01*
X132583020Y-115681942D02*
X132630639Y-115777180D01*
X132630639Y-115777180D02*
X132678258Y-115824800D01*
X132678258Y-115824800D02*
X132773496Y-115872419D01*
X132773496Y-115872419D02*
X132963972Y-115872419D01*
X132963972Y-115872419D02*
X133059210Y-115824800D01*
X132154448Y-115777180D02*
X132106829Y-115824800D01*
X132106829Y-115824800D02*
X132154448Y-115872419D01*
X132154448Y-115872419D02*
X132202067Y-115824800D01*
X132202067Y-115824800D02*
X132154448Y-115777180D01*
X132154448Y-115777180D02*
X132154448Y-115872419D01*
X131249687Y-115824800D02*
X131344925Y-115872419D01*
X131344925Y-115872419D02*
X131535401Y-115872419D01*
X131535401Y-115872419D02*
X131630639Y-115824800D01*
X131630639Y-115824800D02*
X131678258Y-115777180D01*
X131678258Y-115777180D02*
X131725877Y-115681942D01*
X131725877Y-115681942D02*
X131725877Y-115396228D01*
X131725877Y-115396228D02*
X131678258Y-115300990D01*
X131678258Y-115300990D02*
X131630639Y-115253371D01*
X131630639Y-115253371D02*
X131535401Y-115205752D01*
X131535401Y-115205752D02*
X131344925Y-115205752D01*
X131344925Y-115205752D02*
X131249687Y-115253371D01*
X130678258Y-115872419D02*
X130773496Y-115824800D01*
X130773496Y-115824800D02*
X130821115Y-115777180D01*
X130821115Y-115777180D02*
X130868734Y-115681942D01*
X130868734Y-115681942D02*
X130868734Y-115396228D01*
X130868734Y-115396228D02*
X130821115Y-115300990D01*
X130821115Y-115300990D02*
X130773496Y-115253371D01*
X130773496Y-115253371D02*
X130678258Y-115205752D01*
X130678258Y-115205752D02*
X130535401Y-115205752D01*
X130535401Y-115205752D02*
X130440163Y-115253371D01*
X130440163Y-115253371D02*
X130392544Y-115300990D01*
X130392544Y-115300990D02*
X130344925Y-115396228D01*
X130344925Y-115396228D02*
X130344925Y-115681942D01*
X130344925Y-115681942D02*
X130392544Y-115777180D01*
X130392544Y-115777180D02*
X130440163Y-115824800D01*
X130440163Y-115824800D02*
X130535401Y-115872419D01*
X130535401Y-115872419D02*
X130678258Y-115872419D01*
X129916353Y-115872419D02*
X129916353Y-115205752D01*
X129916353Y-115300990D02*
X129868734Y-115253371D01*
X129868734Y-115253371D02*
X129773496Y-115205752D01*
X129773496Y-115205752D02*
X129630639Y-115205752D01*
X129630639Y-115205752D02*
X129535401Y-115253371D01*
X129535401Y-115253371D02*
X129487782Y-115348609D01*
X129487782Y-115348609D02*
X129487782Y-115872419D01*
X129487782Y-115348609D02*
X129440163Y-115253371D01*
X129440163Y-115253371D02*
X129344925Y-115205752D01*
X129344925Y-115205752D02*
X129202068Y-115205752D01*
X129202068Y-115205752D02*
X129106829Y-115253371D01*
X129106829Y-115253371D02*
X129059210Y-115348609D01*
X129059210Y-115348609D02*
X129059210Y-115872419D01*
X127868735Y-114824800D02*
X128725877Y-116110514D01*
X126963973Y-115777180D02*
X127011592Y-115824800D01*
X127011592Y-115824800D02*
X127154449Y-115872419D01*
X127154449Y-115872419D02*
X127249687Y-115872419D01*
X127249687Y-115872419D02*
X127392544Y-115824800D01*
X127392544Y-115824800D02*
X127487782Y-115729561D01*
X127487782Y-115729561D02*
X127535401Y-115634323D01*
X127535401Y-115634323D02*
X127583020Y-115443847D01*
X127583020Y-115443847D02*
X127583020Y-115300990D01*
X127583020Y-115300990D02*
X127535401Y-115110514D01*
X127535401Y-115110514D02*
X127487782Y-115015276D01*
X127487782Y-115015276D02*
X127392544Y-114920038D01*
X127392544Y-114920038D02*
X127249687Y-114872419D01*
X127249687Y-114872419D02*
X127154449Y-114872419D01*
X127154449Y-114872419D02*
X127011592Y-114920038D01*
X127011592Y-114920038D02*
X126963973Y-114967657D01*
X126202068Y-115348609D02*
X126535401Y-115348609D01*
X126535401Y-115872419D02*
X126535401Y-114872419D01*
X126535401Y-114872419D02*
X126059211Y-114872419D01*
X125535401Y-115872419D02*
X125630639Y-115824800D01*
X125630639Y-115824800D02*
X125678258Y-115729561D01*
X125678258Y-115729561D02*
X125678258Y-114872419D01*
X125011591Y-115872419D02*
X125106829Y-115824800D01*
X125106829Y-115824800D02*
X125154448Y-115777180D01*
X125154448Y-115777180D02*
X125202067Y-115681942D01*
X125202067Y-115681942D02*
X125202067Y-115396228D01*
X125202067Y-115396228D02*
X125154448Y-115300990D01*
X125154448Y-115300990D02*
X125106829Y-115253371D01*
X125106829Y-115253371D02*
X125011591Y-115205752D01*
X125011591Y-115205752D02*
X124868734Y-115205752D01*
X124868734Y-115205752D02*
X124773496Y-115253371D01*
X124773496Y-115253371D02*
X124725877Y-115300990D01*
X124725877Y-115300990D02*
X124678258Y-115396228D01*
X124678258Y-115396228D02*
X124678258Y-115681942D01*
X124678258Y-115681942D02*
X124725877Y-115777180D01*
X124725877Y-115777180D02*
X124773496Y-115824800D01*
X124773496Y-115824800D02*
X124868734Y-115872419D01*
X124868734Y-115872419D02*
X125011591Y-115872419D01*
X124344924Y-115205752D02*
X124106829Y-115872419D01*
X123868734Y-115205752D02*
X124106829Y-115872419D01*
X124106829Y-115872419D02*
X124202067Y-116110514D01*
X124202067Y-116110514D02*
X124249686Y-116158133D01*
X124249686Y-116158133D02*
X124344924Y-116205752D01*
X123059210Y-115872419D02*
X123059210Y-114872419D01*
X123059210Y-115824800D02*
X123154448Y-115872419D01*
X123154448Y-115872419D02*
X123344924Y-115872419D01*
X123344924Y-115872419D02*
X123440162Y-115824800D01*
X123440162Y-115824800D02*
X123487781Y-115777180D01*
X123487781Y-115777180D02*
X123535400Y-115681942D01*
X123535400Y-115681942D02*
X123535400Y-115396228D01*
X123535400Y-115396228D02*
X123487781Y-115300990D01*
X123487781Y-115300990D02*
X123440162Y-115253371D01*
X123440162Y-115253371D02*
X123344924Y-115205752D01*
X123344924Y-115205752D02*
X123154448Y-115205752D01*
X123154448Y-115205752D02*
X123059210Y-115253371D01*
X122392543Y-114872419D02*
X122297305Y-114872419D01*
X122297305Y-114872419D02*
X122202067Y-114920038D01*
X122202067Y-114920038D02*
X122154448Y-114967657D01*
X122154448Y-114967657D02*
X122106829Y-115062895D01*
X122106829Y-115062895D02*
X122059210Y-115253371D01*
X122059210Y-115253371D02*
X122059210Y-115491466D01*
X122059210Y-115491466D02*
X122106829Y-115681942D01*
X122106829Y-115681942D02*
X122154448Y-115777180D01*
X122154448Y-115777180D02*
X122202067Y-115824800D01*
X122202067Y-115824800D02*
X122297305Y-115872419D01*
X122297305Y-115872419D02*
X122392543Y-115872419D01*
X122392543Y-115872419D02*
X122487781Y-115824800D01*
X122487781Y-115824800D02*
X122535400Y-115777180D01*
X122535400Y-115777180D02*
X122583019Y-115681942D01*
X122583019Y-115681942D02*
X122630638Y-115491466D01*
X122630638Y-115491466D02*
X122630638Y-115253371D01*
X122630638Y-115253371D02*
X122583019Y-115062895D01*
X122583019Y-115062895D02*
X122535400Y-114967657D01*
X122535400Y-114967657D02*
X122487781Y-114920038D01*
X122487781Y-114920038D02*
X122392543Y-114872419D01*
X121154448Y-114872419D02*
X121630638Y-114872419D01*
X121630638Y-114872419D02*
X121678257Y-115348609D01*
X121678257Y-115348609D02*
X121630638Y-115300990D01*
X121630638Y-115300990D02*
X121535400Y-115253371D01*
X121535400Y-115253371D02*
X121297305Y-115253371D01*
X121297305Y-115253371D02*
X121202067Y-115300990D01*
X121202067Y-115300990D02*
X121154448Y-115348609D01*
X121154448Y-115348609D02*
X121106829Y-115443847D01*
X121106829Y-115443847D02*
X121106829Y-115681942D01*
X121106829Y-115681942D02*
X121154448Y-115777180D01*
X121154448Y-115777180D02*
X121202067Y-115824800D01*
X121202067Y-115824800D02*
X121297305Y-115872419D01*
X121297305Y-115872419D02*
X121535400Y-115872419D01*
X121535400Y-115872419D02*
X121630638Y-115824800D01*
X121630638Y-115824800D02*
X121678257Y-115777180D01*
X136702068Y-112262475D02*
X136577068Y-111262475D01*
X136577068Y-111262475D02*
X136338972Y-111262475D01*
X136338972Y-111262475D02*
X136202068Y-111310094D01*
X136202068Y-111310094D02*
X136118734Y-111405332D01*
X136118734Y-111405332D02*
X136083020Y-111500570D01*
X136083020Y-111500570D02*
X136059211Y-111691046D01*
X136059211Y-111691046D02*
X136077068Y-111833903D01*
X136077068Y-111833903D02*
X136148496Y-112024379D01*
X136148496Y-112024379D02*
X136208020Y-112119617D01*
X136208020Y-112119617D02*
X136315163Y-112214856D01*
X136315163Y-112214856D02*
X136463972Y-112262475D01*
X136463972Y-112262475D02*
X136702068Y-112262475D01*
X135315163Y-112214856D02*
X135416353Y-112262475D01*
X135416353Y-112262475D02*
X135606830Y-112262475D01*
X135606830Y-112262475D02*
X135696115Y-112214856D01*
X135696115Y-112214856D02*
X135731830Y-112119617D01*
X135731830Y-112119617D02*
X135684211Y-111738665D01*
X135684211Y-111738665D02*
X135624687Y-111643427D01*
X135624687Y-111643427D02*
X135523496Y-111595808D01*
X135523496Y-111595808D02*
X135333020Y-111595808D01*
X135333020Y-111595808D02*
X135243734Y-111643427D01*
X135243734Y-111643427D02*
X135208020Y-111738665D01*
X135208020Y-111738665D02*
X135219925Y-111833903D01*
X135219925Y-111833903D02*
X135708020Y-111929141D01*
X134886591Y-112214856D02*
X134797306Y-112262475D01*
X134797306Y-112262475D02*
X134606829Y-112262475D01*
X134606829Y-112262475D02*
X134505639Y-112214856D01*
X134505639Y-112214856D02*
X134446115Y-112119617D01*
X134446115Y-112119617D02*
X134440163Y-112071998D01*
X134440163Y-112071998D02*
X134475877Y-111976760D01*
X134475877Y-111976760D02*
X134565163Y-111929141D01*
X134565163Y-111929141D02*
X134708020Y-111929141D01*
X134708020Y-111929141D02*
X134797306Y-111881522D01*
X134797306Y-111881522D02*
X134833020Y-111786284D01*
X134833020Y-111786284D02*
X134827068Y-111738665D01*
X134827068Y-111738665D02*
X134767544Y-111643427D01*
X134767544Y-111643427D02*
X134666353Y-111595808D01*
X134666353Y-111595808D02*
X134523496Y-111595808D01*
X134523496Y-111595808D02*
X134434210Y-111643427D01*
X134035401Y-112262475D02*
X133952067Y-111595808D01*
X133910401Y-111262475D02*
X133963972Y-111310094D01*
X133963972Y-111310094D02*
X133922305Y-111357713D01*
X133922305Y-111357713D02*
X133868734Y-111310094D01*
X133868734Y-111310094D02*
X133910401Y-111262475D01*
X133910401Y-111262475D02*
X133922305Y-111357713D01*
X133047306Y-111595808D02*
X133148496Y-112405332D01*
X133148496Y-112405332D02*
X133208020Y-112500570D01*
X133208020Y-112500570D02*
X133261592Y-112548189D01*
X133261592Y-112548189D02*
X133362782Y-112595808D01*
X133362782Y-112595808D02*
X133505639Y-112595808D01*
X133505639Y-112595808D02*
X133594925Y-112548189D01*
X133124687Y-112214856D02*
X133225877Y-112262475D01*
X133225877Y-112262475D02*
X133416354Y-112262475D01*
X133416354Y-112262475D02*
X133505639Y-112214856D01*
X133505639Y-112214856D02*
X133547306Y-112167236D01*
X133547306Y-112167236D02*
X133583020Y-112071998D01*
X133583020Y-112071998D02*
X133547306Y-111786284D01*
X133547306Y-111786284D02*
X133487782Y-111691046D01*
X133487782Y-111691046D02*
X133434211Y-111643427D01*
X133434211Y-111643427D02*
X133333020Y-111595808D01*
X133333020Y-111595808D02*
X133142544Y-111595808D01*
X133142544Y-111595808D02*
X133053258Y-111643427D01*
X132571115Y-111595808D02*
X132654449Y-112262475D01*
X132583020Y-111691046D02*
X132529449Y-111643427D01*
X132529449Y-111643427D02*
X132428258Y-111595808D01*
X132428258Y-111595808D02*
X132285401Y-111595808D01*
X132285401Y-111595808D02*
X132196115Y-111643427D01*
X132196115Y-111643427D02*
X132160401Y-111738665D01*
X132160401Y-111738665D02*
X132225877Y-112262475D01*
X131362782Y-112214856D02*
X131463972Y-112262475D01*
X131463972Y-112262475D02*
X131654449Y-112262475D01*
X131654449Y-112262475D02*
X131743734Y-112214856D01*
X131743734Y-112214856D02*
X131779449Y-112119617D01*
X131779449Y-112119617D02*
X131731830Y-111738665D01*
X131731830Y-111738665D02*
X131672306Y-111643427D01*
X131672306Y-111643427D02*
X131571115Y-111595808D01*
X131571115Y-111595808D02*
X131380639Y-111595808D01*
X131380639Y-111595808D02*
X131291353Y-111643427D01*
X131291353Y-111643427D02*
X131255639Y-111738665D01*
X131255639Y-111738665D02*
X131267544Y-111833903D01*
X131267544Y-111833903D02*
X131755639Y-111929141D01*
X130463972Y-112262475D02*
X130338972Y-111262475D01*
X130458020Y-112214856D02*
X130559210Y-112262475D01*
X130559210Y-112262475D02*
X130749687Y-112262475D01*
X130749687Y-112262475D02*
X130838972Y-112214856D01*
X130838972Y-112214856D02*
X130880639Y-112167236D01*
X130880639Y-112167236D02*
X130916353Y-112071998D01*
X130916353Y-112071998D02*
X130880639Y-111786284D01*
X130880639Y-111786284D02*
X130821115Y-111691046D01*
X130821115Y-111691046D02*
X130767544Y-111643427D01*
X130767544Y-111643427D02*
X130666353Y-111595808D01*
X130666353Y-111595808D02*
X130475877Y-111595808D01*
X130475877Y-111595808D02*
X130386591Y-111643427D01*
X129225877Y-112262475D02*
X129100877Y-111262475D01*
X129148496Y-111643427D02*
X129047305Y-111595808D01*
X129047305Y-111595808D02*
X128856829Y-111595808D01*
X128856829Y-111595808D02*
X128767543Y-111643427D01*
X128767543Y-111643427D02*
X128725877Y-111691046D01*
X128725877Y-111691046D02*
X128690162Y-111786284D01*
X128690162Y-111786284D02*
X128725877Y-112071998D01*
X128725877Y-112071998D02*
X128785400Y-112167236D01*
X128785400Y-112167236D02*
X128838972Y-112214856D01*
X128838972Y-112214856D02*
X128940162Y-112262475D01*
X128940162Y-112262475D02*
X129130639Y-112262475D01*
X129130639Y-112262475D02*
X129219924Y-112214856D01*
X128333019Y-111595808D02*
X128178258Y-112262475D01*
X127856829Y-111595808D02*
X128178258Y-112262475D01*
X128178258Y-112262475D02*
X128303258Y-112500570D01*
X128303258Y-112500570D02*
X128356829Y-112548189D01*
X128356829Y-112548189D02*
X128458019Y-112595808D01*
X136118734Y-113777180D02*
X136172306Y-113824800D01*
X136172306Y-113824800D02*
X136321115Y-113872419D01*
X136321115Y-113872419D02*
X136416353Y-113872419D01*
X136416353Y-113872419D02*
X136553258Y-113824800D01*
X136553258Y-113824800D02*
X136636591Y-113729561D01*
X136636591Y-113729561D02*
X136672306Y-113634323D01*
X136672306Y-113634323D02*
X136696115Y-113443847D01*
X136696115Y-113443847D02*
X136678258Y-113300990D01*
X136678258Y-113300990D02*
X136606830Y-113110514D01*
X136606830Y-113110514D02*
X136547306Y-113015276D01*
X136547306Y-113015276D02*
X136440163Y-112920038D01*
X136440163Y-112920038D02*
X136291353Y-112872419D01*
X136291353Y-112872419D02*
X136196115Y-112872419D01*
X136196115Y-112872419D02*
X136059211Y-112920038D01*
X136059211Y-112920038D02*
X136017544Y-112967657D01*
X135559211Y-113872419D02*
X135648496Y-113824800D01*
X135648496Y-113824800D02*
X135690163Y-113777180D01*
X135690163Y-113777180D02*
X135725877Y-113681942D01*
X135725877Y-113681942D02*
X135690163Y-113396228D01*
X135690163Y-113396228D02*
X135630639Y-113300990D01*
X135630639Y-113300990D02*
X135577068Y-113253371D01*
X135577068Y-113253371D02*
X135475877Y-113205752D01*
X135475877Y-113205752D02*
X135333020Y-113205752D01*
X135333020Y-113205752D02*
X135243734Y-113253371D01*
X135243734Y-113253371D02*
X135202068Y-113300990D01*
X135202068Y-113300990D02*
X135166353Y-113396228D01*
X135166353Y-113396228D02*
X135202068Y-113681942D01*
X135202068Y-113681942D02*
X135261591Y-113777180D01*
X135261591Y-113777180D02*
X135315163Y-113824800D01*
X135315163Y-113824800D02*
X135416353Y-113872419D01*
X135416353Y-113872419D02*
X135559211Y-113872419D01*
X134713972Y-113205752D02*
X134797306Y-113872419D01*
X134725877Y-113300990D02*
X134672306Y-113253371D01*
X134672306Y-113253371D02*
X134571115Y-113205752D01*
X134571115Y-113205752D02*
X134428258Y-113205752D01*
X134428258Y-113205752D02*
X134338972Y-113253371D01*
X134338972Y-113253371D02*
X134303258Y-113348609D01*
X134303258Y-113348609D02*
X134368734Y-113872419D01*
X133809210Y-113205752D02*
X133892544Y-113872419D01*
X133821115Y-113300990D02*
X133767544Y-113253371D01*
X133767544Y-113253371D02*
X133666353Y-113205752D01*
X133666353Y-113205752D02*
X133523496Y-113205752D01*
X133523496Y-113205752D02*
X133434210Y-113253371D01*
X133434210Y-113253371D02*
X133398496Y-113348609D01*
X133398496Y-113348609D02*
X133463972Y-113872419D01*
X132844925Y-113872419D02*
X132934210Y-113824800D01*
X132934210Y-113824800D02*
X132975877Y-113777180D01*
X132975877Y-113777180D02*
X133011591Y-113681942D01*
X133011591Y-113681942D02*
X132975877Y-113396228D01*
X132975877Y-113396228D02*
X132916353Y-113300990D01*
X132916353Y-113300990D02*
X132862782Y-113253371D01*
X132862782Y-113253371D02*
X132761591Y-113205752D01*
X132761591Y-113205752D02*
X132618734Y-113205752D01*
X132618734Y-113205752D02*
X132529448Y-113253371D01*
X132529448Y-113253371D02*
X132487782Y-113300990D01*
X132487782Y-113300990D02*
X132452067Y-113396228D01*
X132452067Y-113396228D02*
X132487782Y-113681942D01*
X132487782Y-113681942D02*
X132547305Y-113777180D01*
X132547305Y-113777180D02*
X132600877Y-113824800D01*
X132600877Y-113824800D02*
X132702067Y-113872419D01*
X132702067Y-113872419D02*
X132844925Y-113872419D01*
X132083020Y-113872419D02*
X131999686Y-113205752D01*
X132023496Y-113396228D02*
X131963972Y-113300990D01*
X131963972Y-113300990D02*
X131910401Y-113253371D01*
X131910401Y-113253371D02*
X131809210Y-113205752D01*
X131809210Y-113205752D02*
X131713972Y-113205752D01*
X130303257Y-113348609D02*
X130636590Y-113348609D01*
X130702067Y-113872419D02*
X130577067Y-112872419D01*
X130577067Y-112872419D02*
X130100876Y-112872419D01*
X129702067Y-113872419D02*
X129791352Y-113824800D01*
X129791352Y-113824800D02*
X129827067Y-113729561D01*
X129827067Y-113729561D02*
X129719924Y-112872419D01*
X129178257Y-113872419D02*
X129267542Y-113824800D01*
X129267542Y-113824800D02*
X129309209Y-113777180D01*
X129309209Y-113777180D02*
X129344923Y-113681942D01*
X129344923Y-113681942D02*
X129309209Y-113396228D01*
X129309209Y-113396228D02*
X129249685Y-113300990D01*
X129249685Y-113300990D02*
X129196114Y-113253371D01*
X129196114Y-113253371D02*
X129094923Y-113205752D01*
X129094923Y-113205752D02*
X128952066Y-113205752D01*
X128952066Y-113205752D02*
X128862780Y-113253371D01*
X128862780Y-113253371D02*
X128821114Y-113300990D01*
X128821114Y-113300990D02*
X128785399Y-113396228D01*
X128785399Y-113396228D02*
X128821114Y-113681942D01*
X128821114Y-113681942D02*
X128880637Y-113777180D01*
X128880637Y-113777180D02*
X128934209Y-113824800D01*
X128934209Y-113824800D02*
X129035399Y-113872419D01*
X129035399Y-113872419D02*
X129178257Y-113872419D01*
X128428256Y-113205752D02*
X128273495Y-113872419D01*
X127952066Y-113205752D02*
X128273495Y-113872419D01*
X128273495Y-113872419D02*
X128398495Y-114110514D01*
X128398495Y-114110514D02*
X128452066Y-114158133D01*
X128452066Y-114158133D02*
X128553256Y-114205752D01*
X127225875Y-113872419D02*
X127100875Y-112872419D01*
X127219923Y-113824800D02*
X127321113Y-113872419D01*
X127321113Y-113872419D02*
X127511590Y-113872419D01*
X127511590Y-113872419D02*
X127600875Y-113824800D01*
X127600875Y-113824800D02*
X127642542Y-113777180D01*
X127642542Y-113777180D02*
X127678256Y-113681942D01*
X127678256Y-113681942D02*
X127642542Y-113396228D01*
X127642542Y-113396228D02*
X127583018Y-113300990D01*
X127583018Y-113300990D02*
X127529447Y-113253371D01*
X127529447Y-113253371D02*
X127428256Y-113205752D01*
X127428256Y-113205752D02*
X127237780Y-113205752D01*
X127237780Y-113205752D02*
X127148494Y-113253371D01*
D11*
X135429042Y-89164909D02*
X136667137Y-89164909D01*
X136667137Y-89164909D02*
X136667137Y-86564909D01*
X134562375Y-87803004D02*
X133695708Y-87803004D01*
X133324280Y-89164909D02*
X134562375Y-89164909D01*
X134562375Y-89164909D02*
X134562375Y-86564909D01*
X134562375Y-86564909D02*
X133324280Y-86564909D01*
X132209994Y-89164909D02*
X132209994Y-86564909D01*
X132209994Y-86564909D02*
X131590946Y-86564909D01*
X131590946Y-86564909D02*
X131219518Y-86688719D01*
X131219518Y-86688719D02*
X130971899Y-86936338D01*
X130971899Y-86936338D02*
X130848089Y-87183957D01*
X130848089Y-87183957D02*
X130724280Y-87679195D01*
X130724280Y-87679195D02*
X130724280Y-88050623D01*
X130724280Y-88050623D02*
X130848089Y-88545861D01*
X130848089Y-88545861D02*
X130971899Y-88793480D01*
X130971899Y-88793480D02*
X131219518Y-89041100D01*
X131219518Y-89041100D02*
X131590946Y-89164909D01*
X131590946Y-89164909D02*
X132209994Y-89164909D01*
X127629042Y-89164909D02*
X127629042Y-86564909D01*
X127629042Y-86564909D02*
X126638566Y-86564909D01*
X126638566Y-86564909D02*
X126390947Y-86688719D01*
X126390947Y-86688719D02*
X126267137Y-86812528D01*
X126267137Y-86812528D02*
X126143328Y-87060147D01*
X126143328Y-87060147D02*
X126143328Y-87431576D01*
X126143328Y-87431576D02*
X126267137Y-87679195D01*
X126267137Y-87679195D02*
X126390947Y-87803004D01*
X126390947Y-87803004D02*
X126638566Y-87926814D01*
X126638566Y-87926814D02*
X127629042Y-87926814D01*
X125276661Y-86564909D02*
X124657613Y-89164909D01*
X124657613Y-89164909D02*
X124162375Y-87307766D01*
X124162375Y-87307766D02*
X123667137Y-89164909D01*
X123667137Y-89164909D02*
X123048090Y-86564909D01*
X122057613Y-89164909D02*
X122057613Y-86564909D01*
X122057613Y-86564909D02*
X121190946Y-88422052D01*
X121190946Y-88422052D02*
X120324280Y-86564909D01*
X120324280Y-86564909D02*
X120324280Y-89164909D01*
X116238565Y-87803004D02*
X115867137Y-87926814D01*
X115867137Y-87926814D02*
X115743327Y-88050623D01*
X115743327Y-88050623D02*
X115619518Y-88298242D01*
X115619518Y-88298242D02*
X115619518Y-88669671D01*
X115619518Y-88669671D02*
X115743327Y-88917290D01*
X115743327Y-88917290D02*
X115867137Y-89041100D01*
X115867137Y-89041100D02*
X116114756Y-89164909D01*
X116114756Y-89164909D02*
X117105232Y-89164909D01*
X117105232Y-89164909D02*
X117105232Y-86564909D01*
X117105232Y-86564909D02*
X116238565Y-86564909D01*
X116238565Y-86564909D02*
X115990946Y-86688719D01*
X115990946Y-86688719D02*
X115867137Y-86812528D01*
X115867137Y-86812528D02*
X115743327Y-87060147D01*
X115743327Y-87060147D02*
X115743327Y-87307766D01*
X115743327Y-87307766D02*
X115867137Y-87555385D01*
X115867137Y-87555385D02*
X115990946Y-87679195D01*
X115990946Y-87679195D02*
X116238565Y-87803004D01*
X116238565Y-87803004D02*
X117105232Y-87803004D01*
X114009994Y-86564909D02*
X113514756Y-86564909D01*
X113514756Y-86564909D02*
X113267137Y-86688719D01*
X113267137Y-86688719D02*
X113019518Y-86936338D01*
X113019518Y-86936338D02*
X112895708Y-87431576D01*
X112895708Y-87431576D02*
X112895708Y-88298242D01*
X112895708Y-88298242D02*
X113019518Y-88793480D01*
X113019518Y-88793480D02*
X113267137Y-89041100D01*
X113267137Y-89041100D02*
X113514756Y-89164909D01*
X113514756Y-89164909D02*
X114009994Y-89164909D01*
X114009994Y-89164909D02*
X114257613Y-89041100D01*
X114257613Y-89041100D02*
X114505232Y-88793480D01*
X114505232Y-88793480D02*
X114629041Y-88298242D01*
X114629041Y-88298242D02*
X114629041Y-87431576D01*
X114629041Y-87431576D02*
X114505232Y-86936338D01*
X114505232Y-86936338D02*
X114257613Y-86688719D01*
X114257613Y-86688719D02*
X114009994Y-86564909D01*
X111905231Y-88422052D02*
X110667136Y-88422052D01*
X112152850Y-89164909D02*
X111286184Y-86564909D01*
X111286184Y-86564909D02*
X110419517Y-89164909D01*
X108067137Y-89164909D02*
X108933803Y-87926814D01*
X109552851Y-89164909D02*
X109552851Y-86564909D01*
X109552851Y-86564909D02*
X108562375Y-86564909D01*
X108562375Y-86564909D02*
X108314756Y-86688719D01*
X108314756Y-86688719D02*
X108190946Y-86812528D01*
X108190946Y-86812528D02*
X108067137Y-87060147D01*
X108067137Y-87060147D02*
X108067137Y-87431576D01*
X108067137Y-87431576D02*
X108190946Y-87679195D01*
X108190946Y-87679195D02*
X108314756Y-87803004D01*
X108314756Y-87803004D02*
X108562375Y-87926814D01*
X108562375Y-87926814D02*
X109552851Y-87926814D01*
X106952851Y-89164909D02*
X106952851Y-86564909D01*
X106952851Y-86564909D02*
X106333803Y-86564909D01*
X106333803Y-86564909D02*
X105962375Y-86688719D01*
X105962375Y-86688719D02*
X105714756Y-86936338D01*
X105714756Y-86936338D02*
X105590946Y-87183957D01*
X105590946Y-87183957D02*
X105467137Y-87679195D01*
X105467137Y-87679195D02*
X105467137Y-88050623D01*
X105467137Y-88050623D02*
X105590946Y-88545861D01*
X105590946Y-88545861D02*
X105714756Y-88793480D01*
X105714756Y-88793480D02*
X105962375Y-89041100D01*
X105962375Y-89041100D02*
X106333803Y-89164909D01*
X106333803Y-89164909D02*
X106952851Y-89164909D01*
%LPC*%
D12*
%TO.C,J5*%
X102000000Y-89500000D03*
D13*
X102000000Y-92000000D03*
%TD*%
D14*
%TO.C,REF\u002A\u002A*%
X101500000Y-120500000D03*
D15*
X101500000Y-120500000D03*
%TD*%
D16*
%TO.C,J1*%
X118500000Y-81500000D03*
D17*
X113420000Y-81500000D03*
X108340000Y-81500000D03*
%TD*%
D16*
%TO.C,J7*%
X102100000Y-98500000D03*
D17*
X102100000Y-103580000D03*
%TD*%
D14*
%TO.C,REF\u002A\u002A*%
X101500000Y-81500000D03*
D15*
X101500000Y-81500000D03*
%TD*%
D16*
%TO.C,J3*%
X108340000Y-119500000D03*
D17*
X113420000Y-119500000D03*
X118500000Y-119500000D03*
%TD*%
D16*
%TO.C,J2*%
X135000000Y-81500000D03*
D17*
X129920000Y-81500000D03*
X124840000Y-81500000D03*
%TD*%
D16*
%TO.C,J4*%
X124840000Y-119500000D03*
D17*
X129920000Y-119500000D03*
X135000000Y-119500000D03*
%TD*%
D12*
%TO.C,J6*%
X102000000Y-110000000D03*
D13*
X102000000Y-112500000D03*
%TD*%
D14*
%TO.C,REF\u002A\u002A*%
X135000000Y-100500000D03*
D15*
X135000000Y-100500000D03*
%TD*%
%LPD*%
M02*
