%TF.GenerationSoftware,KiCad,Pcbnew,10.0.6*%
%TF.CreationDate,2026-10-08T09:42:07-07:00*%
%TF.ProjectId,mainLightPCB_rev3,6d61696e-4c69-4676-9874-5043425f7265,rev?*%
%TF.SameCoordinates,Original*%
%TF.FileFunction,Copper,L1,Top*%
%TF.FilePolarity,Positive*%
%FSLAX46Y46*%
G04 Gerber Fmt 4.6, Leading zero omitted, Abs format (unit mm)*
G04 Created by KiCad (PCBNEW 10.0.6) date 2026-10-08 09:42:07*
%MOMM*%
%LPD*%
G01*
G04 APERTURE LIST*
G04 Aperture macros list*
%AMRoundRect*
0 Rectangle with rounded corners*
0 $1 Rounding radius*
0 $2 $3 $4 $5 $6 $7 $8 $9 X,Y pos of 4 corners*
0 Add a 4 corners polygon primitive as box body*
4,1,4,$2,$3,$4,$5,$6,$7,$8,$9,$2,$3,0*
0 Add four circle primitives for the rounded corners*
1,1,$1+$1,$2,$3*
1,1,$1+$1,$4,$5*
1,1,$1+$1,$6,$7*
1,1,$1+$1,$8,$9*
0 Add four rect primitives between the rounded corners*
20,1,$1+$1,$2,$3,$4,$5,0*
20,1,$1+$1,$4,$5,$6,$7,0*
20,1,$1+$1,$6,$7,$8,$9,0*
20,1,$1+$1,$8,$9,$2,$3,0*%
G04 Aperture macros list end*
%TA.AperFunction,SMDPad,CuDef*%
%ADD10RoundRect,0.150000X-0.587500X-0.150000X0.587500X-0.150000X0.587500X0.150000X-0.587500X0.150000X0*%
%TD*%
%TA.AperFunction,ComponentPad*%
%ADD11RoundRect,0.250000X-0.750000X0.600000X-0.750000X-0.600000X0.750000X-0.600000X0.750000X0.600000X0*%
%TD*%
%TA.AperFunction,ComponentPad*%
%ADD12O,2.000000X1.700000*%
%TD*%
%TA.AperFunction,SMDPad,CuDef*%
%ADD13RoundRect,0.150000X0.587500X0.150000X-0.587500X0.150000X-0.587500X-0.150000X0.587500X-0.150000X0*%
%TD*%
%TA.AperFunction,ComponentPad*%
%ADD14C,3.600000*%
%TD*%
%TA.AperFunction,ConnectorPad*%
%ADD15C,5.600000*%
%TD*%
%TA.AperFunction,SMDPad,CuDef*%
%ADD16RoundRect,0.237500X0.250000X0.237500X-0.250000X0.237500X-0.250000X-0.237500X0.250000X-0.237500X0*%
%TD*%
%TA.AperFunction,ComponentPad*%
%ADD17R,3.000000X3.000000*%
%TD*%
%TA.AperFunction,ComponentPad*%
%ADD18C,3.000000*%
%TD*%
%TA.AperFunction,SMDPad,CuDef*%
%ADD19RoundRect,0.237500X-0.250000X-0.237500X0.250000X-0.237500X0.250000X0.237500X-0.250000X0.237500X0*%
%TD*%
%TA.AperFunction,ViaPad*%
%ADD20C,0.600000*%
%TD*%
%TA.AperFunction,Conductor*%
%ADD21C,0.300000*%
%TD*%
%TA.AperFunction,Conductor*%
%ADD22C,0.600000*%
%TD*%
%TA.AperFunction,Conductor*%
%ADD23C,0.200000*%
%TD*%
G04 APERTURE END LIST*
D10*
%TO.P,Q3,1,G_1*%
%TO.N,Net-(Q1-G)*%
X119625000Y-110195000D03*
%TO.P,Q3,2,S_2*%
%TO.N,GND*%
X119625000Y-112095000D03*
%TO.P,Q3,3,D_3*%
%TO.N,Net-(J3-Pin_2)*%
X121500000Y-111145000D03*
%TD*%
D11*
%TO.P,J5,1,Pin_1_1*%
%TO.N,GND*%
X102000000Y-89500000D03*
D12*
%TO.P,J5,2,Pin_2_2*%
%TO.N,Net-(J5-Pin_2)*%
X102000000Y-92000000D03*
%TD*%
D13*
%TO.P,Q1,1,G_1*%
%TO.N,Net-(Q1-G)*%
X116437500Y-91450000D03*
%TO.P,Q1,2,S_2*%
%TO.N,GND*%
X116437500Y-89550000D03*
%TO.P,Q1,3,D_3*%
%TO.N,Net-(J1-Pin_2)*%
X114562500Y-90500000D03*
%TD*%
D14*
%TO.P,REF\u002A\u002A,1*%
%TO.N,N/C*%
X101500000Y-120500000D03*
D15*
X101500000Y-120500000D03*
%TD*%
D13*
%TO.P,Q6,1,G_1*%
%TO.N,Net-(Q5-G)*%
X131500000Y-91450000D03*
%TO.P,Q6,2,S_2*%
%TO.N,GND*%
X131500000Y-89550000D03*
%TO.P,Q6,3,D_3*%
%TO.N,Net-(J2-Pin_1)*%
X129625000Y-90500000D03*
%TD*%
%TO.P,Q2,1,G_1*%
%TO.N,Net-(Q1-G)*%
X126562500Y-91450000D03*
%TO.P,Q2,2,S_2*%
%TO.N,GND*%
X126562500Y-89550000D03*
%TO.P,Q2,3,D_3*%
%TO.N,Net-(J2-Pin_2)*%
X124687500Y-90500000D03*
%TD*%
D16*
%TO.P,R2,1*%
%TO.N,Net-(Q1-G)*%
X110500000Y-89500000D03*
%TO.P,R2,2*%
%TO.N,GND*%
X108675000Y-89500000D03*
%TD*%
D17*
%TO.P,J1,1,Pin_1_1*%
%TO.N,Net-(J1-Pin_1)*%
X118500000Y-81500000D03*
D18*
%TO.P,J1,2,Pin_2_2*%
%TO.N,Net-(J1-Pin_2)*%
X113420000Y-81500000D03*
%TO.P,J1,3,Pin_3_3*%
%TO.N,+24V*%
X108340000Y-81500000D03*
%TD*%
D10*
%TO.P,Q8,1,G_1*%
%TO.N,Net-(Q5-G)*%
X124625000Y-110195000D03*
%TO.P,Q8,2,S_2*%
%TO.N,GND*%
X124625000Y-112095000D03*
%TO.P,Q8,3,D_3*%
%TO.N,Net-(J4-Pin_1)*%
X126500000Y-111145000D03*
%TD*%
D13*
%TO.P,Q5,1,G_1*%
%TO.N,Net-(Q5-G)*%
X121437500Y-91450000D03*
%TO.P,Q5,2,S_2*%
%TO.N,GND*%
X121437500Y-89550000D03*
%TO.P,Q5,3,D_3*%
%TO.N,Net-(J1-Pin_1)*%
X119562500Y-90500000D03*
%TD*%
D17*
%TO.P,J7,1,Pin_1_1*%
%TO.N,GND*%
X102100000Y-98500000D03*
D18*
%TO.P,J7,2,Pin_2_2*%
%TO.N,+24V*%
X102100000Y-103580000D03*
%TD*%
D10*
%TO.P,Q7,1,G_1*%
%TO.N,Net-(Q5-G)*%
X114625000Y-110195000D03*
%TO.P,Q7,2,S_2*%
%TO.N,GND*%
X114625000Y-112095000D03*
%TO.P,Q7,3,D_3*%
%TO.N,Net-(J3-Pin_1)*%
X116500000Y-111145000D03*
%TD*%
D14*
%TO.P,REF\u002A\u002A,1*%
%TO.N,N/C*%
X101500000Y-81500000D03*
D15*
X101500000Y-81500000D03*
%TD*%
D17*
%TO.P,J3,1,Pin_1_1*%
%TO.N,Net-(J3-Pin_1)*%
X108340000Y-119500000D03*
D18*
%TO.P,J3,2,Pin_2_2*%
%TO.N,Net-(J3-Pin_2)*%
X113420000Y-119500000D03*
%TO.P,J3,3,Pin_3_3*%
%TO.N,+24V*%
X118500000Y-119500000D03*
%TD*%
D17*
%TO.P,J2,1,Pin_1_1*%
%TO.N,Net-(J2-Pin_1)*%
X135000000Y-81500000D03*
D18*
%TO.P,J2,2,Pin_2_2*%
%TO.N,Net-(J2-Pin_2)*%
X129920000Y-81500000D03*
%TO.P,J2,3,Pin_3_3*%
%TO.N,+24V*%
X124840000Y-81500000D03*
%TD*%
D17*
%TO.P,J4,1,Pin_1_1*%
%TO.N,Net-(J4-Pin_1)*%
X124840000Y-119500000D03*
D18*
%TO.P,J4,2,Pin_2_2*%
%TO.N,Net-(J4-Pin_2)*%
X129920000Y-119500000D03*
%TO.P,J4,3,Pin_3_3*%
%TO.N,+24V*%
X135000000Y-119500000D03*
%TD*%
D19*
%TO.P,R3,1*%
%TO.N,Net-(J6-Pin_2)*%
X108675000Y-109500000D03*
%TO.P,R3,2*%
%TO.N,Net-(Q5-G)*%
X110500000Y-109500000D03*
%TD*%
D11*
%TO.P,J6,1,Pin_1_1*%
%TO.N,GND*%
X102000000Y-110000000D03*
D12*
%TO.P,J6,2,Pin_2_2*%
%TO.N,Net-(J6-Pin_2)*%
X102000000Y-112500000D03*
%TD*%
D14*
%TO.P,REF\u002A\u002A,1*%
%TO.N,N/C*%
X135000000Y-100500000D03*
D15*
X135000000Y-100500000D03*
%TD*%
D16*
%TO.P,R4,1*%
%TO.N,Net-(Q5-G)*%
X110500000Y-112000000D03*
%TO.P,R4,2*%
%TO.N,GND*%
X108675000Y-112000000D03*
%TD*%
D19*
%TO.P,R1,1*%
%TO.N,Net-(J5-Pin_2)*%
X108675000Y-92000000D03*
%TO.P,R1,2*%
%TO.N,Net-(Q1-G)*%
X110500000Y-92000000D03*
%TD*%
D10*
%TO.P,Q4,1,G_1*%
%TO.N,Net-(Q1-G)*%
X129625000Y-110195000D03*
%TO.P,Q4,2,S_2*%
%TO.N,GND*%
X129625000Y-112095000D03*
%TO.P,Q4,3,D_3*%
%TO.N,Net-(J4-Pin_2)*%
X131500000Y-111145000D03*
%TD*%
D20*
%TO.N,Net-(Q1-G)*%
X126562500Y-92500000D03*
X116437500Y-92500000D03*
X129625000Y-109000000D03*
X119625000Y-109000000D03*
%TD*%
%TO.N,Net-(J5-Pin_2)*%
D21*
X102000000Y-92000000D02*
X108675000Y-92000000D01*
%TO.N,Net-(J1-Pin_1)*%
D22*
X118500000Y-89437500D02*
X119562500Y-90500000D01*
X118500000Y-81500000D02*
X118500000Y-89437500D01*
%TO.N,Net-(J2-Pin_1)*%
X135000000Y-81500000D02*
X135000000Y-84000000D01*
X129625000Y-89375000D02*
X129625000Y-90500000D01*
X135000000Y-84000000D02*
X129625000Y-89375000D01*
%TO.N,Net-(J3-Pin_1)*%
X108340000Y-119500000D02*
X109500000Y-119500000D01*
X109500000Y-119500000D02*
X116500000Y-112500000D01*
X116500000Y-112500000D02*
X116500000Y-111145000D01*
X108340000Y-118380000D02*
X108340000Y-119500000D01*
%TO.N,Net-(J4-Pin_1)*%
X126500000Y-117840000D02*
X126500000Y-111145000D01*
X124625000Y-119285000D02*
X124840000Y-119500000D01*
X124840000Y-119500000D02*
X126500000Y-117840000D01*
%TO.N,Net-(J1-Pin_2)*%
X113420000Y-81500000D02*
X113420000Y-89357500D01*
X113420000Y-89357500D02*
X114562500Y-90500000D01*
%TO.N,Net-(J2-Pin_2)*%
X124687500Y-89288303D02*
X124687500Y-90500000D01*
X129920000Y-84055803D02*
X124687500Y-89288303D01*
X129920000Y-81500000D02*
X129920000Y-84055803D01*
%TO.N,Net-(J3-Pin_2)*%
X113420000Y-118300000D02*
X113420000Y-119500000D01*
X114500000Y-119500000D02*
X121500000Y-112500000D01*
X113420000Y-119500000D02*
X114500000Y-119500000D01*
X121500000Y-112500000D02*
X121500000Y-111145000D01*
%TO.N,Net-(J4-Pin_2)*%
X129920000Y-119500000D02*
X131500000Y-117920000D01*
X129625000Y-119205000D02*
X129920000Y-119500000D01*
X131500000Y-117920000D02*
X131500000Y-111145000D01*
%TO.N,Net-(J6-Pin_2)*%
D23*
X102000000Y-112500000D02*
X102500000Y-112500000D01*
D21*
X102500000Y-112500000D02*
X105500000Y-109500000D01*
X105500000Y-109500000D02*
X108675000Y-109500000D01*
%TO.N,Net-(Q1-G)*%
X119625000Y-110195000D02*
X119625000Y-109000000D01*
X129625000Y-110195000D02*
X129625000Y-109000000D01*
X110500000Y-92000000D02*
X115887500Y-92000000D01*
X110500000Y-92000000D02*
X110500000Y-89500000D01*
X126562500Y-91450000D02*
X126562500Y-92500000D01*
D23*
X110500000Y-89500000D02*
X110551000Y-89449000D01*
D21*
X115887500Y-92000000D02*
X116437500Y-91450000D01*
X116437500Y-91450000D02*
X116437500Y-92500000D01*
%TO.N,Net-(Q5-G)*%
X110500000Y-110000000D02*
X110500000Y-112500000D01*
X124625000Y-110195000D02*
X124625000Y-100195000D01*
X121410000Y-103410000D02*
X124660000Y-100160000D01*
X131500000Y-93320000D02*
X131500000Y-91450000D01*
D23*
X121375000Y-103375000D02*
X121410000Y-103410000D01*
D21*
X121410000Y-103410000D02*
X114625000Y-110195000D01*
X113930000Y-109500000D02*
X114625000Y-110195000D01*
X110500000Y-109500000D02*
X113930000Y-109500000D01*
D23*
X124625000Y-100195000D02*
X124660000Y-100160000D01*
D21*
X121437500Y-103312500D02*
X121437500Y-91450000D01*
X121375000Y-103375000D02*
X121437500Y-103312500D01*
X124660000Y-100160000D02*
X131500000Y-93320000D01*
%TD*%
%TA.AperFunction,Conductor*%
%TO.N,GND*%
G36*
X137004418Y-77500816D02*
G01*
X137204561Y-77515130D01*
X137222063Y-77517647D01*
X137413795Y-77559355D01*
X137430760Y-77564336D01*
X137614611Y-77632909D01*
X137630694Y-77640253D01*
X137747495Y-77704032D01*
X137802908Y-77734290D01*
X137817791Y-77743855D01*
X137974864Y-77861438D01*
X137988235Y-77873024D01*
X138126975Y-78011764D01*
X138138561Y-78025135D01*
X138256144Y-78182208D01*
X138265709Y-78197091D01*
X138359743Y-78369300D01*
X138367093Y-78385394D01*
X138435661Y-78569234D01*
X138440645Y-78586209D01*
X138482351Y-78777931D01*
X138484869Y-78795442D01*
X138499184Y-78995580D01*
X138499500Y-79004427D01*
X138499500Y-99916378D01*
X138479815Y-99983417D01*
X138427011Y-100029172D01*
X138357853Y-100039116D01*
X138294297Y-100010091D01*
X138256523Y-99951313D01*
X138253883Y-99940569D01*
X138205454Y-99697097D01*
X138205451Y-99697086D01*
X138205450Y-99697083D01*
X138205449Y-99697077D01*
X138111314Y-99386754D01*
X137987215Y-99087153D01*
X137834347Y-98801158D01*
X137654183Y-98531524D01*
X137448458Y-98280847D01*
X137448457Y-98280846D01*
X137448453Y-98280841D01*
X137219158Y-98051546D01*
X136968481Y-97845821D01*
X136968480Y-97845820D01*
X136968476Y-97845817D01*
X136698842Y-97665653D01*
X136698837Y-97665650D01*
X136698830Y-97665646D01*
X136412854Y-97512788D01*
X136412849Y-97512786D01*
X136113247Y-97388686D01*
X135802913Y-97294548D01*
X135802902Y-97294545D01*
X135484874Y-97231287D01*
X135484857Y-97231284D01*
X135240812Y-97207248D01*
X135162143Y-97199500D01*
X134837857Y-97199500D01*
X134765099Y-97206666D01*
X134515142Y-97231284D01*
X134515125Y-97231287D01*
X134197097Y-97294545D01*
X134197086Y-97294548D01*
X133886752Y-97388686D01*
X133587150Y-97512786D01*
X133587145Y-97512788D01*
X133301169Y-97665646D01*
X133301151Y-97665657D01*
X133031532Y-97845811D01*
X133031518Y-97845821D01*
X132780841Y-98051546D01*
X132551546Y-98280841D01*
X132345821Y-98531518D01*
X132345811Y-98531532D01*
X132165657Y-98801151D01*
X132165646Y-98801169D01*
X132012788Y-99087145D01*
X132012786Y-99087150D01*
X131888686Y-99386752D01*
X131794548Y-99697086D01*
X131794545Y-99697097D01*
X131731287Y-100015125D01*
X131731284Y-100015142D01*
X131699500Y-100337860D01*
X131699500Y-100662139D01*
X131731284Y-100984857D01*
X131731287Y-100984874D01*
X131794545Y-101302902D01*
X131794548Y-101302913D01*
X131888686Y-101613247D01*
X132012786Y-101912849D01*
X132012788Y-101912854D01*
X132165646Y-102198830D01*
X132165657Y-102198848D01*
X132345811Y-102468467D01*
X132345821Y-102468481D01*
X132551546Y-102719158D01*
X132780841Y-102948453D01*
X132780846Y-102948457D01*
X132780847Y-102948458D01*
X133031524Y-103154183D01*
X133301158Y-103334347D01*
X133301167Y-103334352D01*
X133301169Y-103334353D01*
X133587145Y-103487211D01*
X133587147Y-103487211D01*
X133587153Y-103487215D01*
X133886754Y-103611314D01*
X134197077Y-103705449D01*
X134197083Y-103705450D01*
X134197086Y-103705451D01*
X134197097Y-103705454D01*
X134396528Y-103745122D01*
X134515132Y-103768714D01*
X134837857Y-103800500D01*
X134837860Y-103800500D01*
X135162140Y-103800500D01*
X135162143Y-103800500D01*
X135484868Y-103768714D01*
X135642295Y-103737399D01*
X135802902Y-103705454D01*
X135802913Y-103705451D01*
X135802913Y-103705450D01*
X135802923Y-103705449D01*
X136113246Y-103611314D01*
X136412847Y-103487215D01*
X136698842Y-103334347D01*
X136968476Y-103154183D01*
X137219153Y-102948458D01*
X137448458Y-102719153D01*
X137654183Y-102468476D01*
X137834347Y-102198842D01*
X137987215Y-101912847D01*
X138111314Y-101613246D01*
X138205449Y-101302923D01*
X138205451Y-101302913D01*
X138205454Y-101302902D01*
X138253883Y-101059430D01*
X138286267Y-100997519D01*
X138346983Y-100962945D01*
X138416753Y-100966684D01*
X138473425Y-101007550D01*
X138499006Y-101072568D01*
X138499500Y-101083621D01*
X138499500Y-121995572D01*
X138499184Y-122004419D01*
X138484869Y-122204557D01*
X138482351Y-122222068D01*
X138440645Y-122413790D01*
X138435661Y-122430765D01*
X138367093Y-122614605D01*
X138359743Y-122630699D01*
X138265709Y-122802908D01*
X138256144Y-122817791D01*
X138138561Y-122974864D01*
X138126975Y-122988235D01*
X137988235Y-123126975D01*
X137974864Y-123138561D01*
X137817791Y-123256144D01*
X137802908Y-123265709D01*
X137630699Y-123359743D01*
X137614605Y-123367093D01*
X137430765Y-123435661D01*
X137413790Y-123440645D01*
X137222068Y-123482351D01*
X137204557Y-123484869D01*
X137023779Y-123497799D01*
X137004417Y-123499184D01*
X136995572Y-123499500D01*
X103360446Y-123499500D01*
X103293407Y-123479815D01*
X103247652Y-123427011D01*
X103237708Y-123357853D01*
X103266733Y-123294297D01*
X103291555Y-123272398D01*
X103315881Y-123256144D01*
X103468476Y-123154183D01*
X103719153Y-122948458D01*
X103948458Y-122719153D01*
X104154183Y-122468476D01*
X104334347Y-122198842D01*
X104487215Y-121912847D01*
X104611314Y-121613246D01*
X104705449Y-121302923D01*
X104705451Y-121302913D01*
X104705454Y-121302902D01*
X104744324Y-121107483D01*
X104768714Y-120984868D01*
X104800500Y-120662143D01*
X104800500Y-120337857D01*
X104768714Y-120015132D01*
X104734463Y-119842939D01*
X104705454Y-119697097D01*
X104705451Y-119697086D01*
X104705450Y-119697083D01*
X104705449Y-119697077D01*
X104611314Y-119386754D01*
X104487215Y-119087153D01*
X104364987Y-118858482D01*
X104334353Y-118801169D01*
X104334352Y-118801167D01*
X104334347Y-118801158D01*
X104154183Y-118531524D01*
X103948458Y-118280847D01*
X103948457Y-118280846D01*
X103948453Y-118280841D01*
X103719158Y-118051546D01*
X103468481Y-117845821D01*
X103468480Y-117845820D01*
X103468476Y-117845817D01*
X103198842Y-117665653D01*
X103198837Y-117665650D01*
X103198830Y-117665646D01*
X102912854Y-117512788D01*
X102912849Y-117512786D01*
X102880776Y-117499501D01*
X102801079Y-117466489D01*
X102613247Y-117388686D01*
X102302913Y-117294548D01*
X102302902Y-117294545D01*
X101984874Y-117231287D01*
X101984857Y-117231284D01*
X101740812Y-117207248D01*
X101662143Y-117199500D01*
X101337857Y-117199500D01*
X101265099Y-117206666D01*
X101015142Y-117231284D01*
X101015125Y-117231287D01*
X100697097Y-117294545D01*
X100697086Y-117294548D01*
X100386752Y-117388686D01*
X100087150Y-117512786D01*
X100087145Y-117512788D01*
X99801169Y-117665646D01*
X99801151Y-117665657D01*
X99531532Y-117845811D01*
X99531518Y-117845821D01*
X99280841Y-118051546D01*
X99051546Y-118280841D01*
X98845821Y-118531518D01*
X98845811Y-118531532D01*
X98665657Y-118801151D01*
X98665646Y-118801169D01*
X98512788Y-119087145D01*
X98512786Y-119087150D01*
X98388686Y-119386752D01*
X98294548Y-119697086D01*
X98294545Y-119697097D01*
X98246117Y-119940569D01*
X98213732Y-120002480D01*
X98153017Y-120037054D01*
X98083247Y-120033315D01*
X98026575Y-119992449D01*
X98000994Y-119927431D01*
X98000500Y-119916378D01*
X98000500Y-112393713D01*
X100499500Y-112393713D01*
X100499500Y-112606287D01*
X100532754Y-112816243D01*
X100595803Y-113010288D01*
X100598444Y-113018414D01*
X100694951Y-113207820D01*
X100819890Y-113379786D01*
X100970213Y-113530109D01*
X101142179Y-113655048D01*
X101142181Y-113655049D01*
X101142184Y-113655051D01*
X101331588Y-113751557D01*
X101533757Y-113817246D01*
X101743713Y-113850500D01*
X101743714Y-113850500D01*
X102256286Y-113850500D01*
X102256287Y-113850500D01*
X102466243Y-113817246D01*
X102668412Y-113751557D01*
X102857816Y-113655051D01*
X102879789Y-113639086D01*
X103029786Y-113530109D01*
X103029788Y-113530106D01*
X103029792Y-113530104D01*
X103180104Y-113379792D01*
X103180106Y-113379788D01*
X103180109Y-113379786D01*
X103305048Y-113207820D01*
X103305047Y-113207820D01*
X103305051Y-113207816D01*
X103401557Y-113018412D01*
X103467246Y-112816243D01*
X103500500Y-112606287D01*
X103500500Y-112470808D01*
X103520185Y-112403769D01*
X103536819Y-112383127D01*
X103633292Y-112286654D01*
X107687501Y-112286654D01*
X107697819Y-112387652D01*
X107752046Y-112551300D01*
X107752051Y-112551311D01*
X107842552Y-112698034D01*
X107842555Y-112698038D01*
X107964461Y-112819944D01*
X107964465Y-112819947D01*
X108111188Y-112910448D01*
X108111199Y-112910453D01*
X108274847Y-112964680D01*
X108375851Y-112974999D01*
X108424999Y-112974998D01*
X108425000Y-112974998D01*
X108425000Y-112250000D01*
X107687501Y-112250000D01*
X107687501Y-112286654D01*
X103633292Y-112286654D01*
X104206601Y-111713345D01*
X107687500Y-111713345D01*
X107687500Y-111750000D01*
X108425000Y-111750000D01*
X108425000Y-111025000D01*
X108424999Y-111024999D01*
X108375861Y-111025000D01*
X108375843Y-111025001D01*
X108274847Y-111035319D01*
X108111199Y-111089546D01*
X108111188Y-111089551D01*
X107964465Y-111180052D01*
X107964461Y-111180055D01*
X107842555Y-111301961D01*
X107842552Y-111301965D01*
X107752051Y-111448688D01*
X107752046Y-111448699D01*
X107697819Y-111612347D01*
X107687500Y-111713345D01*
X104206601Y-111713345D01*
X105733127Y-110186819D01*
X105794450Y-110153334D01*
X105820808Y-110150500D01*
X107744292Y-110150500D01*
X107811331Y-110170185D01*
X107836915Y-110193380D01*
X107837053Y-110193243D01*
X107839852Y-110196042D01*
X107841555Y-110197586D01*
X107842155Y-110198345D01*
X107842160Y-110198350D01*
X107964150Y-110320340D01*
X108110984Y-110410908D01*
X108274747Y-110465174D01*
X108375823Y-110475500D01*
X108974176Y-110475499D01*
X108974184Y-110475498D01*
X108974187Y-110475498D01*
X109029530Y-110469844D01*
X109075253Y-110465174D01*
X109239016Y-110410908D01*
X109385850Y-110320340D01*
X109499819Y-110206371D01*
X109561142Y-110172886D01*
X109630834Y-110177870D01*
X109675181Y-110206371D01*
X109789150Y-110320340D01*
X109790598Y-110321233D01*
X109791382Y-110322104D01*
X109794817Y-110324821D01*
X109794352Y-110325407D01*
X109837321Y-110373180D01*
X109849500Y-110426771D01*
X109849500Y-111073228D01*
X109829815Y-111140267D01*
X109794569Y-111174867D01*
X109794816Y-111175179D01*
X109791915Y-111177472D01*
X109790600Y-111178764D01*
X109789154Y-111179655D01*
X109789148Y-111179660D01*
X109674827Y-111293982D01*
X109613504Y-111327467D01*
X109543812Y-111322483D01*
X109499465Y-111293982D01*
X109385538Y-111180055D01*
X109385534Y-111180052D01*
X109238811Y-111089551D01*
X109238800Y-111089546D01*
X109075152Y-111035319D01*
X108974154Y-111025000D01*
X108925000Y-111025000D01*
X108925000Y-112974999D01*
X108974140Y-112974999D01*
X108974154Y-112974998D01*
X109075152Y-112964680D01*
X109238800Y-112910453D01*
X109238811Y-112910448D01*
X109385533Y-112819948D01*
X109499464Y-112706017D01*
X109560787Y-112672532D01*
X109630479Y-112677516D01*
X109674827Y-112706017D01*
X109789150Y-112820340D01*
X109935984Y-112910908D01*
X109990313Y-112928911D01*
X110038991Y-112958936D01*
X110085327Y-113005273D01*
X110085331Y-113005276D01*
X110191866Y-113076461D01*
X110191872Y-113076464D01*
X110191873Y-113076465D01*
X110310256Y-113125501D01*
X110310260Y-113125501D01*
X110310261Y-113125502D01*
X110435928Y-113150500D01*
X110435931Y-113150500D01*
X110564071Y-113150500D01*
X110648615Y-113133682D01*
X110689744Y-113125501D01*
X110808127Y-113076465D01*
X110914669Y-113005276D01*
X110961008Y-112958935D01*
X111009684Y-112928911D01*
X111064016Y-112910908D01*
X111210850Y-112820340D01*
X111332840Y-112698350D01*
X111423408Y-112551516D01*
X111477674Y-112387753D01*
X111482042Y-112345001D01*
X113390204Y-112345001D01*
X113390399Y-112347486D01*
X113436218Y-112505198D01*
X113519814Y-112646552D01*
X113519821Y-112646561D01*
X113635938Y-112762678D01*
X113635947Y-112762685D01*
X113777303Y-112846282D01*
X113777306Y-112846283D01*
X113935004Y-112892099D01*
X113935010Y-112892100D01*
X113971850Y-112894999D01*
X113971866Y-112895000D01*
X114375000Y-112895000D01*
X114375000Y-112345000D01*
X113390205Y-112345000D01*
X113390204Y-112345001D01*
X111482042Y-112345001D01*
X111482042Y-112345000D01*
X111487860Y-112288053D01*
X111487860Y-112288051D01*
X111487998Y-112286697D01*
X111487998Y-112286696D01*
X111488000Y-112286677D01*
X111487999Y-111844998D01*
X113390204Y-111844998D01*
X113390205Y-111845000D01*
X114375000Y-111845000D01*
X114375000Y-111295000D01*
X113971850Y-111295000D01*
X113935010Y-111297899D01*
X113935004Y-111297900D01*
X113777306Y-111343716D01*
X113777303Y-111343717D01*
X113635947Y-111427314D01*
X113635938Y-111427321D01*
X113519821Y-111543438D01*
X113519814Y-111543447D01*
X113436218Y-111684801D01*
X113390399Y-111842513D01*
X113390204Y-111844998D01*
X111487999Y-111844998D01*
X111487999Y-111713324D01*
X111486317Y-111696862D01*
X111477674Y-111612247D01*
X111458834Y-111555393D01*
X111423408Y-111448484D01*
X111332840Y-111301650D01*
X111210850Y-111179660D01*
X111210849Y-111179659D01*
X111210846Y-111179656D01*
X111210845Y-111179655D01*
X111209400Y-111178764D01*
X111208617Y-111177893D01*
X111205184Y-111175179D01*
X111205647Y-111174592D01*
X111162677Y-111126815D01*
X111150500Y-111073228D01*
X111150500Y-110426771D01*
X111170185Y-110359732D01*
X111205429Y-110325132D01*
X111205183Y-110324821D01*
X111208082Y-110322528D01*
X111209401Y-110321233D01*
X111210850Y-110320340D01*
X111332840Y-110198350D01*
X111332841Y-110198347D01*
X111332844Y-110198345D01*
X111333445Y-110197586D01*
X111333989Y-110197200D01*
X111337947Y-110193243D01*
X111338623Y-110193919D01*
X111390468Y-110157211D01*
X111430708Y-110150500D01*
X113263000Y-110150500D01*
X113330039Y-110170185D01*
X113375794Y-110222989D01*
X113387000Y-110274500D01*
X113387000Y-110410701D01*
X113389901Y-110447567D01*
X113389902Y-110447573D01*
X113435754Y-110605393D01*
X113435755Y-110605396D01*
X113519417Y-110746862D01*
X113519423Y-110746870D01*
X113635629Y-110863076D01*
X113635633Y-110863079D01*
X113635635Y-110863081D01*
X113777102Y-110946744D01*
X113818724Y-110958836D01*
X113934926Y-110992597D01*
X113934929Y-110992597D01*
X113934931Y-110992598D01*
X113971806Y-110995500D01*
X115138000Y-110995500D01*
X115205039Y-111015185D01*
X115250794Y-111067989D01*
X115262000Y-111119500D01*
X115262000Y-111171000D01*
X115242315Y-111238039D01*
X115189511Y-111283794D01*
X115138000Y-111295000D01*
X114875000Y-111295000D01*
X114875000Y-112941559D01*
X114855315Y-113008598D01*
X114838681Y-113029240D01*
X110289490Y-117578430D01*
X110228167Y-117611915D01*
X110158475Y-117606931D01*
X110127498Y-117590016D01*
X110102821Y-117571543D01*
X110082331Y-117556204D01*
X110082329Y-117556203D01*
X110082328Y-117556202D01*
X109947482Y-117505908D01*
X109947483Y-117505908D01*
X109887883Y-117499501D01*
X109887881Y-117499500D01*
X109887873Y-117499500D01*
X109887864Y-117499500D01*
X106792129Y-117499500D01*
X106792123Y-117499501D01*
X106732516Y-117505908D01*
X106597671Y-117556202D01*
X106597664Y-117556206D01*
X106482455Y-117642452D01*
X106482452Y-117642455D01*
X106396206Y-117757664D01*
X106396202Y-117757671D01*
X106345908Y-117892517D01*
X106339501Y-117952116D01*
X106339500Y-117952135D01*
X106339500Y-121047870D01*
X106339501Y-121047876D01*
X106345908Y-121107483D01*
X106396202Y-121242328D01*
X106396206Y-121242335D01*
X106482452Y-121357544D01*
X106482455Y-121357547D01*
X106597664Y-121443793D01*
X106597671Y-121443797D01*
X106732517Y-121494091D01*
X106732516Y-121494091D01*
X106739444Y-121494835D01*
X106792127Y-121500500D01*
X109887872Y-121500499D01*
X109947483Y-121494091D01*
X110082331Y-121443796D01*
X110197546Y-121357546D01*
X110283796Y-121242331D01*
X110334091Y-121107483D01*
X110340500Y-121047873D01*
X110340499Y-119842938D01*
X110360184Y-119775900D01*
X110376813Y-119755263D01*
X111284089Y-118847987D01*
X111345410Y-118814504D01*
X111415102Y-118819488D01*
X111471035Y-118861360D01*
X111495452Y-118926824D01*
X111491543Y-118967763D01*
X111453730Y-119108884D01*
X111419500Y-119368872D01*
X111419500Y-119631127D01*
X111435843Y-119755258D01*
X111453730Y-119891116D01*
X111453731Y-119891118D01*
X111521602Y-120144418D01*
X111521605Y-120144428D01*
X111621953Y-120386690D01*
X111621958Y-120386700D01*
X111753075Y-120613803D01*
X111912718Y-120821851D01*
X111912726Y-120821860D01*
X112098140Y-121007274D01*
X112098148Y-121007281D01*
X112306196Y-121166924D01*
X112533299Y-121298041D01*
X112533309Y-121298046D01*
X112775571Y-121398394D01*
X112775581Y-121398398D01*
X113028884Y-121466270D01*
X113277188Y-121498960D01*
X113288864Y-121500498D01*
X113288880Y-121500500D01*
X113288887Y-121500500D01*
X113551113Y-121500500D01*
X113551120Y-121500500D01*
X113811116Y-121466270D01*
X114064419Y-121398398D01*
X114294940Y-121302913D01*
X114306690Y-121298046D01*
X114306691Y-121298045D01*
X114306697Y-121298043D01*
X114533803Y-121166924D01*
X114741851Y-121007282D01*
X114741855Y-121007277D01*
X114741860Y-121007274D01*
X114927274Y-120821860D01*
X114927277Y-120821855D01*
X114927282Y-120821851D01*
X115086924Y-120613803D01*
X115218043Y-120386697D01*
X115318398Y-120144419D01*
X115386270Y-119891116D01*
X115402807Y-119765505D01*
X115431072Y-119701612D01*
X115438052Y-119694024D01*
X116393370Y-118738706D01*
X116454691Y-118705223D01*
X116524383Y-118710207D01*
X116580316Y-118752079D01*
X116604733Y-118817543D01*
X116600824Y-118858482D01*
X116533730Y-119108884D01*
X116499500Y-119368872D01*
X116499500Y-119631127D01*
X116515843Y-119755258D01*
X116533730Y-119891116D01*
X116533731Y-119891118D01*
X116601602Y-120144418D01*
X116601605Y-120144428D01*
X116701953Y-120386690D01*
X116701958Y-120386700D01*
X116833075Y-120613803D01*
X116992718Y-120821851D01*
X116992726Y-120821860D01*
X117178140Y-121007274D01*
X117178148Y-121007281D01*
X117386196Y-121166924D01*
X117613299Y-121298041D01*
X117613309Y-121298046D01*
X117855571Y-121398394D01*
X117855581Y-121398398D01*
X118108884Y-121466270D01*
X118357188Y-121498960D01*
X118368864Y-121500498D01*
X118368880Y-121500500D01*
X118368887Y-121500500D01*
X118631113Y-121500500D01*
X118631120Y-121500500D01*
X118891116Y-121466270D01*
X119144419Y-121398398D01*
X119374940Y-121302913D01*
X119386690Y-121298046D01*
X119386691Y-121298045D01*
X119386697Y-121298043D01*
X119613803Y-121166924D01*
X119821851Y-121007282D01*
X119821855Y-121007277D01*
X119821860Y-121007274D01*
X120007274Y-120821860D01*
X120007277Y-120821855D01*
X120007282Y-120821851D01*
X120166924Y-120613803D01*
X120298043Y-120386697D01*
X120398398Y-120144419D01*
X120466270Y-119891116D01*
X120500500Y-119631120D01*
X120500500Y-119368880D01*
X120466270Y-119108884D01*
X120398398Y-118855581D01*
X120382642Y-118817543D01*
X120298046Y-118613309D01*
X120298041Y-118613299D01*
X120166924Y-118386196D01*
X120007281Y-118178148D01*
X120007274Y-118178140D01*
X119821860Y-117992726D01*
X119821851Y-117992718D01*
X119613803Y-117833075D01*
X119386700Y-117701958D01*
X119386690Y-117701953D01*
X119144428Y-117601605D01*
X119144421Y-117601603D01*
X119144419Y-117601602D01*
X118891116Y-117533730D01*
X118833339Y-117526123D01*
X118631127Y-117499500D01*
X118631120Y-117499500D01*
X118368880Y-117499500D01*
X118368872Y-117499500D01*
X118108884Y-117533730D01*
X117858482Y-117600824D01*
X117788632Y-117599161D01*
X117730770Y-117559998D01*
X117703266Y-117495770D01*
X117714853Y-117426867D01*
X117738704Y-117393372D01*
X122121789Y-113010289D01*
X122209394Y-112879179D01*
X122269737Y-112733497D01*
X122300500Y-112578842D01*
X122300500Y-112421158D01*
X122300500Y-112345001D01*
X123390204Y-112345001D01*
X123390399Y-112347486D01*
X123436218Y-112505198D01*
X123519814Y-112646552D01*
X123519821Y-112646561D01*
X123635938Y-112762678D01*
X123635947Y-112762685D01*
X123777303Y-112846282D01*
X123777306Y-112846283D01*
X123935004Y-112892099D01*
X123935010Y-112892100D01*
X123971850Y-112894999D01*
X123971866Y-112895000D01*
X124375000Y-112895000D01*
X124375000Y-112345000D01*
X123390205Y-112345000D01*
X123390204Y-112345001D01*
X122300500Y-112345001D01*
X122300500Y-111995503D01*
X122302991Y-111987019D01*
X122301703Y-111978271D01*
X122312683Y-111954009D01*
X122320185Y-111928464D01*
X122327625Y-111920998D01*
X122330513Y-111914618D01*
X122351491Y-111897051D01*
X122357108Y-111891415D01*
X122359208Y-111890054D01*
X122435395Y-111844998D01*
X123390204Y-111844998D01*
X123390205Y-111845000D01*
X124375000Y-111845000D01*
X124375000Y-111295000D01*
X123971850Y-111295000D01*
X123935010Y-111297899D01*
X123935004Y-111297900D01*
X123777306Y-111343716D01*
X123777303Y-111343717D01*
X123635947Y-111427314D01*
X123635938Y-111427321D01*
X123519821Y-111543438D01*
X123519814Y-111543447D01*
X123436218Y-111684801D01*
X123390399Y-111842513D01*
X123390204Y-111844998D01*
X122435395Y-111844998D01*
X122489365Y-111813081D01*
X122605581Y-111696865D01*
X122689244Y-111555398D01*
X122735098Y-111397569D01*
X122738000Y-111360694D01*
X122738000Y-110929306D01*
X122735098Y-110892431D01*
X122726571Y-110863082D01*
X122689245Y-110734606D01*
X122689244Y-110734603D01*
X122689244Y-110734602D01*
X122605581Y-110593135D01*
X122605579Y-110593133D01*
X122605576Y-110593129D01*
X122489370Y-110476923D01*
X122489362Y-110476917D01*
X122377744Y-110410907D01*
X122347898Y-110393256D01*
X122347897Y-110393255D01*
X122347896Y-110393255D01*
X122347893Y-110393254D01*
X122190073Y-110347402D01*
X122190067Y-110347401D01*
X122153201Y-110344500D01*
X122153194Y-110344500D01*
X120987000Y-110344500D01*
X120919961Y-110324815D01*
X120874206Y-110272011D01*
X120863000Y-110220500D01*
X120863000Y-109979313D01*
X120862999Y-109979305D01*
X120860098Y-109942431D01*
X120859799Y-109941403D01*
X120814245Y-109784606D01*
X120814244Y-109784603D01*
X120814244Y-109784602D01*
X120730581Y-109643135D01*
X120730579Y-109643133D01*
X120730576Y-109643129D01*
X120614370Y-109526923D01*
X120614362Y-109526917D01*
X120568847Y-109500000D01*
X120472898Y-109443256D01*
X120458526Y-109439080D01*
X120399641Y-109401474D01*
X120370434Y-109338002D01*
X120378560Y-109272551D01*
X120394737Y-109233497D01*
X120425500Y-109078842D01*
X120425500Y-108921158D01*
X120425500Y-108921155D01*
X120425499Y-108921153D01*
X120409911Y-108842789D01*
X120394737Y-108766503D01*
X120373670Y-108715643D01*
X120334397Y-108620827D01*
X120334390Y-108620814D01*
X120246789Y-108489711D01*
X120246786Y-108489707D01*
X120135292Y-108378213D01*
X120135288Y-108378210D01*
X120004185Y-108290609D01*
X120004172Y-108290602D01*
X119858501Y-108230264D01*
X119858489Y-108230261D01*
X119703845Y-108199500D01*
X119703842Y-108199500D01*
X119546158Y-108199500D01*
X119546155Y-108199500D01*
X119391510Y-108230261D01*
X119391498Y-108230264D01*
X119245827Y-108290602D01*
X119245814Y-108290609D01*
X119114711Y-108378210D01*
X119114707Y-108378213D01*
X119003213Y-108489707D01*
X119003210Y-108489711D01*
X118915609Y-108620814D01*
X118915602Y-108620827D01*
X118855264Y-108766498D01*
X118855261Y-108766510D01*
X118824500Y-108921153D01*
X118824500Y-109078846D01*
X118855261Y-109233489D01*
X118855264Y-109233501D01*
X118871439Y-109272551D01*
X118878908Y-109342021D01*
X118847632Y-109404500D01*
X118791479Y-109439078D01*
X118777104Y-109443255D01*
X118777103Y-109443255D01*
X118635637Y-109526917D01*
X118635629Y-109526923D01*
X118519423Y-109643129D01*
X118519417Y-109643137D01*
X118435755Y-109784603D01*
X118435754Y-109784606D01*
X118389902Y-109942426D01*
X118389901Y-109942432D01*
X118387000Y-109979298D01*
X118387000Y-110410701D01*
X118389901Y-110447567D01*
X118389902Y-110447573D01*
X118435754Y-110605393D01*
X118435755Y-110605396D01*
X118519417Y-110746862D01*
X118519423Y-110746870D01*
X118635629Y-110863076D01*
X118635633Y-110863079D01*
X118635635Y-110863081D01*
X118777102Y-110946744D01*
X118818724Y-110958836D01*
X118934926Y-110992597D01*
X118934929Y-110992597D01*
X118934931Y-110992598D01*
X118971806Y-110995500D01*
X120138000Y-110995500D01*
X120205039Y-111015185D01*
X120250794Y-111067989D01*
X120262000Y-111119500D01*
X120262000Y-111171000D01*
X120242315Y-111238039D01*
X120189511Y-111283794D01*
X120138000Y-111295000D01*
X119875000Y-111295000D01*
X119875000Y-112941559D01*
X119855315Y-113008598D01*
X119838681Y-113029240D01*
X114894199Y-117973721D01*
X114832876Y-118007206D01*
X114763184Y-118002222D01*
X114731033Y-117984417D01*
X114564726Y-117856804D01*
X114533798Y-117833072D01*
X114306700Y-117701958D01*
X114306690Y-117701953D01*
X114064428Y-117601605D01*
X114064421Y-117601603D01*
X114064419Y-117601602D01*
X113811116Y-117533730D01*
X113753339Y-117526123D01*
X113551127Y-117499500D01*
X113551120Y-117499500D01*
X113288880Y-117499500D01*
X113288872Y-117499500D01*
X113057772Y-117529926D01*
X113028884Y-117533730D01*
X112887763Y-117571542D01*
X112817914Y-117569880D01*
X112760052Y-117530717D01*
X112732548Y-117466489D01*
X112744135Y-117397587D01*
X112767990Y-117364087D01*
X117121786Y-113010292D01*
X117121786Y-113010291D01*
X117121789Y-113010289D01*
X117209394Y-112879179D01*
X117269737Y-112733497D01*
X117300500Y-112578842D01*
X117300500Y-112421158D01*
X117300500Y-112345001D01*
X118390204Y-112345001D01*
X118390399Y-112347486D01*
X118436218Y-112505198D01*
X118519814Y-112646552D01*
X118519821Y-112646561D01*
X118635938Y-112762678D01*
X118635947Y-112762685D01*
X118777303Y-112846282D01*
X118777306Y-112846283D01*
X118935004Y-112892099D01*
X118935010Y-112892100D01*
X118971850Y-112894999D01*
X118971866Y-112895000D01*
X119375000Y-112895000D01*
X119375000Y-112345000D01*
X118390205Y-112345000D01*
X118390204Y-112345001D01*
X117300500Y-112345001D01*
X117300500Y-111995503D01*
X117302991Y-111987019D01*
X117301703Y-111978271D01*
X117312683Y-111954009D01*
X117320185Y-111928464D01*
X117327625Y-111920998D01*
X117330513Y-111914618D01*
X117351491Y-111897051D01*
X117357108Y-111891415D01*
X117359208Y-111890054D01*
X117435395Y-111844998D01*
X118390204Y-111844998D01*
X118390205Y-111845000D01*
X119375000Y-111845000D01*
X119375000Y-111295000D01*
X118971850Y-111295000D01*
X118935010Y-111297899D01*
X118935004Y-111297900D01*
X118777306Y-111343716D01*
X118777303Y-111343717D01*
X118635947Y-111427314D01*
X118635938Y-111427321D01*
X118519821Y-111543438D01*
X118519814Y-111543447D01*
X118436218Y-111684801D01*
X118390399Y-111842513D01*
X118390204Y-111844998D01*
X117435395Y-111844998D01*
X117489365Y-111813081D01*
X117605581Y-111696865D01*
X117689244Y-111555398D01*
X117735098Y-111397569D01*
X117738000Y-111360694D01*
X117738000Y-110929306D01*
X117735098Y-110892431D01*
X117726571Y-110863082D01*
X117689245Y-110734606D01*
X117689244Y-110734603D01*
X117689244Y-110734602D01*
X117605581Y-110593135D01*
X117605579Y-110593133D01*
X117605576Y-110593129D01*
X117489370Y-110476923D01*
X117489362Y-110476917D01*
X117377744Y-110410907D01*
X117347898Y-110393256D01*
X117347897Y-110393255D01*
X117347896Y-110393255D01*
X117347893Y-110393254D01*
X117190073Y-110347402D01*
X117190067Y-110347401D01*
X117153201Y-110344500D01*
X117153194Y-110344500D01*
X115987000Y-110344500D01*
X115919961Y-110324815D01*
X115874206Y-110272011D01*
X115863000Y-110220500D01*
X115863000Y-109979313D01*
X115863000Y-109979306D01*
X115860098Y-109942431D01*
X115860096Y-109942425D01*
X115860016Y-109941403D01*
X115874379Y-109873026D01*
X115895950Y-109843994D01*
X121915277Y-103824669D01*
X123762819Y-101977127D01*
X123824142Y-101943642D01*
X123893834Y-101948626D01*
X123949767Y-101990498D01*
X123974184Y-102055962D01*
X123974500Y-102064808D01*
X123974500Y-109292804D01*
X123954815Y-109359843D01*
X123902011Y-109405598D01*
X123885095Y-109411880D01*
X123777106Y-109443253D01*
X123777103Y-109443255D01*
X123635637Y-109526917D01*
X123635629Y-109526923D01*
X123519423Y-109643129D01*
X123519417Y-109643137D01*
X123435755Y-109784603D01*
X123435754Y-109784606D01*
X123389902Y-109942426D01*
X123389901Y-109942432D01*
X123387000Y-109979298D01*
X123387000Y-110410701D01*
X123389901Y-110447567D01*
X123389902Y-110447573D01*
X123435754Y-110605393D01*
X123435755Y-110605396D01*
X123519417Y-110746862D01*
X123519423Y-110746870D01*
X123635629Y-110863076D01*
X123635633Y-110863079D01*
X123635635Y-110863081D01*
X123777102Y-110946744D01*
X123818724Y-110958836D01*
X123934926Y-110992597D01*
X123934929Y-110992597D01*
X123934931Y-110992598D01*
X123971806Y-110995500D01*
X125138000Y-110995500D01*
X125205039Y-111015185D01*
X125250794Y-111067989D01*
X125262000Y-111119500D01*
X125262000Y-111171000D01*
X125242315Y-111238039D01*
X125189511Y-111283794D01*
X125138000Y-111295000D01*
X124875000Y-111295000D01*
X124875000Y-112895000D01*
X125278134Y-112895000D01*
X125278149Y-112894999D01*
X125314989Y-112892100D01*
X125314995Y-112892099D01*
X125472692Y-112846284D01*
X125512378Y-112822814D01*
X125580102Y-112805631D01*
X125646365Y-112827790D01*
X125690128Y-112882256D01*
X125699500Y-112929546D01*
X125699500Y-117375500D01*
X125679815Y-117442539D01*
X125627011Y-117488294D01*
X125575500Y-117499500D01*
X123292129Y-117499500D01*
X123292123Y-117499501D01*
X123232516Y-117505908D01*
X123097671Y-117556202D01*
X123097664Y-117556206D01*
X122982455Y-117642452D01*
X122982452Y-117642455D01*
X122896206Y-117757664D01*
X122896202Y-117757671D01*
X122845908Y-117892517D01*
X122839501Y-117952116D01*
X122839500Y-117952135D01*
X122839500Y-121047870D01*
X122839501Y-121047876D01*
X122845908Y-121107483D01*
X122896202Y-121242328D01*
X122896206Y-121242335D01*
X122982452Y-121357544D01*
X122982455Y-121357547D01*
X123097664Y-121443793D01*
X123097671Y-121443797D01*
X123232517Y-121494091D01*
X123232516Y-121494091D01*
X123239444Y-121494835D01*
X123292127Y-121500500D01*
X126387872Y-121500499D01*
X126447483Y-121494091D01*
X126582331Y-121443796D01*
X126697546Y-121357546D01*
X126783796Y-121242331D01*
X126834091Y-121107483D01*
X126840500Y-121047873D01*
X126840499Y-119368872D01*
X127919500Y-119368872D01*
X127919500Y-119631127D01*
X127935843Y-119755258D01*
X127953730Y-119891116D01*
X127953731Y-119891118D01*
X128021602Y-120144418D01*
X128021605Y-120144428D01*
X128121953Y-120386690D01*
X128121958Y-120386700D01*
X128253075Y-120613803D01*
X128412718Y-120821851D01*
X128412726Y-120821860D01*
X128598140Y-121007274D01*
X128598148Y-121007281D01*
X128806196Y-121166924D01*
X129033299Y-121298041D01*
X129033309Y-121298046D01*
X129275571Y-121398394D01*
X129275581Y-121398398D01*
X129528884Y-121466270D01*
X129777188Y-121498960D01*
X129788864Y-121500498D01*
X129788880Y-121500500D01*
X129788887Y-121500500D01*
X130051113Y-121500500D01*
X130051120Y-121500500D01*
X130311116Y-121466270D01*
X130564419Y-121398398D01*
X130794940Y-121302913D01*
X130806690Y-121298046D01*
X130806691Y-121298045D01*
X130806697Y-121298043D01*
X131033803Y-121166924D01*
X131241851Y-121007282D01*
X131241855Y-121007277D01*
X131241860Y-121007274D01*
X131427274Y-120821860D01*
X131427277Y-120821855D01*
X131427282Y-120821851D01*
X131586924Y-120613803D01*
X131718043Y-120386697D01*
X131818398Y-120144419D01*
X131886270Y-119891116D01*
X131920500Y-119631120D01*
X131920500Y-119368880D01*
X131920499Y-119368872D01*
X132999500Y-119368872D01*
X132999500Y-119631127D01*
X133015843Y-119755258D01*
X133033730Y-119891116D01*
X133033731Y-119891118D01*
X133101602Y-120144418D01*
X133101605Y-120144428D01*
X133201953Y-120386690D01*
X133201958Y-120386700D01*
X133333075Y-120613803D01*
X133492718Y-120821851D01*
X133492726Y-120821860D01*
X133678140Y-121007274D01*
X133678148Y-121007281D01*
X133886196Y-121166924D01*
X134113299Y-121298041D01*
X134113309Y-121298046D01*
X134355571Y-121398394D01*
X134355581Y-121398398D01*
X134608884Y-121466270D01*
X134857188Y-121498960D01*
X134868864Y-121500498D01*
X134868880Y-121500500D01*
X134868887Y-121500500D01*
X135131113Y-121500500D01*
X135131120Y-121500500D01*
X135391116Y-121466270D01*
X135644419Y-121398398D01*
X135874940Y-121302913D01*
X135886690Y-121298046D01*
X135886691Y-121298045D01*
X135886697Y-121298043D01*
X136113803Y-121166924D01*
X136321851Y-121007282D01*
X136321855Y-121007277D01*
X136321860Y-121007274D01*
X136507274Y-120821860D01*
X136507277Y-120821855D01*
X136507282Y-120821851D01*
X136666924Y-120613803D01*
X136798043Y-120386697D01*
X136898398Y-120144419D01*
X136966270Y-119891116D01*
X137000500Y-119631120D01*
X137000500Y-119368880D01*
X136966270Y-119108884D01*
X136898398Y-118855581D01*
X136882642Y-118817543D01*
X136798046Y-118613309D01*
X136798041Y-118613299D01*
X136666924Y-118386196D01*
X136507281Y-118178148D01*
X136507274Y-118178140D01*
X136321860Y-117992726D01*
X136321851Y-117992718D01*
X136113803Y-117833075D01*
X135886700Y-117701958D01*
X135886690Y-117701953D01*
X135644428Y-117601605D01*
X135644421Y-117601603D01*
X135644419Y-117601602D01*
X135391116Y-117533730D01*
X135333339Y-117526123D01*
X135131127Y-117499500D01*
X135131120Y-117499500D01*
X134868880Y-117499500D01*
X134868872Y-117499500D01*
X134637772Y-117529926D01*
X134608884Y-117533730D01*
X134442061Y-117578430D01*
X134355581Y-117601602D01*
X134355571Y-117601605D01*
X134113309Y-117701953D01*
X134113299Y-117701958D01*
X133886196Y-117833075D01*
X133678148Y-117992718D01*
X133492718Y-118178148D01*
X133333075Y-118386196D01*
X133201958Y-118613299D01*
X133201953Y-118613309D01*
X133101605Y-118855571D01*
X133101602Y-118855581D01*
X133033730Y-119108885D01*
X132999500Y-119368872D01*
X131920499Y-119368872D01*
X131886270Y-119108884D01*
X131818398Y-118855581D01*
X131814399Y-118845928D01*
X131806931Y-118776461D01*
X131838205Y-118713982D01*
X131841220Y-118710856D01*
X132121788Y-118430290D01*
X132127379Y-118421923D01*
X132209394Y-118299179D01*
X132269737Y-118153497D01*
X132298837Y-118007206D01*
X132300110Y-118000807D01*
X132300179Y-118000457D01*
X132300500Y-117998843D01*
X132300500Y-117841158D01*
X132300500Y-111995503D01*
X132320185Y-111928464D01*
X132361377Y-111888772D01*
X132489365Y-111813081D01*
X132605581Y-111696865D01*
X132689244Y-111555398D01*
X132735098Y-111397569D01*
X132738000Y-111360694D01*
X132738000Y-110929306D01*
X132735098Y-110892431D01*
X132726571Y-110863082D01*
X132689245Y-110734606D01*
X132689244Y-110734603D01*
X132689244Y-110734602D01*
X132605581Y-110593135D01*
X132605579Y-110593133D01*
X132605576Y-110593129D01*
X132489370Y-110476923D01*
X132489362Y-110476917D01*
X132377744Y-110410907D01*
X132347898Y-110393256D01*
X132347897Y-110393255D01*
X132347896Y-110393255D01*
X132347893Y-110393254D01*
X132190073Y-110347402D01*
X132190067Y-110347401D01*
X132153201Y-110344500D01*
X132153194Y-110344500D01*
X130987000Y-110344500D01*
X130919961Y-110324815D01*
X130874206Y-110272011D01*
X130863000Y-110220500D01*
X130863000Y-109979313D01*
X130862999Y-109979305D01*
X130860098Y-109942431D01*
X130859799Y-109941403D01*
X130814245Y-109784606D01*
X130814244Y-109784603D01*
X130814244Y-109784602D01*
X130730581Y-109643135D01*
X130730579Y-109643133D01*
X130730576Y-109643129D01*
X130614370Y-109526923D01*
X130614362Y-109526917D01*
X130568847Y-109500000D01*
X130472898Y-109443256D01*
X130458526Y-109439080D01*
X130399641Y-109401474D01*
X130370434Y-109338002D01*
X130378560Y-109272551D01*
X130394737Y-109233497D01*
X130425500Y-109078842D01*
X130425500Y-108921158D01*
X130425500Y-108921155D01*
X130425499Y-108921153D01*
X130409911Y-108842789D01*
X130394737Y-108766503D01*
X130373670Y-108715643D01*
X130334397Y-108620827D01*
X130334390Y-108620814D01*
X130246789Y-108489711D01*
X130246786Y-108489707D01*
X130135292Y-108378213D01*
X130135288Y-108378210D01*
X130004185Y-108290609D01*
X130004172Y-108290602D01*
X129858501Y-108230264D01*
X129858489Y-108230261D01*
X129703845Y-108199500D01*
X129703842Y-108199500D01*
X129546158Y-108199500D01*
X129546155Y-108199500D01*
X129391510Y-108230261D01*
X129391498Y-108230264D01*
X129245827Y-108290602D01*
X129245814Y-108290609D01*
X129114711Y-108378210D01*
X129114707Y-108378213D01*
X129003213Y-108489707D01*
X129003210Y-108489711D01*
X128915609Y-108620814D01*
X128915602Y-108620827D01*
X128855264Y-108766498D01*
X128855261Y-108766510D01*
X128824500Y-108921153D01*
X128824500Y-109078846D01*
X128855261Y-109233489D01*
X128855264Y-109233501D01*
X128871439Y-109272551D01*
X128878908Y-109342021D01*
X128847632Y-109404500D01*
X128791479Y-109439078D01*
X128777104Y-109443255D01*
X128777103Y-109443255D01*
X128635637Y-109526917D01*
X128635629Y-109526923D01*
X128519423Y-109643129D01*
X128519417Y-109643137D01*
X128435755Y-109784603D01*
X128435754Y-109784606D01*
X128389902Y-109942426D01*
X128389901Y-109942432D01*
X128387000Y-109979298D01*
X128387000Y-110410701D01*
X128389901Y-110447567D01*
X128389902Y-110447573D01*
X128435754Y-110605393D01*
X128435755Y-110605396D01*
X128519417Y-110746862D01*
X128519423Y-110746870D01*
X128635629Y-110863076D01*
X128635633Y-110863079D01*
X128635635Y-110863081D01*
X128777102Y-110946744D01*
X128818724Y-110958836D01*
X128934926Y-110992597D01*
X128934929Y-110992597D01*
X128934931Y-110992598D01*
X128971806Y-110995500D01*
X130138000Y-110995500D01*
X130205039Y-111015185D01*
X130250794Y-111067989D01*
X130262000Y-111119500D01*
X130262000Y-111171000D01*
X130242315Y-111238039D01*
X130189511Y-111283794D01*
X130138000Y-111295000D01*
X129875000Y-111295000D01*
X129875000Y-112895000D01*
X130278134Y-112895000D01*
X130278149Y-112894999D01*
X130314989Y-112892100D01*
X130314995Y-112892099D01*
X130472692Y-112846284D01*
X130512378Y-112822814D01*
X130580102Y-112805631D01*
X130646365Y-112827790D01*
X130690128Y-112882256D01*
X130699500Y-112929546D01*
X130699500Y-117476197D01*
X130679815Y-117543236D01*
X130627011Y-117588991D01*
X130557853Y-117598935D01*
X130543407Y-117595972D01*
X130521179Y-117590016D01*
X130311116Y-117533730D01*
X130253339Y-117526123D01*
X130051127Y-117499500D01*
X130051120Y-117499500D01*
X129788880Y-117499500D01*
X129788872Y-117499500D01*
X129557772Y-117529926D01*
X129528884Y-117533730D01*
X129362061Y-117578430D01*
X129275581Y-117601602D01*
X129275571Y-117601605D01*
X129033309Y-117701953D01*
X129033299Y-117701958D01*
X128806196Y-117833075D01*
X128598148Y-117992718D01*
X128412718Y-118178148D01*
X128253075Y-118386196D01*
X128121958Y-118613299D01*
X128121953Y-118613309D01*
X128021605Y-118855571D01*
X128021602Y-118855581D01*
X127953730Y-119108885D01*
X127919500Y-119368872D01*
X126840499Y-119368872D01*
X126840499Y-118682939D01*
X126860184Y-118615901D01*
X126876813Y-118595263D01*
X127121789Y-118350289D01*
X127209394Y-118219179D01*
X127269738Y-118073497D01*
X127300500Y-117918842D01*
X127300500Y-117761157D01*
X127300500Y-112345001D01*
X128390204Y-112345001D01*
X128390399Y-112347486D01*
X128436218Y-112505198D01*
X128519814Y-112646552D01*
X128519821Y-112646561D01*
X128635938Y-112762678D01*
X128635947Y-112762685D01*
X128777303Y-112846282D01*
X128777306Y-112846283D01*
X128935004Y-112892099D01*
X128935010Y-112892100D01*
X128971850Y-112894999D01*
X128971866Y-112895000D01*
X129375000Y-112895000D01*
X129375000Y-112345000D01*
X128390205Y-112345000D01*
X128390204Y-112345001D01*
X127300500Y-112345001D01*
X127300500Y-111995503D01*
X127302991Y-111987019D01*
X127301703Y-111978271D01*
X127312683Y-111954009D01*
X127320185Y-111928464D01*
X127327625Y-111920998D01*
X127330513Y-111914618D01*
X127351491Y-111897051D01*
X127357108Y-111891415D01*
X127359208Y-111890054D01*
X127435395Y-111844998D01*
X128390204Y-111844998D01*
X128390205Y-111845000D01*
X129375000Y-111845000D01*
X129375000Y-111295000D01*
X128971850Y-111295000D01*
X128935010Y-111297899D01*
X128935004Y-111297900D01*
X128777306Y-111343716D01*
X128777303Y-111343717D01*
X128635947Y-111427314D01*
X128635938Y-111427321D01*
X128519821Y-111543438D01*
X128519814Y-111543447D01*
X128436218Y-111684801D01*
X128390399Y-111842513D01*
X128390204Y-111844998D01*
X127435395Y-111844998D01*
X127489365Y-111813081D01*
X127605581Y-111696865D01*
X127689244Y-111555398D01*
X127735098Y-111397569D01*
X127738000Y-111360694D01*
X127738000Y-110929306D01*
X127735098Y-110892431D01*
X127726571Y-110863082D01*
X127689245Y-110734606D01*
X127689244Y-110734603D01*
X127689244Y-110734602D01*
X127605581Y-110593135D01*
X127605579Y-110593133D01*
X127605576Y-110593129D01*
X127489370Y-110476923D01*
X127489362Y-110476917D01*
X127377744Y-110410907D01*
X127347898Y-110393256D01*
X127347897Y-110393255D01*
X127347896Y-110393255D01*
X127347893Y-110393254D01*
X127190073Y-110347402D01*
X127190067Y-110347401D01*
X127153201Y-110344500D01*
X127153194Y-110344500D01*
X125987000Y-110344500D01*
X125919961Y-110324815D01*
X125874206Y-110272011D01*
X125863000Y-110220500D01*
X125863000Y-109979313D01*
X125862999Y-109979305D01*
X125860098Y-109942431D01*
X125859799Y-109941403D01*
X125814245Y-109784606D01*
X125814244Y-109784603D01*
X125814244Y-109784602D01*
X125730581Y-109643135D01*
X125730579Y-109643133D01*
X125730576Y-109643129D01*
X125614370Y-109526923D01*
X125614362Y-109526917D01*
X125472896Y-109443255D01*
X125472893Y-109443253D01*
X125364905Y-109411880D01*
X125306019Y-109374274D01*
X125276813Y-109310801D01*
X125275500Y-109292804D01*
X125275500Y-100515808D01*
X125295185Y-100448769D01*
X125311819Y-100428127D01*
X132005273Y-93734673D01*
X132005277Y-93734669D01*
X132076465Y-93628127D01*
X132125501Y-93509743D01*
X132150500Y-93384069D01*
X132150500Y-93255931D01*
X132150500Y-92352195D01*
X132170185Y-92285156D01*
X132222989Y-92239401D01*
X132239895Y-92233122D01*
X132347898Y-92201744D01*
X132489365Y-92118081D01*
X132605581Y-92001865D01*
X132689244Y-91860398D01*
X132735098Y-91702569D01*
X132738000Y-91665694D01*
X132738000Y-91234306D01*
X132735098Y-91197431D01*
X132729935Y-91179661D01*
X132689245Y-91039606D01*
X132689244Y-91039603D01*
X132689244Y-91039602D01*
X132605581Y-90898135D01*
X132605579Y-90898133D01*
X132605576Y-90898129D01*
X132489370Y-90781923D01*
X132489362Y-90781917D01*
X132347896Y-90698255D01*
X132347893Y-90698254D01*
X132190073Y-90652402D01*
X132190067Y-90652401D01*
X132153201Y-90649500D01*
X132153194Y-90649500D01*
X130987000Y-90649500D01*
X130919961Y-90629815D01*
X130874206Y-90577011D01*
X130863000Y-90525500D01*
X130863000Y-90474000D01*
X130882685Y-90406961D01*
X130935489Y-90361206D01*
X130987000Y-90350000D01*
X131250000Y-90350000D01*
X131750000Y-90350000D01*
X132153134Y-90350000D01*
X132153149Y-90349999D01*
X132189989Y-90347100D01*
X132189995Y-90347099D01*
X132347693Y-90301283D01*
X132347696Y-90301282D01*
X132489052Y-90217685D01*
X132489061Y-90217678D01*
X132605178Y-90101561D01*
X132605185Y-90101552D01*
X132688781Y-89960198D01*
X132734600Y-89802486D01*
X132734795Y-89800001D01*
X132734795Y-89800000D01*
X131750000Y-89800000D01*
X131750000Y-90350000D01*
X131250000Y-90350000D01*
X131250000Y-89674000D01*
X131269685Y-89606961D01*
X131322489Y-89561206D01*
X131374000Y-89550000D01*
X131500000Y-89550000D01*
X131500000Y-89424000D01*
X131519685Y-89356961D01*
X131572489Y-89311206D01*
X131624000Y-89300000D01*
X132734795Y-89300000D01*
X132734795Y-89299998D01*
X132734600Y-89297513D01*
X132688781Y-89139801D01*
X132605185Y-88998447D01*
X132605178Y-88998438D01*
X132489061Y-88882321D01*
X132489052Y-88882314D01*
X132347696Y-88798717D01*
X132347693Y-88798716D01*
X132189995Y-88752900D01*
X132189989Y-88752899D01*
X132153149Y-88750000D01*
X131681440Y-88750000D01*
X131614401Y-88730315D01*
X131568646Y-88677511D01*
X131558702Y-88608353D01*
X131587727Y-88544797D01*
X131593759Y-88538319D01*
X135621786Y-84510292D01*
X135621788Y-84510290D01*
X135621789Y-84510289D01*
X135709394Y-84379179D01*
X135769737Y-84233497D01*
X135800500Y-84078842D01*
X135800500Y-83921158D01*
X135800500Y-83624499D01*
X135820185Y-83557460D01*
X135872989Y-83511705D01*
X135924500Y-83500499D01*
X136547871Y-83500499D01*
X136547872Y-83500499D01*
X136607483Y-83494091D01*
X136742331Y-83443796D01*
X136857546Y-83357546D01*
X136943796Y-83242331D01*
X136994091Y-83107483D01*
X137000500Y-83047873D01*
X137000499Y-79952128D01*
X136994091Y-79892517D01*
X136960020Y-79801169D01*
X136943797Y-79757671D01*
X136943793Y-79757664D01*
X136857547Y-79642455D01*
X136857544Y-79642452D01*
X136742335Y-79556206D01*
X136742328Y-79556202D01*
X136607482Y-79505908D01*
X136607483Y-79505908D01*
X136547883Y-79499501D01*
X136547881Y-79499500D01*
X136547873Y-79499500D01*
X136547864Y-79499500D01*
X133452129Y-79499500D01*
X133452123Y-79499501D01*
X133392516Y-79505908D01*
X133257671Y-79556202D01*
X133257664Y-79556206D01*
X133142455Y-79642452D01*
X133142452Y-79642455D01*
X133056206Y-79757664D01*
X133056202Y-79757671D01*
X133005908Y-79892517D01*
X132999501Y-79952116D01*
X132999501Y-79952123D01*
X132999500Y-79952135D01*
X132999500Y-83047870D01*
X132999501Y-83047876D01*
X133005908Y-83107483D01*
X133056202Y-83242328D01*
X133056206Y-83242335D01*
X133142452Y-83357544D01*
X133142455Y-83357547D01*
X133257664Y-83443793D01*
X133257671Y-83443797D01*
X133302618Y-83460561D01*
X133392517Y-83494091D01*
X133452127Y-83500500D01*
X134068060Y-83500499D01*
X134135099Y-83520183D01*
X134180854Y-83572987D01*
X134190798Y-83642146D01*
X134161773Y-83705702D01*
X134155741Y-83712180D01*
X129717922Y-88150000D01*
X129114711Y-88753211D01*
X129085622Y-88782300D01*
X129003209Y-88864712D01*
X128915609Y-88995814D01*
X128915602Y-88995827D01*
X128855264Y-89141498D01*
X128855261Y-89141510D01*
X128824500Y-89296153D01*
X128824500Y-89649496D01*
X128804815Y-89716535D01*
X128763621Y-89756228D01*
X128635638Y-89831916D01*
X128635629Y-89831923D01*
X128519423Y-89948129D01*
X128519417Y-89948137D01*
X128435755Y-90089603D01*
X128435754Y-90089606D01*
X128389902Y-90247426D01*
X128389901Y-90247432D01*
X128387000Y-90284298D01*
X128387000Y-90715701D01*
X128389901Y-90752567D01*
X128389902Y-90752573D01*
X128435754Y-90910393D01*
X128435755Y-90910396D01*
X128519417Y-91051862D01*
X128519423Y-91051870D01*
X128635629Y-91168076D01*
X128635633Y-91168079D01*
X128635635Y-91168081D01*
X128777102Y-91251744D01*
X128818724Y-91263836D01*
X128934926Y-91297597D01*
X128934929Y-91297597D01*
X128934931Y-91297598D01*
X128971806Y-91300500D01*
X129546158Y-91300500D01*
X129703842Y-91300500D01*
X130138000Y-91300500D01*
X130205039Y-91320185D01*
X130250794Y-91372989D01*
X130262000Y-91424500D01*
X130262000Y-91665701D01*
X130264901Y-91702567D01*
X130264902Y-91702573D01*
X130310754Y-91860393D01*
X130310755Y-91860396D01*
X130394417Y-92001862D01*
X130394423Y-92001870D01*
X130510629Y-92118076D01*
X130510633Y-92118079D01*
X130510635Y-92118081D01*
X130652102Y-92201744D01*
X130760096Y-92233119D01*
X130818980Y-92270725D01*
X130848187Y-92334197D01*
X130849500Y-92352195D01*
X130849500Y-92999192D01*
X130829815Y-93066231D01*
X130813181Y-93086873D01*
X122299681Y-101600373D01*
X122238358Y-101633858D01*
X122168666Y-101628874D01*
X122112733Y-101587002D01*
X122088316Y-101521538D01*
X122088000Y-101512692D01*
X122088000Y-92352195D01*
X122107685Y-92285156D01*
X122160489Y-92239401D01*
X122177395Y-92233122D01*
X122285398Y-92201744D01*
X122426865Y-92118081D01*
X122543081Y-92001865D01*
X122626744Y-91860398D01*
X122672598Y-91702569D01*
X122675500Y-91665694D01*
X122675500Y-91234306D01*
X122672598Y-91197431D01*
X122667435Y-91179661D01*
X122626745Y-91039606D01*
X122626744Y-91039603D01*
X122626744Y-91039602D01*
X122543081Y-90898135D01*
X122543079Y-90898133D01*
X122543076Y-90898129D01*
X122426870Y-90781923D01*
X122426862Y-90781917D01*
X122285396Y-90698255D01*
X122285393Y-90698254D01*
X122127573Y-90652402D01*
X122127567Y-90652401D01*
X122090701Y-90649500D01*
X122090694Y-90649500D01*
X120924500Y-90649500D01*
X120857461Y-90629815D01*
X120811706Y-90577011D01*
X120800500Y-90525500D01*
X120800500Y-90474000D01*
X120820185Y-90406961D01*
X120872989Y-90361206D01*
X120924500Y-90350000D01*
X121187500Y-90350000D01*
X121687500Y-90350000D01*
X122090634Y-90350000D01*
X122090649Y-90349999D01*
X122127489Y-90347100D01*
X122127495Y-90347099D01*
X122285193Y-90301283D01*
X122285196Y-90301282D01*
X122313915Y-90284298D01*
X123449500Y-90284298D01*
X123449500Y-90715701D01*
X123452401Y-90752567D01*
X123452402Y-90752573D01*
X123498254Y-90910393D01*
X123498255Y-90910396D01*
X123581917Y-91051862D01*
X123581923Y-91051870D01*
X123698129Y-91168076D01*
X123698133Y-91168079D01*
X123698135Y-91168081D01*
X123839602Y-91251744D01*
X123881224Y-91263836D01*
X123997426Y-91297597D01*
X123997429Y-91297597D01*
X123997431Y-91297598D01*
X124034306Y-91300500D01*
X124608658Y-91300500D01*
X124766342Y-91300500D01*
X125200500Y-91300500D01*
X125267539Y-91320185D01*
X125313294Y-91372989D01*
X125324500Y-91424500D01*
X125324500Y-91665701D01*
X125327401Y-91702567D01*
X125327402Y-91702573D01*
X125373254Y-91860393D01*
X125373255Y-91860396D01*
X125456917Y-92001862D01*
X125456923Y-92001870D01*
X125573129Y-92118076D01*
X125573133Y-92118079D01*
X125573135Y-92118081D01*
X125714602Y-92201744D01*
X125714603Y-92201744D01*
X125720421Y-92205185D01*
X125768104Y-92256254D01*
X125780608Y-92324995D01*
X125778917Y-92336108D01*
X125762000Y-92421153D01*
X125762000Y-92578846D01*
X125792761Y-92733489D01*
X125792764Y-92733501D01*
X125853102Y-92879172D01*
X125853109Y-92879185D01*
X125940710Y-93010288D01*
X125940713Y-93010292D01*
X126052207Y-93121786D01*
X126052211Y-93121789D01*
X126183314Y-93209390D01*
X126183327Y-93209397D01*
X126285107Y-93251555D01*
X126329003Y-93269737D01*
X126483653Y-93300499D01*
X126483656Y-93300500D01*
X126483658Y-93300500D01*
X126641344Y-93300500D01*
X126641345Y-93300499D01*
X126795997Y-93269737D01*
X126941679Y-93209394D01*
X127072789Y-93121789D01*
X127184289Y-93010289D01*
X127271894Y-92879179D01*
X127332237Y-92733497D01*
X127363000Y-92578842D01*
X127363000Y-92421158D01*
X127363000Y-92421155D01*
X127362999Y-92421153D01*
X127346083Y-92336108D01*
X127352310Y-92266517D01*
X127395173Y-92211339D01*
X127404579Y-92205185D01*
X127410396Y-92201744D01*
X127410398Y-92201744D01*
X127551865Y-92118081D01*
X127668081Y-92001865D01*
X127751744Y-91860398D01*
X127797598Y-91702569D01*
X127800500Y-91665694D01*
X127800500Y-91234306D01*
X127797598Y-91197431D01*
X127792435Y-91179661D01*
X127751745Y-91039606D01*
X127751744Y-91039603D01*
X127751744Y-91039602D01*
X127668081Y-90898135D01*
X127668079Y-90898133D01*
X127668076Y-90898129D01*
X127551870Y-90781923D01*
X127551862Y-90781917D01*
X127410396Y-90698255D01*
X127410393Y-90698254D01*
X127252573Y-90652402D01*
X127252567Y-90652401D01*
X127215701Y-90649500D01*
X127215694Y-90649500D01*
X126049500Y-90649500D01*
X125982461Y-90629815D01*
X125936706Y-90577011D01*
X125925500Y-90525500D01*
X125925500Y-90474000D01*
X125945185Y-90406961D01*
X125997989Y-90361206D01*
X126049500Y-90350000D01*
X126312500Y-90350000D01*
X126812500Y-90350000D01*
X127215634Y-90350000D01*
X127215649Y-90349999D01*
X127252489Y-90347100D01*
X127252495Y-90347099D01*
X127410193Y-90301283D01*
X127410196Y-90301282D01*
X127551552Y-90217685D01*
X127551561Y-90217678D01*
X127667678Y-90101561D01*
X127667685Y-90101552D01*
X127751281Y-89960198D01*
X127797100Y-89802486D01*
X127797295Y-89800001D01*
X127797295Y-89800000D01*
X126812500Y-89800000D01*
X126812500Y-90350000D01*
X126312500Y-90350000D01*
X126312500Y-89300000D01*
X126812500Y-89300000D01*
X127797295Y-89300000D01*
X127797295Y-89299998D01*
X127797100Y-89297513D01*
X127751281Y-89139801D01*
X127667685Y-88998447D01*
X127667678Y-88998438D01*
X127551561Y-88882321D01*
X127551552Y-88882314D01*
X127410196Y-88798717D01*
X127410193Y-88798716D01*
X127252495Y-88752900D01*
X127252489Y-88752899D01*
X127215649Y-88750000D01*
X126812500Y-88750000D01*
X126812500Y-89300000D01*
X126312500Y-89300000D01*
X126312500Y-88846743D01*
X126321144Y-88817302D01*
X126327668Y-88787316D01*
X126331422Y-88782300D01*
X126332185Y-88779704D01*
X126348819Y-88759062D01*
X130541786Y-84566095D01*
X130541788Y-84566093D01*
X130579075Y-84510289D01*
X130629394Y-84434982D01*
X130689737Y-84289300D01*
X130720500Y-84134645D01*
X130720500Y-83416601D01*
X130740185Y-83349562D01*
X130792989Y-83303807D01*
X130797051Y-83302039D01*
X130806683Y-83298049D01*
X130806686Y-83298047D01*
X130806697Y-83298043D01*
X131033803Y-83166924D01*
X131241851Y-83007282D01*
X131241855Y-83007277D01*
X131241860Y-83007274D01*
X131427274Y-82821860D01*
X131427277Y-82821855D01*
X131427282Y-82821851D01*
X131586924Y-82613803D01*
X131718043Y-82386697D01*
X131818398Y-82144419D01*
X131886270Y-81891116D01*
X131920500Y-81631120D01*
X131920500Y-81368880D01*
X131886270Y-81108884D01*
X131818398Y-80855581D01*
X131752747Y-80697086D01*
X131718046Y-80613309D01*
X131718041Y-80613299D01*
X131586924Y-80386196D01*
X131427281Y-80178148D01*
X131427274Y-80178140D01*
X131241860Y-79992726D01*
X131241851Y-79992718D01*
X131033803Y-79833075D01*
X130806700Y-79701958D01*
X130806690Y-79701953D01*
X130564428Y-79601605D01*
X130564421Y-79601603D01*
X130564419Y-79601602D01*
X130311116Y-79533730D01*
X130253339Y-79526123D01*
X130051127Y-79499500D01*
X130051120Y-79499500D01*
X129788880Y-79499500D01*
X129788872Y-79499500D01*
X129557772Y-79529926D01*
X129528884Y-79533730D01*
X129275581Y-79601602D01*
X129275571Y-79601605D01*
X129033309Y-79701953D01*
X129033299Y-79701958D01*
X128806196Y-79833075D01*
X128598148Y-79992718D01*
X128412718Y-80178148D01*
X128253075Y-80386196D01*
X128121958Y-80613299D01*
X128121953Y-80613309D01*
X128021605Y-80855571D01*
X128021602Y-80855581D01*
X127953730Y-81108885D01*
X127919500Y-81368872D01*
X127919500Y-81631127D01*
X127923584Y-81662143D01*
X127953730Y-81891116D01*
X128021602Y-82144418D01*
X128021605Y-82144428D01*
X128121953Y-82386690D01*
X128121958Y-82386700D01*
X128253075Y-82613803D01*
X128412718Y-82821851D01*
X128412726Y-82821860D01*
X128598140Y-83007274D01*
X128598148Y-83007281D01*
X128806196Y-83166924D01*
X129033299Y-83298041D01*
X129033316Y-83298049D01*
X129042949Y-83302039D01*
X129097354Y-83345878D01*
X129119421Y-83412172D01*
X129119500Y-83416601D01*
X129119500Y-83672863D01*
X129099815Y-83739902D01*
X129083181Y-83760544D01*
X124177211Y-88666514D01*
X124121460Y-88722265D01*
X124065709Y-88778015D01*
X123978109Y-88909117D01*
X123978102Y-88909130D01*
X123917764Y-89054801D01*
X123917761Y-89054813D01*
X123887000Y-89209456D01*
X123887000Y-89649496D01*
X123867315Y-89716535D01*
X123826121Y-89756228D01*
X123698138Y-89831916D01*
X123698129Y-89831923D01*
X123581923Y-89948129D01*
X123581917Y-89948137D01*
X123498255Y-90089603D01*
X123498254Y-90089606D01*
X123452402Y-90247426D01*
X123452401Y-90247432D01*
X123449500Y-90284298D01*
X122313915Y-90284298D01*
X122426552Y-90217685D01*
X122426561Y-90217678D01*
X122450050Y-90194190D01*
X122542678Y-90101561D01*
X122542685Y-90101552D01*
X122626281Y-89960198D01*
X122672100Y-89802486D01*
X122672295Y-89800001D01*
X122672295Y-89800000D01*
X121687500Y-89800000D01*
X121687500Y-90350000D01*
X121187500Y-90350000D01*
X121187500Y-89800000D01*
X120531815Y-89800000D01*
X120468694Y-89782732D01*
X120410396Y-89748255D01*
X120410393Y-89748254D01*
X120252573Y-89702402D01*
X120252567Y-89702401D01*
X120215701Y-89699500D01*
X120215694Y-89699500D01*
X119945440Y-89699500D01*
X119878401Y-89679815D01*
X119857759Y-89663181D01*
X119494576Y-89299998D01*
X120202704Y-89299998D01*
X120202705Y-89300000D01*
X121187500Y-89300000D01*
X121687500Y-89300000D01*
X122672295Y-89300000D01*
X122672295Y-89299998D01*
X122672100Y-89297513D01*
X122626281Y-89139801D01*
X122542685Y-88998447D01*
X122542678Y-88998438D01*
X122426561Y-88882321D01*
X122426552Y-88882314D01*
X122285196Y-88798717D01*
X122285193Y-88798716D01*
X122127495Y-88752900D01*
X122127489Y-88752899D01*
X122090649Y-88750000D01*
X121687500Y-88750000D01*
X121687500Y-89300000D01*
X121187500Y-89300000D01*
X121187500Y-88750000D01*
X120784350Y-88750000D01*
X120747510Y-88752899D01*
X120747504Y-88752900D01*
X120589806Y-88798716D01*
X120589803Y-88798717D01*
X120448447Y-88882314D01*
X120448438Y-88882321D01*
X120332321Y-88998438D01*
X120332314Y-88998447D01*
X120248718Y-89139801D01*
X120202899Y-89297513D01*
X120202704Y-89299998D01*
X119494576Y-89299998D01*
X119336819Y-89142241D01*
X119303334Y-89080918D01*
X119300500Y-89054560D01*
X119300500Y-83624499D01*
X119320185Y-83557460D01*
X119372989Y-83511705D01*
X119424500Y-83500499D01*
X120047871Y-83500499D01*
X120047872Y-83500499D01*
X120107483Y-83494091D01*
X120242331Y-83443796D01*
X120357546Y-83357546D01*
X120443796Y-83242331D01*
X120494091Y-83107483D01*
X120500500Y-83047873D01*
X120500499Y-81368872D01*
X122839500Y-81368872D01*
X122839500Y-81631127D01*
X122843584Y-81662143D01*
X122873730Y-81891116D01*
X122941602Y-82144418D01*
X122941605Y-82144428D01*
X123041953Y-82386690D01*
X123041958Y-82386700D01*
X123173075Y-82613803D01*
X123332718Y-82821851D01*
X123332726Y-82821860D01*
X123518140Y-83007274D01*
X123518148Y-83007281D01*
X123726196Y-83166924D01*
X123953299Y-83298041D01*
X123953309Y-83298046D01*
X124195571Y-83398394D01*
X124195581Y-83398398D01*
X124448884Y-83466270D01*
X124697188Y-83498960D01*
X124708864Y-83500498D01*
X124708880Y-83500500D01*
X124708887Y-83500500D01*
X124971113Y-83500500D01*
X124971120Y-83500500D01*
X125231116Y-83466270D01*
X125484419Y-83398398D01*
X125661340Y-83325114D01*
X125726690Y-83298046D01*
X125726691Y-83298045D01*
X125726697Y-83298043D01*
X125953803Y-83166924D01*
X126161851Y-83007282D01*
X126161855Y-83007277D01*
X126161860Y-83007274D01*
X126347274Y-82821860D01*
X126347277Y-82821855D01*
X126347282Y-82821851D01*
X126506924Y-82613803D01*
X126638043Y-82386697D01*
X126738398Y-82144419D01*
X126806270Y-81891116D01*
X126840500Y-81631120D01*
X126840500Y-81368880D01*
X126806270Y-81108884D01*
X126738398Y-80855581D01*
X126672747Y-80697086D01*
X126638046Y-80613309D01*
X126638041Y-80613299D01*
X126506924Y-80386196D01*
X126347281Y-80178148D01*
X126347274Y-80178140D01*
X126161860Y-79992726D01*
X126161851Y-79992718D01*
X125953803Y-79833075D01*
X125726700Y-79701958D01*
X125726690Y-79701953D01*
X125484428Y-79601605D01*
X125484421Y-79601603D01*
X125484419Y-79601602D01*
X125231116Y-79533730D01*
X125173339Y-79526123D01*
X124971127Y-79499500D01*
X124971120Y-79499500D01*
X124708880Y-79499500D01*
X124708872Y-79499500D01*
X124477772Y-79529926D01*
X124448884Y-79533730D01*
X124195581Y-79601602D01*
X124195571Y-79601605D01*
X123953309Y-79701953D01*
X123953299Y-79701958D01*
X123726196Y-79833075D01*
X123518148Y-79992718D01*
X123332718Y-80178148D01*
X123173075Y-80386196D01*
X123041958Y-80613299D01*
X123041953Y-80613309D01*
X122941605Y-80855571D01*
X122941602Y-80855581D01*
X122873730Y-81108885D01*
X122839500Y-81368872D01*
X120500499Y-81368872D01*
X120500499Y-79952128D01*
X120494091Y-79892517D01*
X120460020Y-79801169D01*
X120443797Y-79757671D01*
X120443793Y-79757664D01*
X120357547Y-79642455D01*
X120357544Y-79642452D01*
X120242335Y-79556206D01*
X120242328Y-79556202D01*
X120107482Y-79505908D01*
X120107483Y-79505908D01*
X120047883Y-79499501D01*
X120047881Y-79499500D01*
X120047873Y-79499500D01*
X120047864Y-79499500D01*
X116952129Y-79499500D01*
X116952123Y-79499501D01*
X116892516Y-79505908D01*
X116757671Y-79556202D01*
X116757664Y-79556206D01*
X116642455Y-79642452D01*
X116642452Y-79642455D01*
X116556206Y-79757664D01*
X116556202Y-79757671D01*
X116505908Y-79892517D01*
X116499501Y-79952116D01*
X116499501Y-79952123D01*
X116499500Y-79952135D01*
X116499500Y-83047870D01*
X116499501Y-83047876D01*
X116505908Y-83107483D01*
X116556202Y-83242328D01*
X116556206Y-83242335D01*
X116642452Y-83357544D01*
X116642455Y-83357547D01*
X116757664Y-83443793D01*
X116757671Y-83443797D01*
X116802618Y-83460561D01*
X116892517Y-83494091D01*
X116952127Y-83500500D01*
X117575500Y-83500499D01*
X117642539Y-83520183D01*
X117688294Y-83572987D01*
X117699500Y-83624499D01*
X117699500Y-88855898D01*
X117679815Y-88922937D01*
X117627011Y-88968692D01*
X117557853Y-88978636D01*
X117494297Y-88949611D01*
X117487819Y-88943579D01*
X117426561Y-88882321D01*
X117426552Y-88882314D01*
X117285196Y-88798717D01*
X117285193Y-88798716D01*
X117127495Y-88752900D01*
X117127489Y-88752899D01*
X117090649Y-88750000D01*
X116687500Y-88750000D01*
X116687500Y-90350000D01*
X117090634Y-90350000D01*
X117090649Y-90349999D01*
X117127489Y-90347100D01*
X117127495Y-90347099D01*
X117285193Y-90301283D01*
X117285196Y-90301282D01*
X117426552Y-90217685D01*
X117426561Y-90217678D01*
X117542678Y-90101561D01*
X117542685Y-90101552D01*
X117626282Y-89960196D01*
X117626282Y-89960195D01*
X117630865Y-89944423D01*
X117668470Y-89885536D01*
X117731942Y-89856328D01*
X117801129Y-89866073D01*
X117853045Y-89910125D01*
X117878212Y-89947791D01*
X117878213Y-89947792D01*
X118288181Y-90357759D01*
X118321666Y-90419082D01*
X118324500Y-90445440D01*
X118324500Y-90715701D01*
X118327401Y-90752567D01*
X118327402Y-90752573D01*
X118373254Y-90910393D01*
X118373255Y-90910396D01*
X118456917Y-91051862D01*
X118456923Y-91051870D01*
X118573129Y-91168076D01*
X118573133Y-91168079D01*
X118573135Y-91168081D01*
X118714602Y-91251744D01*
X118756224Y-91263836D01*
X118872426Y-91297597D01*
X118872429Y-91297597D01*
X118872431Y-91297598D01*
X118909306Y-91300500D01*
X119483658Y-91300500D01*
X119641342Y-91300500D01*
X120075500Y-91300500D01*
X120142539Y-91320185D01*
X120188294Y-91372989D01*
X120199500Y-91424500D01*
X120199500Y-91665701D01*
X120202401Y-91702567D01*
X120202402Y-91702573D01*
X120248254Y-91860393D01*
X120248255Y-91860396D01*
X120331917Y-92001862D01*
X120331923Y-92001870D01*
X120448129Y-92118076D01*
X120448133Y-92118079D01*
X120448135Y-92118081D01*
X120589602Y-92201744D01*
X120697596Y-92233119D01*
X120756480Y-92270725D01*
X120785687Y-92334197D01*
X120787000Y-92352195D01*
X120787000Y-103061691D01*
X120767315Y-103128730D01*
X120750681Y-103149372D01*
X114712681Y-109187372D01*
X114651358Y-109220857D01*
X114581666Y-109215873D01*
X114537319Y-109187372D01*
X114344673Y-108994726D01*
X114250278Y-108931654D01*
X114238127Y-108923535D01*
X114232388Y-108921158D01*
X114119744Y-108874499D01*
X114119738Y-108874497D01*
X113994071Y-108849500D01*
X113994069Y-108849500D01*
X111430708Y-108849500D01*
X111363669Y-108829815D01*
X111338084Y-108806619D01*
X111337947Y-108806757D01*
X111335147Y-108803957D01*
X111333445Y-108802414D01*
X111332844Y-108801654D01*
X111210851Y-108679661D01*
X111210850Y-108679660D01*
X111064016Y-108589092D01*
X110900253Y-108534826D01*
X110900251Y-108534825D01*
X110799178Y-108524500D01*
X110200830Y-108524500D01*
X110200812Y-108524501D01*
X110099747Y-108534825D01*
X109935984Y-108589092D01*
X109935981Y-108589093D01*
X109789148Y-108679661D01*
X109675181Y-108793629D01*
X109613858Y-108827114D01*
X109544166Y-108822130D01*
X109499819Y-108793629D01*
X109385851Y-108679661D01*
X109385850Y-108679660D01*
X109239016Y-108589092D01*
X109075253Y-108534826D01*
X109075251Y-108534825D01*
X108974178Y-108524500D01*
X108375830Y-108524500D01*
X108375812Y-108524501D01*
X108274747Y-108534825D01*
X108110984Y-108589092D01*
X108110981Y-108589093D01*
X107964148Y-108679661D01*
X107842155Y-108801654D01*
X107841555Y-108802414D01*
X107841010Y-108802799D01*
X107837053Y-108806757D01*
X107836376Y-108806080D01*
X107784532Y-108842789D01*
X107744292Y-108849500D01*
X105435929Y-108849500D01*
X105310261Y-108874497D01*
X105310255Y-108874499D01*
X105197624Y-108921153D01*
X105197612Y-108921158D01*
X105191873Y-108923535D01*
X105085331Y-108994723D01*
X105085329Y-108994724D01*
X105085326Y-108994727D01*
X105085325Y-108994727D01*
X103711680Y-110368371D01*
X103650357Y-110401856D01*
X103580665Y-110396872D01*
X103524732Y-110355000D01*
X103500315Y-110289536D01*
X103499999Y-110280688D01*
X103499999Y-110250000D01*
X102433012Y-110250000D01*
X102465925Y-110192993D01*
X102500000Y-110065826D01*
X102500000Y-109934174D01*
X102465925Y-109807007D01*
X102433012Y-109750000D01*
X103499999Y-109750000D01*
X103499999Y-109350028D01*
X103499998Y-109350013D01*
X103489505Y-109247302D01*
X103434358Y-109080880D01*
X103434356Y-109080875D01*
X103342315Y-108931654D01*
X103218345Y-108807684D01*
X103069124Y-108715643D01*
X103069119Y-108715641D01*
X102902697Y-108660494D01*
X102902690Y-108660493D01*
X102799986Y-108650000D01*
X102250000Y-108650000D01*
X102250000Y-109566988D01*
X102192993Y-109534075D01*
X102065826Y-109500000D01*
X101934174Y-109500000D01*
X101807007Y-109534075D01*
X101750000Y-109566988D01*
X101750000Y-108650000D01*
X101200028Y-108650000D01*
X101200012Y-108650001D01*
X101097302Y-108660494D01*
X100930880Y-108715641D01*
X100930875Y-108715643D01*
X100781654Y-108807684D01*
X100657684Y-108931654D01*
X100565643Y-109080875D01*
X100565641Y-109080880D01*
X100510494Y-109247302D01*
X100510493Y-109247309D01*
X100500000Y-109350013D01*
X100500000Y-109750000D01*
X101566988Y-109750000D01*
X101534075Y-109807007D01*
X101500000Y-109934174D01*
X101500000Y-110065826D01*
X101534075Y-110192993D01*
X101566988Y-110250000D01*
X100500001Y-110250000D01*
X100500001Y-110649986D01*
X100510494Y-110752697D01*
X100565641Y-110919119D01*
X100565643Y-110919124D01*
X100657684Y-111068345D01*
X100781654Y-111192315D01*
X100936484Y-111287815D01*
X100983208Y-111339763D01*
X100994431Y-111408726D01*
X100966587Y-111472808D01*
X100959069Y-111481035D01*
X100819889Y-111620215D01*
X100694951Y-111792179D01*
X100598444Y-111981585D01*
X100532753Y-112183760D01*
X100516454Y-112286671D01*
X100499500Y-112393713D01*
X98000500Y-112393713D01*
X98000500Y-103448872D01*
X100099500Y-103448872D01*
X100099500Y-103711127D01*
X100111267Y-103800500D01*
X100133730Y-103971116D01*
X100201602Y-104224418D01*
X100201605Y-104224428D01*
X100301953Y-104466690D01*
X100301958Y-104466700D01*
X100433075Y-104693803D01*
X100592718Y-104901851D01*
X100592726Y-104901860D01*
X100778140Y-105087274D01*
X100778148Y-105087281D01*
X100986196Y-105246924D01*
X101213299Y-105378041D01*
X101213309Y-105378046D01*
X101455571Y-105478394D01*
X101455581Y-105478398D01*
X101708884Y-105546270D01*
X101968880Y-105580500D01*
X101968887Y-105580500D01*
X102231113Y-105580500D01*
X102231120Y-105580500D01*
X102491116Y-105546270D01*
X102744419Y-105478398D01*
X102986697Y-105378043D01*
X103213803Y-105246924D01*
X103421851Y-105087282D01*
X103421855Y-105087277D01*
X103421860Y-105087274D01*
X103607274Y-104901860D01*
X103607277Y-104901855D01*
X103607282Y-104901851D01*
X103766924Y-104693803D01*
X103898043Y-104466697D01*
X103998398Y-104224419D01*
X104066270Y-103971116D01*
X104100500Y-103711120D01*
X104100500Y-103448880D01*
X104066270Y-103188884D01*
X103998398Y-102935581D01*
X103908753Y-102719158D01*
X103898046Y-102693309D01*
X103898041Y-102693299D01*
X103766924Y-102466196D01*
X103607281Y-102258148D01*
X103607274Y-102258140D01*
X103421860Y-102072726D01*
X103421851Y-102072718D01*
X103213803Y-101913075D01*
X102986700Y-101781958D01*
X102986690Y-101781953D01*
X102744428Y-101681605D01*
X102744421Y-101681603D01*
X102744419Y-101681602D01*
X102491116Y-101613730D01*
X102433339Y-101606123D01*
X102231127Y-101579500D01*
X102231120Y-101579500D01*
X101968880Y-101579500D01*
X101968872Y-101579500D01*
X101737772Y-101609926D01*
X101708884Y-101613730D01*
X101455581Y-101681602D01*
X101455571Y-101681605D01*
X101213309Y-101781953D01*
X101213299Y-101781958D01*
X100986196Y-101913075D01*
X100778148Y-102072718D01*
X100592718Y-102258148D01*
X100433075Y-102466196D01*
X100301958Y-102693299D01*
X100301953Y-102693309D01*
X100201605Y-102935571D01*
X100201602Y-102935581D01*
X100143030Y-103154178D01*
X100133730Y-103188885D01*
X100099500Y-103448872D01*
X98000500Y-103448872D01*
X98000500Y-96952155D01*
X100100000Y-96952155D01*
X100100000Y-98250000D01*
X101380936Y-98250000D01*
X101369207Y-98278316D01*
X101340000Y-98425147D01*
X101340000Y-98574853D01*
X101369207Y-98721684D01*
X101380936Y-98750000D01*
X100100000Y-98750000D01*
X100100000Y-100047844D01*
X100106401Y-100107372D01*
X100106403Y-100107379D01*
X100156645Y-100242086D01*
X100156649Y-100242093D01*
X100242809Y-100357187D01*
X100242812Y-100357190D01*
X100357906Y-100443350D01*
X100357913Y-100443354D01*
X100492620Y-100493596D01*
X100492627Y-100493598D01*
X100552155Y-100499999D01*
X100552172Y-100500000D01*
X101850000Y-100500000D01*
X101850000Y-99219064D01*
X101878316Y-99230793D01*
X102025147Y-99260000D01*
X102174853Y-99260000D01*
X102321684Y-99230793D01*
X102350000Y-99219064D01*
X102350000Y-100500000D01*
X103647828Y-100500000D01*
X103647844Y-100499999D01*
X103707372Y-100493598D01*
X103707379Y-100493596D01*
X103842086Y-100443354D01*
X103842093Y-100443350D01*
X103957187Y-100357190D01*
X103957190Y-100357187D01*
X104043350Y-100242093D01*
X104043354Y-100242086D01*
X104093596Y-100107379D01*
X104093598Y-100107372D01*
X104099999Y-100047844D01*
X104100000Y-100047827D01*
X104100000Y-98750000D01*
X102819064Y-98750000D01*
X102830793Y-98721684D01*
X102860000Y-98574853D01*
X102860000Y-98425147D01*
X102830793Y-98278316D01*
X102819064Y-98250000D01*
X104100000Y-98250000D01*
X104100000Y-96952172D01*
X104099999Y-96952155D01*
X104093598Y-96892627D01*
X104093596Y-96892620D01*
X104043354Y-96757913D01*
X104043350Y-96757906D01*
X103957190Y-96642812D01*
X103957187Y-96642809D01*
X103842093Y-96556649D01*
X103842086Y-96556645D01*
X103707379Y-96506403D01*
X103707372Y-96506401D01*
X103647844Y-96500000D01*
X102350000Y-96500000D01*
X102350000Y-97780935D01*
X102321684Y-97769207D01*
X102174853Y-97740000D01*
X102025147Y-97740000D01*
X101878316Y-97769207D01*
X101850000Y-97780935D01*
X101850000Y-96500000D01*
X100552155Y-96500000D01*
X100492627Y-96506401D01*
X100492620Y-96506403D01*
X100357913Y-96556645D01*
X100357906Y-96556649D01*
X100242812Y-96642809D01*
X100242809Y-96642812D01*
X100156649Y-96757906D01*
X100156645Y-96757913D01*
X100106403Y-96892620D01*
X100106401Y-96892627D01*
X100100000Y-96952155D01*
X98000500Y-96952155D01*
X98000500Y-91893713D01*
X100499500Y-91893713D01*
X100499500Y-92106286D01*
X100525544Y-92270725D01*
X100532754Y-92316243D01*
X100566841Y-92421153D01*
X100598444Y-92518414D01*
X100694951Y-92707820D01*
X100819890Y-92879786D01*
X100970213Y-93030109D01*
X101142179Y-93155048D01*
X101142181Y-93155049D01*
X101142184Y-93155051D01*
X101331588Y-93251557D01*
X101533757Y-93317246D01*
X101743713Y-93350500D01*
X101743714Y-93350500D01*
X102256286Y-93350500D01*
X102256287Y-93350500D01*
X102466243Y-93317246D01*
X102668412Y-93251557D01*
X102857816Y-93155051D01*
X102951656Y-93086873D01*
X103029786Y-93030109D01*
X103029788Y-93030106D01*
X103029792Y-93030104D01*
X103180104Y-92879792D01*
X103180106Y-92879788D01*
X103180109Y-92879786D01*
X103307915Y-92703875D01*
X103309259Y-92704851D01*
X103355705Y-92662834D01*
X103409618Y-92650500D01*
X107744292Y-92650500D01*
X107811331Y-92670185D01*
X107836915Y-92693380D01*
X107837053Y-92693243D01*
X107839852Y-92696042D01*
X107841555Y-92697586D01*
X107842155Y-92698345D01*
X107842160Y-92698350D01*
X107964150Y-92820340D01*
X108110984Y-92910908D01*
X108274747Y-92965174D01*
X108375823Y-92975500D01*
X108974176Y-92975499D01*
X108974184Y-92975498D01*
X108974187Y-92975498D01*
X109029530Y-92969844D01*
X109075253Y-92965174D01*
X109239016Y-92910908D01*
X109385850Y-92820340D01*
X109499819Y-92706371D01*
X109561142Y-92672886D01*
X109630834Y-92677870D01*
X109675181Y-92706371D01*
X109789150Y-92820340D01*
X109935984Y-92910908D01*
X110099747Y-92965174D01*
X110200823Y-92975500D01*
X110799176Y-92975499D01*
X110799184Y-92975498D01*
X110799187Y-92975498D01*
X110854530Y-92969844D01*
X110900253Y-92965174D01*
X111064016Y-92910908D01*
X111210850Y-92820340D01*
X111332840Y-92698350D01*
X111332841Y-92698347D01*
X111332844Y-92698345D01*
X111333445Y-92697586D01*
X111333989Y-92697200D01*
X111337947Y-92693243D01*
X111338623Y-92693919D01*
X111390468Y-92657211D01*
X111430708Y-92650500D01*
X115550622Y-92650500D01*
X115617661Y-92670185D01*
X115663416Y-92722989D01*
X115665284Y-92727930D01*
X115665432Y-92727869D01*
X115728102Y-92879172D01*
X115728109Y-92879185D01*
X115815710Y-93010288D01*
X115815713Y-93010292D01*
X115927207Y-93121786D01*
X115927211Y-93121789D01*
X116058314Y-93209390D01*
X116058327Y-93209397D01*
X116160107Y-93251555D01*
X116204003Y-93269737D01*
X116358653Y-93300499D01*
X116358656Y-93300500D01*
X116358658Y-93300500D01*
X116516344Y-93300500D01*
X116516345Y-93300499D01*
X116670997Y-93269737D01*
X116816679Y-93209394D01*
X116947789Y-93121789D01*
X117059289Y-93010289D01*
X117146894Y-92879179D01*
X117207237Y-92733497D01*
X117238000Y-92578842D01*
X117238000Y-92421158D01*
X117238000Y-92421155D01*
X117237999Y-92421153D01*
X117221083Y-92336108D01*
X117227310Y-92266517D01*
X117270173Y-92211339D01*
X117279579Y-92205185D01*
X117285396Y-92201744D01*
X117285398Y-92201744D01*
X117426865Y-92118081D01*
X117543081Y-92001865D01*
X117626744Y-91860398D01*
X117672598Y-91702569D01*
X117675500Y-91665694D01*
X117675500Y-91234306D01*
X117672598Y-91197431D01*
X117667435Y-91179661D01*
X117626745Y-91039606D01*
X117626744Y-91039603D01*
X117626744Y-91039602D01*
X117543081Y-90898135D01*
X117543079Y-90898133D01*
X117543076Y-90898129D01*
X117426870Y-90781923D01*
X117426862Y-90781917D01*
X117285396Y-90698255D01*
X117285393Y-90698254D01*
X117127573Y-90652402D01*
X117127567Y-90652401D01*
X117090701Y-90649500D01*
X117090694Y-90649500D01*
X115924500Y-90649500D01*
X115857461Y-90629815D01*
X115811706Y-90577011D01*
X115800500Y-90525500D01*
X115800500Y-90474000D01*
X115820185Y-90406961D01*
X115872989Y-90361206D01*
X115924500Y-90350000D01*
X116187500Y-90350000D01*
X116187500Y-89800000D01*
X115531815Y-89800000D01*
X115468694Y-89782732D01*
X115410396Y-89748255D01*
X115410393Y-89748254D01*
X115252573Y-89702402D01*
X115252567Y-89702401D01*
X115215701Y-89699500D01*
X115215694Y-89699500D01*
X114945440Y-89699500D01*
X114878401Y-89679815D01*
X114857759Y-89663181D01*
X114494576Y-89299998D01*
X115202704Y-89299998D01*
X115202705Y-89300000D01*
X116187500Y-89300000D01*
X116187500Y-88750000D01*
X115784350Y-88750000D01*
X115747510Y-88752899D01*
X115747504Y-88752900D01*
X115589806Y-88798716D01*
X115589803Y-88798717D01*
X115448447Y-88882314D01*
X115448438Y-88882321D01*
X115332321Y-88998438D01*
X115332314Y-88998447D01*
X115248718Y-89139801D01*
X115202899Y-89297513D01*
X115202704Y-89299998D01*
X114494576Y-89299998D01*
X114256819Y-89062241D01*
X114223334Y-89000918D01*
X114220500Y-88974560D01*
X114220500Y-83416601D01*
X114240185Y-83349562D01*
X114292989Y-83303807D01*
X114297051Y-83302039D01*
X114306683Y-83298049D01*
X114306686Y-83298047D01*
X114306697Y-83298043D01*
X114533803Y-83166924D01*
X114741851Y-83007282D01*
X114741855Y-83007277D01*
X114741860Y-83007274D01*
X114927274Y-82821860D01*
X114927277Y-82821855D01*
X114927282Y-82821851D01*
X115086924Y-82613803D01*
X115218043Y-82386697D01*
X115318398Y-82144419D01*
X115386270Y-81891116D01*
X115420500Y-81631120D01*
X115420500Y-81368880D01*
X115386270Y-81108884D01*
X115318398Y-80855581D01*
X115252747Y-80697086D01*
X115218046Y-80613309D01*
X115218041Y-80613299D01*
X115086924Y-80386196D01*
X114927281Y-80178148D01*
X114927274Y-80178140D01*
X114741860Y-79992726D01*
X114741851Y-79992718D01*
X114533803Y-79833075D01*
X114306700Y-79701958D01*
X114306690Y-79701953D01*
X114064428Y-79601605D01*
X114064421Y-79601603D01*
X114064419Y-79601602D01*
X113811116Y-79533730D01*
X113753339Y-79526123D01*
X113551127Y-79499500D01*
X113551120Y-79499500D01*
X113288880Y-79499500D01*
X113288872Y-79499500D01*
X113057772Y-79529926D01*
X113028884Y-79533730D01*
X112775581Y-79601602D01*
X112775571Y-79601605D01*
X112533309Y-79701953D01*
X112533299Y-79701958D01*
X112306196Y-79833075D01*
X112098148Y-79992718D01*
X111912718Y-80178148D01*
X111753075Y-80386196D01*
X111621958Y-80613299D01*
X111621953Y-80613309D01*
X111521605Y-80855571D01*
X111521602Y-80855581D01*
X111453730Y-81108885D01*
X111419500Y-81368872D01*
X111419500Y-81631127D01*
X111423584Y-81662143D01*
X111453730Y-81891116D01*
X111521602Y-82144418D01*
X111521605Y-82144428D01*
X111621953Y-82386690D01*
X111621958Y-82386700D01*
X111753075Y-82613803D01*
X111912718Y-82821851D01*
X111912726Y-82821860D01*
X112098140Y-83007274D01*
X112098148Y-83007281D01*
X112306196Y-83166924D01*
X112533299Y-83298041D01*
X112533316Y-83298049D01*
X112542949Y-83302039D01*
X112597354Y-83345878D01*
X112619421Y-83412172D01*
X112619500Y-83416601D01*
X112619500Y-89436346D01*
X112650261Y-89590989D01*
X112650264Y-89591001D01*
X112710602Y-89736672D01*
X112710609Y-89736685D01*
X112798210Y-89867788D01*
X112798213Y-89867792D01*
X113288181Y-90357759D01*
X113321666Y-90419082D01*
X113324500Y-90445440D01*
X113324500Y-90715701D01*
X113327401Y-90752567D01*
X113327402Y-90752573D01*
X113373254Y-90910393D01*
X113373255Y-90910396D01*
X113456917Y-91051862D01*
X113456923Y-91051870D01*
X113542872Y-91137819D01*
X113576357Y-91199142D01*
X113571373Y-91268834D01*
X113529501Y-91324767D01*
X113464037Y-91349184D01*
X113455191Y-91349500D01*
X111430708Y-91349500D01*
X111363669Y-91329815D01*
X111338083Y-91306619D01*
X111337946Y-91306757D01*
X111335136Y-91303947D01*
X111333445Y-91302414D01*
X111332847Y-91301658D01*
X111332841Y-91301652D01*
X111332840Y-91301650D01*
X111210850Y-91179660D01*
X111210849Y-91179659D01*
X111210846Y-91179656D01*
X111210845Y-91179655D01*
X111209400Y-91178764D01*
X111208617Y-91177893D01*
X111205184Y-91175179D01*
X111205647Y-91174592D01*
X111162677Y-91126815D01*
X111150500Y-91073228D01*
X111150500Y-90426771D01*
X111170185Y-90359732D01*
X111205429Y-90325132D01*
X111205183Y-90324821D01*
X111208082Y-90322528D01*
X111209401Y-90321233D01*
X111210850Y-90320340D01*
X111332840Y-90198350D01*
X111423408Y-90051516D01*
X111477674Y-89887753D01*
X111488000Y-89786677D01*
X111487999Y-89213324D01*
X111487604Y-89209461D01*
X111477674Y-89112247D01*
X111473583Y-89099901D01*
X111423408Y-88948484D01*
X111332840Y-88801650D01*
X111210850Y-88679660D01*
X111095243Y-88608353D01*
X111064018Y-88589093D01*
X111064013Y-88589091D01*
X111039219Y-88580875D01*
X110900253Y-88534826D01*
X110900251Y-88534825D01*
X110799178Y-88524500D01*
X110200830Y-88524500D01*
X110200812Y-88524501D01*
X110099747Y-88534825D01*
X109935984Y-88589092D01*
X109935981Y-88589093D01*
X109789151Y-88679659D01*
X109674827Y-88793983D01*
X109613504Y-88827467D01*
X109543812Y-88822483D01*
X109499465Y-88793982D01*
X109385538Y-88680055D01*
X109385534Y-88680052D01*
X109238811Y-88589551D01*
X109238800Y-88589546D01*
X109075152Y-88535319D01*
X108974154Y-88525000D01*
X108925000Y-88525000D01*
X108925000Y-90474999D01*
X108974140Y-90474999D01*
X108974154Y-90474998D01*
X109075152Y-90464680D01*
X109238800Y-90410453D01*
X109238811Y-90410448D01*
X109385533Y-90319948D01*
X109499464Y-90206017D01*
X109560787Y-90172532D01*
X109630479Y-90177516D01*
X109674827Y-90206017D01*
X109789150Y-90320340D01*
X109790598Y-90321233D01*
X109791382Y-90322104D01*
X109794817Y-90324821D01*
X109794352Y-90325407D01*
X109837321Y-90373180D01*
X109849500Y-90426771D01*
X109849500Y-91073228D01*
X109829815Y-91140267D01*
X109794569Y-91174867D01*
X109794816Y-91175179D01*
X109791915Y-91177472D01*
X109790600Y-91178764D01*
X109789154Y-91179655D01*
X109675180Y-91293629D01*
X109613857Y-91327113D01*
X109544165Y-91322129D01*
X109499818Y-91293628D01*
X109385851Y-91179661D01*
X109385850Y-91179660D01*
X109239016Y-91089092D01*
X109075253Y-91034826D01*
X109075251Y-91034825D01*
X108974178Y-91024500D01*
X108375830Y-91024500D01*
X108375812Y-91024501D01*
X108274747Y-91034825D01*
X108110984Y-91089092D01*
X108110981Y-91089093D01*
X107964148Y-91179661D01*
X107842155Y-91301654D01*
X107841555Y-91302414D01*
X107841010Y-91302799D01*
X107837053Y-91306757D01*
X107836376Y-91306080D01*
X107784532Y-91342789D01*
X107744292Y-91349500D01*
X103409618Y-91349500D01*
X103342579Y-91329815D01*
X103308900Y-91295408D01*
X103307915Y-91296125D01*
X103180109Y-91120213D01*
X103040931Y-90981035D01*
X103007446Y-90919712D01*
X103012430Y-90850020D01*
X103054302Y-90794087D01*
X103063516Y-90787815D01*
X103218343Y-90692317D01*
X103342315Y-90568345D01*
X103434356Y-90419124D01*
X103434358Y-90419119D01*
X103489505Y-90252697D01*
X103489506Y-90252690D01*
X103499999Y-90149986D01*
X103500000Y-90149973D01*
X103500000Y-89786654D01*
X107687501Y-89786654D01*
X107697819Y-89887652D01*
X107752046Y-90051300D01*
X107752051Y-90051311D01*
X107842552Y-90198034D01*
X107842555Y-90198038D01*
X107964461Y-90319944D01*
X107964465Y-90319947D01*
X108111188Y-90410448D01*
X108111199Y-90410453D01*
X108274847Y-90464680D01*
X108375851Y-90474999D01*
X108424999Y-90474998D01*
X108425000Y-90474998D01*
X108425000Y-89750000D01*
X107687501Y-89750000D01*
X107687501Y-89786654D01*
X103500000Y-89786654D01*
X103500000Y-89750000D01*
X102433012Y-89750000D01*
X102465925Y-89692993D01*
X102500000Y-89565826D01*
X102500000Y-89434174D01*
X102465925Y-89307007D01*
X102433012Y-89250000D01*
X103499999Y-89250000D01*
X103499999Y-89213345D01*
X107687500Y-89213345D01*
X107687500Y-89250000D01*
X108425000Y-89250000D01*
X108425000Y-88525000D01*
X108424999Y-88524999D01*
X108375861Y-88525000D01*
X108375843Y-88525001D01*
X108274847Y-88535319D01*
X108111199Y-88589546D01*
X108111188Y-88589551D01*
X107964465Y-88680052D01*
X107964461Y-88680055D01*
X107842555Y-88801961D01*
X107842552Y-88801965D01*
X107752051Y-88948688D01*
X107752046Y-88948699D01*
X107697819Y-89112347D01*
X107687500Y-89213345D01*
X103499999Y-89213345D01*
X103499999Y-88850028D01*
X103499998Y-88850013D01*
X103489505Y-88747302D01*
X103434358Y-88580880D01*
X103434356Y-88580875D01*
X103342315Y-88431654D01*
X103218345Y-88307684D01*
X103069124Y-88215643D01*
X103069119Y-88215641D01*
X102902697Y-88160494D01*
X102902690Y-88160493D01*
X102799986Y-88150000D01*
X102250000Y-88150000D01*
X102250000Y-89066988D01*
X102192993Y-89034075D01*
X102065826Y-89000000D01*
X101934174Y-89000000D01*
X101807007Y-89034075D01*
X101750000Y-89066988D01*
X101750000Y-88150000D01*
X101200028Y-88150000D01*
X101200012Y-88150001D01*
X101097302Y-88160494D01*
X100930880Y-88215641D01*
X100930875Y-88215643D01*
X100781654Y-88307684D01*
X100657684Y-88431654D01*
X100565643Y-88580875D01*
X100565641Y-88580880D01*
X100510494Y-88747302D01*
X100510493Y-88747309D01*
X100500000Y-88850013D01*
X100500000Y-89250000D01*
X101566988Y-89250000D01*
X101534075Y-89307007D01*
X101500000Y-89434174D01*
X101500000Y-89565826D01*
X101534075Y-89692993D01*
X101566988Y-89750000D01*
X100500001Y-89750000D01*
X100500001Y-90149986D01*
X100510494Y-90252697D01*
X100565641Y-90419119D01*
X100565643Y-90419124D01*
X100657684Y-90568345D01*
X100781654Y-90692315D01*
X100936484Y-90787815D01*
X100983208Y-90839763D01*
X100994431Y-90908726D01*
X100966587Y-90972808D01*
X100959069Y-90981035D01*
X100819889Y-91120215D01*
X100694951Y-91292179D01*
X100598444Y-91481585D01*
X100532753Y-91683760D01*
X100499500Y-91893713D01*
X98000500Y-91893713D01*
X98000500Y-82083621D01*
X98020185Y-82016582D01*
X98072989Y-81970827D01*
X98142147Y-81960883D01*
X98205703Y-81989908D01*
X98243477Y-82048686D01*
X98246117Y-82059430D01*
X98294545Y-82302902D01*
X98294548Y-82302913D01*
X98388686Y-82613247D01*
X98512786Y-82912849D01*
X98512788Y-82912854D01*
X98665646Y-83198830D01*
X98665657Y-83198848D01*
X98845811Y-83468467D01*
X98845821Y-83468481D01*
X99051546Y-83719158D01*
X99280841Y-83948453D01*
X99280846Y-83948457D01*
X99280847Y-83948458D01*
X99531524Y-84154183D01*
X99801158Y-84334347D01*
X99801167Y-84334352D01*
X99801169Y-84334353D01*
X100087145Y-84487211D01*
X100087147Y-84487211D01*
X100087153Y-84487215D01*
X100386754Y-84611314D01*
X100697077Y-84705449D01*
X100697083Y-84705450D01*
X100697086Y-84705451D01*
X100697097Y-84705454D01*
X100896528Y-84745122D01*
X101015132Y-84768714D01*
X101337857Y-84800500D01*
X101337860Y-84800500D01*
X101662140Y-84800500D01*
X101662143Y-84800500D01*
X101984868Y-84768714D01*
X102142295Y-84737399D01*
X102302902Y-84705454D01*
X102302913Y-84705451D01*
X102302913Y-84705450D01*
X102302923Y-84705449D01*
X102613246Y-84611314D01*
X102912847Y-84487215D01*
X103198842Y-84334347D01*
X103468476Y-84154183D01*
X103719153Y-83948458D01*
X103948458Y-83719153D01*
X104154183Y-83468476D01*
X104334347Y-83198842D01*
X104487215Y-82912847D01*
X104611314Y-82613246D01*
X104705449Y-82302923D01*
X104705451Y-82302913D01*
X104705454Y-82302902D01*
X104749071Y-82083621D01*
X104768714Y-81984868D01*
X104800500Y-81662143D01*
X104800500Y-81368872D01*
X106339500Y-81368872D01*
X106339500Y-81631127D01*
X106343584Y-81662143D01*
X106373730Y-81891116D01*
X106441602Y-82144418D01*
X106441605Y-82144428D01*
X106541953Y-82386690D01*
X106541958Y-82386700D01*
X106673075Y-82613803D01*
X106832718Y-82821851D01*
X106832726Y-82821860D01*
X107018140Y-83007274D01*
X107018148Y-83007281D01*
X107226196Y-83166924D01*
X107453299Y-83298041D01*
X107453309Y-83298046D01*
X107695571Y-83398394D01*
X107695581Y-83398398D01*
X107948884Y-83466270D01*
X108197188Y-83498960D01*
X108208864Y-83500498D01*
X108208880Y-83500500D01*
X108208887Y-83500500D01*
X108471113Y-83500500D01*
X108471120Y-83500500D01*
X108731116Y-83466270D01*
X108984419Y-83398398D01*
X109161340Y-83325114D01*
X109226690Y-83298046D01*
X109226691Y-83298045D01*
X109226697Y-83298043D01*
X109453803Y-83166924D01*
X109661851Y-83007282D01*
X109661855Y-83007277D01*
X109661860Y-83007274D01*
X109847274Y-82821860D01*
X109847277Y-82821855D01*
X109847282Y-82821851D01*
X110006924Y-82613803D01*
X110138043Y-82386697D01*
X110238398Y-82144419D01*
X110306270Y-81891116D01*
X110340500Y-81631120D01*
X110340500Y-81368880D01*
X110306270Y-81108884D01*
X110238398Y-80855581D01*
X110172747Y-80697086D01*
X110138046Y-80613309D01*
X110138041Y-80613299D01*
X110006924Y-80386196D01*
X109847281Y-80178148D01*
X109847274Y-80178140D01*
X109661860Y-79992726D01*
X109661851Y-79992718D01*
X109453803Y-79833075D01*
X109226700Y-79701958D01*
X109226690Y-79701953D01*
X108984428Y-79601605D01*
X108984421Y-79601603D01*
X108984419Y-79601602D01*
X108731116Y-79533730D01*
X108673339Y-79526123D01*
X108471127Y-79499500D01*
X108471120Y-79499500D01*
X108208880Y-79499500D01*
X108208872Y-79499500D01*
X107977772Y-79529926D01*
X107948884Y-79533730D01*
X107695581Y-79601602D01*
X107695571Y-79601605D01*
X107453309Y-79701953D01*
X107453299Y-79701958D01*
X107226196Y-79833075D01*
X107018148Y-79992718D01*
X106832718Y-80178148D01*
X106673075Y-80386196D01*
X106541958Y-80613299D01*
X106541953Y-80613309D01*
X106441605Y-80855571D01*
X106441602Y-80855581D01*
X106373730Y-81108885D01*
X106339500Y-81368872D01*
X104800500Y-81368872D01*
X104800500Y-81337857D01*
X104768714Y-81015132D01*
X104745122Y-80896528D01*
X104705454Y-80697097D01*
X104705451Y-80697086D01*
X104705450Y-80697083D01*
X104705449Y-80697077D01*
X104611314Y-80386754D01*
X104487215Y-80087153D01*
X104436738Y-79992718D01*
X104334353Y-79801169D01*
X104334352Y-79801167D01*
X104334347Y-79801158D01*
X104154183Y-79531524D01*
X103948458Y-79280847D01*
X103948457Y-79280846D01*
X103948453Y-79280841D01*
X103719158Y-79051546D01*
X103468481Y-78845821D01*
X103468480Y-78845820D01*
X103468476Y-78845817D01*
X103198842Y-78665653D01*
X103198837Y-78665650D01*
X103198830Y-78665646D01*
X102912854Y-78512788D01*
X102912849Y-78512786D01*
X102613247Y-78388686D01*
X102302913Y-78294548D01*
X102302902Y-78294545D01*
X101984874Y-78231287D01*
X101984857Y-78231284D01*
X101740812Y-78207248D01*
X101662143Y-78199500D01*
X101337857Y-78199500D01*
X101265099Y-78206666D01*
X101015142Y-78231284D01*
X101015125Y-78231287D01*
X100697097Y-78294545D01*
X100697086Y-78294548D01*
X100386752Y-78388686D01*
X100087150Y-78512786D01*
X100087145Y-78512788D01*
X99801169Y-78665646D01*
X99801151Y-78665657D01*
X99531532Y-78845811D01*
X99531518Y-78845821D01*
X99280841Y-79051546D01*
X99051546Y-79280841D01*
X98845821Y-79531518D01*
X98845811Y-79531532D01*
X98665657Y-79801151D01*
X98665646Y-79801169D01*
X98512788Y-80087145D01*
X98512786Y-80087150D01*
X98388686Y-80386752D01*
X98294548Y-80697086D01*
X98294545Y-80697097D01*
X98246117Y-80940569D01*
X98213732Y-81002480D01*
X98153017Y-81037054D01*
X98083247Y-81033315D01*
X98026575Y-80992449D01*
X98000994Y-80927431D01*
X98000500Y-80916378D01*
X98000500Y-79004427D01*
X98000816Y-78995581D01*
X98011527Y-78845821D01*
X98015130Y-78795436D01*
X98017646Y-78777938D01*
X98059356Y-78586200D01*
X98064335Y-78569242D01*
X98132911Y-78385382D01*
X98140251Y-78369310D01*
X98234294Y-78197083D01*
X98243850Y-78182214D01*
X98361443Y-78025128D01*
X98373017Y-78011771D01*
X98511771Y-77873017D01*
X98525128Y-77861443D01*
X98682214Y-77743850D01*
X98697083Y-77734294D01*
X98869310Y-77640251D01*
X98885382Y-77632911D01*
X99069242Y-77564335D01*
X99086200Y-77559356D01*
X99277938Y-77517646D01*
X99295436Y-77515130D01*
X99495582Y-77500816D01*
X99504428Y-77500500D01*
X99565892Y-77500500D01*
X136934108Y-77500500D01*
X136995572Y-77500500D01*
X137004418Y-77500816D01*
G37*
%TD.AperFunction*%
%TD*%
M02*
